<?xml version="1.0" encoding="UTF-8" standalone="no"?>
<!DOCTYPE svg  PUBLIC '-//W3C//DTD SVG 1.1//EN'  'http://www.w3.org/Graphics/SVG/1.1/DTD/svg11.dtd'>
<svg version="1.1" xmlns="http://www.w3.org/2000/svg">
<defs>
<font id="Merriweather-BoldItalic" horiz-adv-x="1248">
<font-face underline-thickness="96" underline-position="-266" cap-height="1522" panose-1="2 6 5 3 5 4 6 3 7 4" x-height="1163" unicode-range="U+0020-050F" ascent="1638" slope="-7" descent="-410" font-style="italic" font-family="Merriweather Bold" bbox="-233 -531 2307 2008" font-weight="700" units-per-em="2048"/>
<missing-glyph/>
<glyph unicode=" " horiz-adv-x="485" glyph-name="space"/>
<glyph d="M378 1778h295l-251 -1268h-175zM126 124q2 40 18 72.5t40.5 56t55 36t62.5 12.5q36 0 62.5 -12t43.5 -32t24 -46.5t6 -54.5q-2 -44 -19 -77t-43.5 -55t-59 -33.5t-65.5 -11.5q-27 0 -51 10.5t-41 29.5t-26 46t-7 59z" unicode="!" horiz-adv-x="703" glyph-name="exclam"/>
<glyph d="M299 1687h261l-166 -721h-174zM800 1687h261l-166 -721h-174z" unicode='&quot;' horiz-adv-x="1063" glyph-name="quotedbl"/>
<glyph d="M308 365h-197l16 157h209l53 349h-204l12 154h215l53 332h199l-51 -332h277l56 332h199l-54 -332h215l-12 -154h-226l-54 -349h210l-16 -157h-222l-57 -365h-194l51 365h-278l-62 -365h-196zM814 522l53 349h-277l-54 -349h278z" unicode="#" horiz-adv-x="1405" glyph-name="numbersign"/>
<glyph d="M112 371h170l14 -199q42 -32 99.5 -54.5t127.5 -22.5q63 0 114.5 15.5t88.5 45.5t57 73t20 99q0 54 -18 97t-52 81t-83.5 74t-111.5 75q-64 41 -124.5 85t-107 97.5t-75 118t-28.5 145.5q0 97 35.5 174t98.5 133t149 89t187 41l30 187h181l-31 -189q105 -8 172 -29.5 t103 -43.5l-51 -277h-158l-31 183q-38 26 -87.5 40.5t-104.5 14.5q-48 0 -90.5 -13.5t-74.5 -40t-51 -66.5t-19 -93q0 -57 19.5 -102.5t56 -85t88.5 -76.5t117 -77q62 -38 121 -80.5t104.5 -94.5t73.5 -115t28 -142q0 -91 -32 -170t-94 -139t-152 -99t-205 -49l-34 -211 h-180l34 211q-63 5 -120 15.5t-103 23t-79 26t-47 25.5z" unicode="$" horiz-adv-x="1205" glyph-name="dollar"/>
<glyph d="M1326 1530h193l-947 -1530h-193zM472 739q-71 0 -126 24.5t-92.5 67.5t-56.5 100.5t-19 123.5q0 79 31.5 156.5t88 138.5t134.5 98.5t170 37.5q77 0 133.5 -23t93 -63t54.5 -95.5t18 -119.5q0 -82 -30.5 -162t-87 -143t-135.5 -102t-176 -39zM501 848q49 0 84 34t58 84.5 t34 107.5t11 103q0 92 -27.5 146.5t-86.5 54.5q-50 0 -86 -32.5t-59.5 -81t-35 -104.5t-11.5 -103t6.5 -85t21 -66t37 -43t54.5 -15zM1025 376q0 79 32 156.5t88.5 138t134.5 98t170 37.5q77 0 133.5 -22.5t93 -63t54.5 -95.5t18 -119q0 -82 -30.5 -162t-87 -143 t-135.5 -102t-176 -39q-72 0 -127 24.5t-92.5 67.5t-56.5 100.5t-19 123.5zM1230 378q0 -47 6.5 -85t21 -66t37 -43t54.5 -15q49 0 84 34t57.5 84.5t33.5 107.5t11 103q0 92 -27 146.5t-86 54.5q-50 0 -86 -32.5t-59.5 -81t-35 -104.5t-11.5 -103z" unicode="%" horiz-adv-x="1911" glyph-name="percent"/>
<glyph d="M61 352q0 85 30.5 150t82 115t119.5 88.5t142 72.5q-17 39 -32.5 83t-27 88t-18.5 87.5t-7 82.5q0 101 38.5 181t106 136t159.5 85.5t200 29.5q103 0 176.5 -24.5t120 -65t68 -93.5t21.5 -110q0 -63 -20.5 -115t-56 -95.5t-83.5 -79.5t-103.5 -68.5t-115.5 -61.5 l-120 -58q47 -84 91 -153t88.5 -128t92 -111t101.5 -102l9 -10q68 98 68 249q0 31 -2.5 58.5t-5.5 50.5q-8 1 -16.5 1h-17.5q-48 0 -89.5 -12t-63.5 -26v185q7 7 19.5 15.5t31.5 16t45 12.5t59 5q28 0 54 -3t53 -6.5t56 -6.5t64 -3q40 0 69.5 7t50 25t33.5 48t20 76h97 q12 -69 7 -133.5t-28 -114t-63.5 -79.5t-100.5 -30h-21t-21 1q1 -10 1.5 -21t0.5 -22q0 -121 -49 -218t-133 -171q13 -9 24.5 -15.5t20.5 -11.5q21 -9 46 -16.5t51.5 -12t52.5 -6.5t48 0l-5 -108q-28 -9 -54.5 -15t-55 -9t-60 -4.5t-69.5 -1.5q-140 0 -241 58 q-88 -32 -182 -49t-190 -17q-117 0 -220 24t-180 72t-121.5 119t-44.5 165zM684 888q60 30 113 63.5t92.5 75.5t62 94t22.5 118q0 34 -6 69t-21 63.5t-41 46.5t-67 18q-58 0 -99.5 -21t-68 -57t-39 -85t-12.5 -106q0 -84 20 -154.5t44 -124.5zM345 378q0 -69 24.5 -121 t67 -87.5t100.5 -53t125 -17.5q66 0 122.5 6t105.5 20q-69 63 -122 126t-98 127.5t-84.5 130.5t-81.5 137q-36 -26 -65 -54.5t-50 -61.5t-32.5 -71t-11.5 -81z" unicode="&amp;" horiz-adv-x="1690" glyph-name="ampersand"/>
<glyph d="M295 1687h261l-166 -721h-174z" unicode="&apos;" horiz-adv-x="562" glyph-name="quotesingle"/>
<glyph d="M188 505q0 103 15 219q19 147 66.5 277t109 240.5t130.5 200t132 155.5t113.5 107t75.5 54l109 -76q-21 -14 -59 -49.5t-84.5 -93t-97.5 -135t-97.5 -174t-85 -211t-59.5 -246.5q-9 -63 -14.5 -134t-5.5 -127q0 -110 14 -206t36.5 -177t51 -146.5t57 -114.5t54.5 -81.5 t44 -47.5l-125 -75h-17q-18 13 -52.5 44.5t-74.5 82t-82 120.5t-76 159t-56 198t-22 237z" unicode="(" horiz-adv-x="871" glyph-name="parenleft"/>
<glyph d="M689 923q0 -103 -15 -219q-19 -147 -66.5 -277t-109 -240.5t-130.5 -200t-132 -155.5t-113.5 -107t-75.5 -54l-109 76q21 14 59 49.5t84.5 93t97.5 135t97.5 174t85 211t59.5 246.5q9 63 14.5 134t5.5 127q0 110 -14 206t-36.5 177t-51 146.5t-57 114.5t-54.5 81.5 t-44 47.5l125 75h17q18 -13 52.5 -44.5t74.5 -82t82 -120.5t76 -159t56 -198t22 -237z" unicode=")" horiz-adv-x="876" glyph-name="parenright"/>
<glyph d="M246 988l334 135l84 28l-76 26l-310 136l130 187l254 -211l59 -55l-8 84l-7 346l226 -1l-81 -347l-23 -80l68 54l301 212l88 -190l-335 -135l-84 -28l77 -27l309 -135l-129 -187l-255 211l-59 57l8 -86l7 -346l-226 1l80 347l24 81l-68 -56l-300 -211z" unicode="*" horiz-adv-x="1366" glyph-name="asterisk"/>
<glyph d="M573 525l26 164l-141 -7h-208l18 180h220l138 -11l13 165l27 230h201l-26 -230l-29 -164l115 10h238l-18 -180h-250l-112 7q-2 -42 -5 -82t-5 -82l-28 -241h-201z" unicode="+" horiz-adv-x="1344" glyph-name="plus"/>
<glyph d="M89 142l145 140q52 -16 88.5 -47.5t58.5 -72t32 -87t10 -92.5q0 -84 -28.5 -160t-78.5 -139.5t-118 -113.5t-147 -82l-63 84l3 21q38 18 73 51t61.5 75t42.5 91.5t16 101.5q0 33 -8 63t-21.5 54t-31.5 39.5t-38 18.5z" unicode="," horiz-adv-x="543" glyph-name="comma"/>
<glyph d="M259 862h758l-18 -180h-758z" unicode="-" horiz-adv-x="1187" glyph-name="hyphen"/>
<glyph d="M72 124q2 40 18 72.5t41 56t55.5 36t62.5 12.5q36 0 62.5 -12t43.5 -32t24 -46.5t6 -54.5q-2 -44 -19.5 -77t-43.5 -55t-58.5 -33.5t-65.5 -11.5q-28 0 -51.5 10.5t-40.5 29.5t-26.5 46t-7.5 59z" unicode="." horiz-adv-x="543" glyph-name="period"/>
<glyph d="M-126 -362l861 1959h207l-863 -1959h-205z" unicode="/" horiz-adv-x="854" glyph-name="slash"/>
<glyph d="M102 461q0 151 48 279.5t132.5 222t199.5 146.5t249 53q123 0 209.5 -37.5t141 -102.5t79 -152t24.5 -185q0 -147 -47 -274.5t-130 -222.5t-198.5 -149.5t-251.5 -54.5q-123 0 -209.5 39t-141.5 105t-80 152t-25 181zM580 94q60 0 107.5 26t82.5 70.5t59.5 103.5t40 124 t22 132t6.5 129q0 79 -10 147t-33 118.5t-60 79.5t-91 29q-65 1 -114 -26.5t-84.5 -73.5t-58.5 -106.5t-37 -126t-19.5 -131.5t-5.5 -123q0 -75 10.5 -142.5t33.5 -118.5t60 -81t91 -30z" unicode="0" horiz-adv-x="1278" glyph-name="zero"/>
<glyph d="M94 98l205 27l107 775q-58 -14 -119 -27.5t-127 -24.5l-17 112q52 12 113.5 34.5t121.5 50.5t114.5 59t94.5 58l128 -30l-141 -1006l217 -28l-10 -98h-697z" unicode="1" horiz-adv-x="924" glyph-name="one"/>
<glyph d="M37 94q145 75 271.5 160.5t221 175.5t149 181.5t54.5 178.5q0 97 -47 149.5t-144 52.5q-54 0 -104 -14.5t-93.5 -36.5t-78 -47.5t-57.5 -46.5l-65 112q24 26 68 61t106 66.5t140.5 53.5t171.5 22q118 0 195 -28.5t122 -75t62.5 -105t17.5 -117.5q0 -70 -29 -138t-79 -132 t-117.5 -124t-145.5 -115t-162 -103t-167 -89l553 45l106 178l128 -42l-92 -316h-959z" unicode="2" horiz-adv-x="1213" glyph-name="two"/>
<glyph d="M29 -194q33 -6 67.5 -9.5t60.5 -3.5q116 0 209.5 28.5t159 77.5t101 115t35.5 142q0 48 -15.5 88.5t-50 68.5t-89.5 41.5t-135 9.5l-124 -32l19 133q79 17 152 50.5t128.5 81t88.5 106t33 124.5q0 76 -44.5 118t-122.5 42q-50 0 -94.5 -9t-84.5 -25.5t-76 -38.5t-70 -49 l-52 111q25 27 73.5 59t112 60.5t140 47.5t158.5 19q70 0 132 -17t108.5 -52t73.5 -88t27 -124q0 -68 -31 -132.5t-82.5 -120t-117.5 -99.5t-135 -71q96 7 165 -11t113.5 -55.5t65.5 -92t21 -118.5q0 -79 -28.5 -149.5t-79.5 -129.5t-121.5 -106t-153.5 -79.5t-176 -50 t-189 -17.5q-53 0 -107.5 8t-94.5 16l30 133v0z" unicode="3" horiz-adv-x="1092" glyph-name="three"/>
<glyph d="M-6 88q47 59 102 140.5t114 177t120.5 202t120.5 216.5t114.5 220t102.5 212h39l243 -116q-28 -50 -71.5 -119t-96 -148.5t-111 -165t-116.5 -168t-112 -157.5t-97 -133l-117 -134l450 32l48 363l260 69l-48 -412l219 15l-25 -182h-222l-47 -375h-256l49 375h-610z" unicode="4" horiz-adv-x="1258" glyph-name="four"/>
<glyph d="M59 -209q20 -4 46.5 -7.5t49.5 -3.5q121 0 217 34.5t163.5 92t103.5 131.5t36 153q0 125 -63 188.5t-194 63.5q-67 0 -129 -18t-115 -39l-55 43l160 717h595l22 16h149l-56 -209h-518l-108 -408q19 9 47 17.5t60 15.5t64.5 11t59.5 4q92 0 163.5 -25t120.5 -71t74.5 -111 t25.5 -145q0 -91 -29 -170.5t-80.5 -145.5t-123 -117t-156.5 -86t-181 -53.5t-197 -18.5q-19 0 -44 2t-49 5t-45 6.5t-33 7.5l19 120v0z" unicode="5" horiz-adv-x="1112" glyph-name="five"/>
<glyph d="M112 486q0 124 30 244t85.5 230t134 207t175.5 176t210.5 137.5t238.5 90.5l43 -112q-104 -35 -199 -101t-173.5 -149t-136 -176t-85.5 -181q22 26 53.5 50t71 43t87.5 30t105 11q91 0 160 -29.5t115.5 -81.5t70 -121.5t23.5 -150.5t-18.5 -159t-53 -147.5t-83.5 -127.5 t-110 -100t-133.5 -65.5t-152.5 -23.5q-105 0 -189.5 38.5t-144 106.5t-92 160.5t-32.5 200.5zM381 422q0 -68 9.5 -126t33.5 -100.5t64 -67t100 -24.5q47 0 85 19.5t67 53t50 77.5t34.5 93t19.5 100.5t6 99.5q0 75 -14.5 128.5t-39.5 88t-57.5 50.5t-69.5 16 q-54 0 -96.5 -15.5t-74.5 -38t-54 -48t-36 -45.5q-14 -72 -20.5 -136.5t-6.5 -124.5z" unicode="6" horiz-adv-x="1225" glyph-name="six"/>
<glyph d="M893 978h-538l-91 -216l-177 2l69 382h923l34 -47l-592 -1451l-263 83z" unicode="7" horiz-adv-x="1096" glyph-name="seven"/>
<glyph d="M96 342q0 73 28 139t78 123t118 103.5t149 79.5q-39 33 -75.5 72.5t-65 85.5t-45.5 97.5t-17 108.5q0 85 36 158t101.5 126.5t156 84t199.5 30.5q201 0 302.5 -78t101.5 -224q0 -66 -25.5 -125.5t-69.5 -112t-104 -97.5t-130 -80q54 -38 103 -85.5t85.5 -101.5t58.5 -114 t22 -123q0 -67 -22 -125t-60.5 -105.5t-91 -84.5t-114 -62.5t-129 -38.5t-135.5 -13q-84 0 -166 19.5t-146 62.5t-103.5 112t-39.5 168zM727 912q43 22 80.5 53.5t65.5 72t43.5 90t15.5 107.5q0 54 -14.5 93.5t-40 65t-59 38t-70.5 12.5q-51 0 -94.5 -17.5t-74.5 -49.5 t-48.5 -77t-17.5 -99q0 -45 16 -83.5t44.5 -73t68 -67t85.5 -65.5zM353 356q0 -51 14 -98t43 -82.5t72 -57t102 -21.5q52 0 99 18.5t82.5 52.5t56 82.5t20.5 109.5q0 55 -19.5 99.5t-55 85t-85 79t-109.5 81.5q-47 -26 -87 -61t-69.5 -79t-46 -96.5t-17.5 -112.5z" unicode="8" horiz-adv-x="1223" glyph-name="eight"/>
<glyph d="M211 -316q103 34 199.5 98t176.5 145.5t139 175t88 188.5q-23 -27 -55 -51.5t-72.5 -43t-89 -29.5t-103.5 -11q-92 0 -161 35t-115 95t-69.5 139t-23.5 167q0 72 17.5 142t50.5 133.5t81.5 117.5t109.5 93.5t134.5 62t157.5 22.5q105 0 189.5 -35t144.5 -99.5t92 -156 t32 -204.5q0 -126 -30.5 -248t-86.5 -233t-135.5 -209t-177.5 -178t-211.5 -138.5t-238.5 -90.5zM577 313q52 0 94 15t74.5 37.5t55 48t37.5 46.5q14 60 20.5 121.5t6.5 116.5q0 70 -9.5 132.5t-33 108.5t-63.5 73t-101 27q-71 0 -121.5 -37.5t-82.5 -95.5t-47 -127.5 t-15 -132.5q0 -89 16 -152.5t42 -103.5t59 -58.5t68 -18.5z" unicode="9" horiz-adv-x="1246" glyph-name="nine"/>
<glyph d="M163 933q2 40 18 72.5t41 56t55.5 36t62.5 12.5q36 0 62.5 -12t43.5 -32t24 -46.5t6 -54.5q-2 -44 -19.5 -77t-43.5 -55t-58.5 -33.5t-65.5 -11.5q-28 0 -51.5 10.5t-40.5 29.5t-26.5 46t-7.5 59zM65 124q2 40 18 72.5t41 56t55.5 36t62.5 12.5q36 0 62.5 -12t43.5 -32 t24 -46.5t6 -54.5q-2 -44 -19.5 -77t-43.5 -55t-58.5 -33.5t-65.5 -11.5q-28 0 -51.5 10.5t-40.5 29.5t-26.5 46t-7.5 59z" unicode=":" horiz-adv-x="543" glyph-name="colon"/>
<glyph d="M82 142l145 140q52 -16 88.5 -47.5t58.5 -72t32 -87t10 -92.5q0 -84 -28.5 -160t-78.5 -139.5t-118 -113.5t-147 -82l-63 84l3 21q38 18 73 51t61.5 75t42.5 91.5t16 101.5q0 33 -8 63t-21.5 54t-31.5 39.5t-38 18.5zM164 933q2 40 18 72.5t41 56t55.5 36t62.5 12.5 q36 0 62.5 -12t43.5 -32t24 -46.5t6 -54.5q-2 -44 -19.5 -77t-43.5 -55t-58.5 -33.5t-65.5 -11.5q-28 0 -51.5 10.5t-40.5 29.5t-26.5 46t-7.5 59z" unicode=";" horiz-adv-x="543" glyph-name="semicolon"/>
<glyph d="M211 814l1009 510l-29 -232l-732 -343l651 -351l-25 -222l-890 510z" unicode="&lt;" horiz-adv-x="1368" glyph-name="less"/>
<glyph d="M170 1022h815l-21 -180h-815zM99 502h815l-21 -180h-815z" unicode="=" horiz-adv-x="1063" glyph-name="equal"/>
<glyph d="M1259 689l-1009 -510l29 232l732 343l-651 351l25 222l890 -510z" unicode="&gt;" horiz-adv-x="1368" glyph-name="greater"/>
<glyph d="M309 474q-12 17 -22 44.5t-17.5 60t-12 67.5t-4.5 68q0 51 19.5 93.5t54.5 79t84 69t109 64.5q85 42 151 84.5t105 97.5q8 22 11 49t4 52q2 74 -22.5 132t-70 98.5t-110.5 62t-144 21.5q-23 0 -50.5 -2t-55.5 -7t-55 -12.5t-48 -17.5l38 176q10 9 35 21t59.5 23t77 18.5 t86.5 7.5q95 0 167 -17.5t125.5 -47.5t89 -71.5t57.5 -88.5t31 -98.5t9 -102.5q0 -83 -19.5 -145.5t-52.5 -112.5q-32 -48 -73 -85t-85.5 -68t-89.5 -57.5t-84 -53.5q-29 -19 -53.5 -39t-43 -42.5t-30 -49t-12.5 -57.5q-3 -51 0 -95.5t10 -70.5l-152 -49zM289 124 q2 40 18 72.5t40.5 56t55 36t62.5 12.5q37 0 63.5 -12t43 -32t23.5 -46.5t6 -54.5q-2 -44 -19 -77t-43 -55t-59 -33.5t-66 -11.5q-27 0 -50.5 10.5t-40.5 29.5t-26.5 46t-7.5 59z" unicode="?" horiz-adv-x="981" glyph-name="question"/>
<glyph d="M84 336q0 183 43.5 345.5t120.5 298.5t182 244t229 182.5t261 114.5t277 40q153 0 281 -44.5t220.5 -128.5t143.5 -204.5t51 -272.5q0 -141 -25.5 -263t-69.5 -223t-103.5 -179.5t-128 -132t-142.5 -81.5t-147 -28q-34 0 -55 15t-33 42t-16.5 64.5t-4.5 82.5q0 18 2 44 t6.5 57.5t10.5 66t14 68.5q-34 -80 -78 -158t-94.5 -140t-106 -100.5t-110.5 -38.5q-57 0 -112 25.5t-98 78.5t-69.5 134.5t-26.5 192.5q0 77 16 156t48.5 153.5t80.5 139.5t112 114t143.5 77t175.5 28q21 0 48.5 -4t57 -11.5t57.5 -18.5t49 -26l187 42q-15 -57 -31 -141 t-31 -176.5t-27.5 -185.5t-19.5 -168q-4 -39 -5.5 -68.5t-1.5 -52.5t1 -40.5t2 -32.5q2 -29 8.5 -41.5t14.5 -12.5q42 0 82.5 27.5t76.5 74.5t66 111.5t52 137.5t34.5 152.5t12.5 157.5q0 159 -53 269.5t-139 179.5t-194.5 99.5t-219.5 30.5q-131 0 -243.5 -40.5t-205 -111 t-164.5 -166t-121 -207t-74.5 -233t-25.5 -243.5q0 -185 50.5 -315.5t138 -213t205.5 -121t254 -38.5q43 0 94 5t100 14t91 20t67 23l38 -98q-35 -26 -81 -47.5t-100 -37t-114.5 -24t-125.5 -8.5q-173 0 -321 46t-256 140.5t-169.5 239.5t-61.5 343zM726 447q0 -44 6.5 -88 t21.5 -79t38.5 -57t57.5 -22q30 0 69 35.5t79.5 93t80 131t72.5 149t55.5 146.5t29.5 125q-10 18 -30.5 33.5t-45 26.5t-50.5 17.5t-47 6.5q-62 0 -111 -22t-86.5 -59.5t-64 -88t-43 -108t-24.5 -119t-8 -121.5z" unicode="@" horiz-adv-x="1969" glyph-name="at"/>
<glyph d="M674 1522h282l250 -1393l159 -32l-7 -97h-609l5 97l156 29l-44 299h-523l-133 -298l175 -30l-7 -97h-520l8 97l130 29zM845 563l-89 607l-10 159l-342 -766h441z" unicode="A" horiz-adv-x="1347" glyph-name="A"/>
<glyph d="M15 97l143 30l165 1264l-140 25l13 106h294q80 1 159 8.5t168 7.5q133 0 221.5 -27.5t141.5 -72.5t75.5 -103.5t24.5 -120.5q4 -164 -85 -263t-256 -145q75 -3 136.5 -28.5t105 -67.5t67 -97t24.5 -117q1 -139 -49.5 -236.5t-143 -159t-223 -89.5t-289.5 -28 q-33 0 -71 2.5t-76.5 6t-75.5 6t-68 2.5h-270zM527 855q36 -2 72 -1.5t75 0.5q69 0 131 18.5t108 59t72 104t24 152.5q-4 113 -65 170.5t-191 57.5q-11 0 -30 -1t-40.5 -2.5t-43.5 -4t-40 -5.5zM432 127q18 -5 42 -9t49 -6.5t48 -4t39 -1.5q87 0 155.5 20.5t116 64t71 112 t20.5 164.5q-2 64 -19 112t-52.5 80t-90.5 47.5t-132 15.5q-34 0 -59.5 -0.5t-45.5 -1.5t-36 -2t-29 -2z" unicode="B" horiz-adv-x="1354" glyph-name="B"/>
<glyph d="M75 633q-2 210 59 378t171 285.5t261 180.5t330 63q76 0 132 -5t97.5 -12t71.5 -15.5t56 -14.5l36 -10l-64 -386h-193l-32 287q-29 14 -64.5 23t-81.5 9q-87 0 -156 -34.5t-121.5 -92.5t-89.5 -135t-60.5 -162t-33.5 -172.5t-8 -166.5q3 -114 21 -210.5t55 -167 t93.5 -110t136.5 -39.5q25 0 57 3t65 12.5t63.5 26.5t53.5 45q8 9 19 35t22 57t20 61t14 46h166l-42 -305q-27 -17 -69 -38.5t-101.5 -40t-137.5 -31.5t-177 -13q-155 0 -263 54.5t-175.5 145t-98.5 207.5t-32 242z" unicode="C" horiz-adv-x="1266" glyph-name="C"/>
<glyph d="M4 97l153 30l166 1264l-139 25l11 106h309q75 1 155 8.5t161 7.5q168 0 285.5 -45.5t191.5 -127.5t107.5 -195.5t34.5 -248.5q2 -203 -50.5 -375t-159 -297.5t-265.5 -196t-370 -68.5q-9 0 -21 0.5t-24.5 1.5t-25 2.5t-21.5 2.5q-18 1 -44.5 3t-55.5 3l-58 2t-51 1h-300z M442 134q18 -6 42.5 -11t50 -8.5t50.5 -5.5t44 -2q94 3 168.5 38t131 93t97 134.5t66 163t37 178.5t10.5 181q-1 143 -22.5 242t-66 161t-112.5 90t-163 28q-51 0 -99 -7t-71 -15z" unicode="D" horiz-adv-x="1474" glyph-name="D"/>
<glyph d="M4 97l155 30l162 1264l-139 25l11 106h1034l-23 -344h-171l-40 209l-384 20l-73 -545l454 29l-26 -198l-444 23l-80 -589l502 30l118 258l165 -22l-79 -393h-1154z" unicode="E" horiz-adv-x="1272" glyph-name="E"/>
<glyph d="M16 98l143 29l162 1264l-139 25l13 106h1061l-33 -351h-177l-30 213l-408 22l-72 -549l476 18l-22 -195l-470 30l-77 -582l274 -30l-8 -98h-703z" unicode="F" horiz-adv-x="1197" glyph-name="F"/>
<glyph d="M621 -16q-144 0 -246 54.5t-167.5 144.5t-96.5 205.5t-33 238.5q-4 205 51 373.5t159 288.5t252.5 185.5t332.5 65.5q86 0 150.5 -6t114 -15t87 -19l67.5 -18l51 -11l-61 -317h-191l-15 210q-37 23 -88.5 37.5t-123.5 14.5q-94 0 -166.5 -31.5t-126.5 -86.5t-91 -128.5 t-59.5 -158.5t-32.5 -176t-9 -181q1 -105 18.5 -201.5t54.5 -170.5t94.5 -118t138.5 -44q74 0 136.5 9.5t114.5 38.5l56 422l-216 17l16 133h506l-90 -652q-31 -3 -75 -12t-87 -21q-41 -11 -88 -23.5t-100 -23t-112 -17.5t-125 -7z" unicode="G" horiz-adv-x="1383" glyph-name="G"/>
<glyph d="M19 97l142 30l164 1264l-140 25l13 106h591l-12 -106l-168 -25l-71 -547h597l71 547l-165 25l11 106h597l-12 -106l-147 -25l-163 -1263l155 -31l-11 -97h-618l11 98l179 30l75 580h-598l-75 -581l167 -29l-8 -98h-595z" unicode="H" horiz-adv-x="1602" glyph-name="H"/>
<glyph d="M14 97l149 30l164 1264l-141 25l12 106h588l-11 -106l-164 -25l-163 -1264l167 -29l-8 -98h-604z" unicode="I" horiz-adv-x="740" glyph-name="I"/>
<glyph d="M165 86q30 146 53.5 307t44 328.5t38.5 337t37 332.5l-145 25l15 106h569l-11 -106l-149 -24q-17 -152 -34.5 -302.5t-34 -288.5t-31.5 -260t-28.5 -217.5t-24.5 -160t-19 -88.5q-32 -94 -90.5 -166.5t-135 -124t-165.5 -83.5t-181 -46l-44 99q75 22 133 58.5t100 81 t67.5 94t35.5 98.5z" unicode="J" horiz-adv-x="733" glyph-name="J"/>
<glyph d="M12 97l147 30l163 1264l-139 25l13 106h590l-11 -106l-169 -25l-89 -686l618 686l-127 26l12 105h464l-14 -106l-116 -24l-493 -512q16 -27 35.5 -62.5t40.5 -75.5t43 -81.5t42.5 -81t38 -73.5t31.5 -59q40 -72 70.5 -126t54 -92t42 -60.5t35.5 -31.5l123 -37l-13 -100 h-362q-21 3 -43 25.5t-44 59.5t-44.5 85.5t-46.5 101.5q-20 43 -43 96.5t-47.5 110t-49.5 110.5t-48 99l-186 -193l-47 -368l167 -29l-9 -98h-600z" unicode="K" horiz-adv-x="1431" glyph-name="K"/>
<glyph d="M17 98l142 29l163 1264l-140 25l13 106h608l-12 -106l-185 -25l-163 -1268l407 16l178 397l152 -23l-100 -513h-1074z" unicode="L" horiz-adv-x="1229" glyph-name="L"/>
<glyph d="M-61 98l160 29l322 1264l-179 25l14 106h580l128 -934l18 -170l60 170q12 29 32.5 78t46.5 111t55.5 133t60 144.5t60.5 144.5t56 133.5t46.5 111.5t32.5 78h524l-12 -106l-171 -25l-33 -1263l169 -30l-9 -98h-631l9 99l183 28l48 874l25 400l-140 -352l-454 -1052 l-143 -15l-153 1043l-57 376l-80 -386l-210 -888l207 -29l-9 -98h-568z" unicode="M" horiz-adv-x="1955" glyph-name="M"/>
<glyph d="M12 97l144 29l178 1265l-159 25l16 106h461l414 -1038l75 -232l139 1140l-162 24l11 106h480l-11 -106l-133 -25l-208 -1391h-283l-427 1058l-71 240l-125 -1171l176 -29l-9 -98h-514z" unicode="N" horiz-adv-x="1538" glyph-name="N"/>
<glyph d="M631 -20q-142 0 -244.5 51t-168.5 138.5t-98 206t-33 253.5q-1 123 20.5 238.5t64.5 217t107 185.5t147 144.5t185 94t222 33.5q96 0 173.5 -23.5t137.5 -66t104 -102t72 -130.5t42 -152t15 -167q1 -122 -19.5 -237.5t-62.5 -218t-105 -188t-146 -147t-186.5 -96 t-226.5 -34.5zM660 101q98 0 175 60t130.5 164.5t80.5 247t26 307.5q-1 124 -17 223.5t-49 169.5t-83.5 107.5t-119.5 37.5q-63 0 -119 -28t-102 -79t-82.5 -122t-61 -156.5t-37.5 -183t-12 -201.5q1 -108 15 -206.5t45.5 -174.5t83 -121t127.5 -45z" unicode="O" horiz-adv-x="1426" glyph-name="O"/>
<glyph d="M16 97l142 30l165 1264l-141 25l13 106h288q82 0 156.5 8t152.5 8q133 0 229 -25t158.5 -75.5t93.5 -125t33 -173.5q4 -147 -44.5 -261t-138 -192t-214.5 -118.5t-273 -40.5q-56 0 -87 1t-54 3l-48 -404l242 -29l-8 -98h-675zM510 665q38 -8 72 -10t63 -1q93 1 161.5 34 t114 94t68 148t23.5 197q2 149 -63.5 220t-207.5 69q-28 -1 -63.5 -4.5t-68.5 -10.5z" unicode="P" horiz-adv-x="1294" glyph-name="P"/>
<glyph d="M620 -20q-140 2 -240 53.5t-165 139t-96.5 205t-32.5 251.5q-1 123 20.5 238.5t64.5 217t107 185.5t147 144.5t185 94t222 33.5q96 0 173.5 -23.5t137.5 -66t104 -102t72 -130.5t42 -152t15 -167q1 -165 -37 -317t-114.5 -274t-190 -205.5t-263.5 -111.5q1 -60 24 -94.5 t62 -52t90.5 -22.5t110.5 -5q21 0 53 2.5t67.5 8t70.5 13t62 17.5l2 -164q-19 -15 -51.5 -32.5t-76.5 -32t-97.5 -24.5t-114.5 -10q-105 0 -183 24.5t-124 73t-58.5 120t12.5 165.5zM659 101q98 0 175 60t130.5 164.5t80.5 247t26 307.5q-1 124 -17 223.5t-49 169.5 t-83.5 107.5t-119.5 37.5q-63 0 -119 -28t-102 -79t-82.5 -122t-61 -156.5t-37.5 -183t-12 -201.5q1 -108 15 -206.5t45.5 -174.5t83 -121t127.5 -45z" unicode="Q" horiz-adv-x="1430" glyph-name="Q"/>
<glyph d="M24 97l135 30l163 1264l-139 25l12 106h293q41 0 75.5 2.5t70 5.5t74.5 5.5t89 2.5q142 0 239.5 -23.5t157.5 -69.5t86.5 -114t27.5 -157q1 -85 -22.5 -159.5t-69.5 -135.5t-112.5 -107t-150.5 -73q21 -22 45 -62t46.5 -86t42.5 -91t33 -76q37 -82 61.5 -136t49 -86 t55.5 -45.5t82 -14.5l-8 -103l-332 2q-29 -1 -59.5 56.5t-74.5 173.5q-26 67 -53 140t-54.5 135t-53.5 106t-48 54q-35 -1 -68 -1h-115l-65 -538l185 -29l-7 -98h-600zM519 795q15 -1 40.5 -2t52.5 -1h51h36q79 3 139.5 31.5t101 79t59.5 120.5t16 156q-2 59 -18.5 103 t-49.5 73.5t-84.5 44.5t-123.5 15q-9 0 -26 -1t-37 -2.5t-40 -3.5t-35 -5z" unicode="R" horiz-adv-x="1406" glyph-name="R"/>
<glyph d="M84 372h167l16 -204q38 -28 90 -47.5t118 -19.5q63 0 115 14.5t90.5 43t60 70t23.5 95.5q1 54 -15 97.5t-48.5 82.5t-80.5 75.5t-109 75.5q-64 40 -124 86.5t-106 101.5t-74 120.5t-28 145.5q-1 101 39.5 181.5t112 136t168.5 85t209 29.5q77 0 138 -7t108 -18t80.5 -25 t56.5 -28l-50 -285h-154l-29 190q-33 24 -74.5 37.5t-96.5 13.5q-50 0 -94.5 -13t-77.5 -37.5t-52.5 -61.5t-19.5 -85q0 -58 18.5 -104.5t53 -88t85 -79.5t114.5 -78q62 -39 119.5 -82.5t102 -95.5t71.5 -115t28 -140q1 -98 -36.5 -182.5t-109 -146.5t-175.5 -97.5 t-237 -35.5q-78 0 -150.5 9.5t-132 23.5t-102 30.5t-60.5 30.5z" unicode="S" horiz-adv-x="1123" glyph-name="S"/>
<glyph d="M225 100l248 27l166 1281l-274 -24l-133 -394l-156 -1l90 533h1268l-77 -532l-149 -1l-7 395l-277 24l-167 -1281l268 -27l-9 -100h-802z" unicode="T" horiz-adv-x="1349" glyph-name="T"/>
<glyph d="M152 428q-1 39 0.5 79.5t6.5 85.5l105 799l-140 24l13 106h600l-11 -105l-177 -26l-102 -774q-7 -58 -11 -108t-4 -89q1 -75 19 -135t52.5 -101.5t84 -63.5t114.5 -22q89 0 155.5 34.5t113.5 101.5t77 165.5t47 226.5l103 765l-142 26l11 105h451l-13 -105l-127 -25 l-100 -765q-23 -177 -73 -300t-128 -200t-184 -112t-239 -35q-130 0 -224.5 33.5t-156 93t-91 141.5t-30.5 180z" unicode="U" horiz-adv-x="1427" glyph-name="U"/>
<glyph d="M151 1391l-131 26l12 105h583l-10 -106l-157 -25l121 -908l23 -239l88 239l407 908l-158 25l10 106h482l-15 -106l-131 -24l-650 -1402l-244 -5z" unicode="V" horiz-adv-x="1236" glyph-name="V"/>
<glyph d="M132 1391l-132 26l13 105h559l-9 -106l-145 -25l104 -914l28 -233l69 204l323 810l-14 135l-141 24l10 105h577l-14 -106l-149 -25l93 -914l11 -233l81 217l389 929l-185 26l11 106h518l-12 -105l-142 -25l-629 -1402h-262l-101 971l-389 -971h-260z" unicode="W" horiz-adv-x="1878" glyph-name="W"/>
<glyph d="M-59 98l118 29l496 626l-302 637l-128 26l11 106h597l-9 -105l-145 -25l181 -470l317 469l-137 25l9 106h499l-10 -106l-137 -24l-471 -605l331 -660l138 -29l-9 -98h-623l8 98l148 29l-201 483l-333 -483l151 -30l-9 -97h-501z" unicode="X" horiz-adv-x="1342" glyph-name="X"/>
<glyph d="M221 98l223 29l60 471l-346 793l-119 25l11 106h610l-15 -106l-166 -25l191 -514l41 -138l67 123l318 529l-153 25l10 106h480l-13 -106l-116 -24l-519 -794l-61 -471l222 -29l-9 -98h-726z" unicode="Y" horiz-adv-x="1245" glyph-name="Y"/>
<glyph d="M-32 89l839 1169l143 142l-501 -13l-122 -260l-150 23l61 372h995l27 -86l-832 -1171l-130 -141l553 23l166 293l150 -41l-97 -399h-1071z" unicode="Z" horiz-adv-x="1211" glyph-name="Z"/>
<glyph d="M145 39q2 30 10.5 101t21.5 168t29.5 212.5t34 236t34.5 238t31.5 218t25.5 176.5t16 114q9 72 31 120.5t56.5 77.5t81.5 41.5t106 12.5q33 0 77.5 -7.5t85.5 -16.5q48 -11 97 -23l-17 -107h-275l-223 -1656h31.5t49 -0.5t57.5 -0.5t57.5 -0.5t48.5 -0.5h31l-12 -110 q-34 -10 -65.5 -18.5t-64 -15t-67.5 -10t-76 -3.5q-47 0 -87 7t-69 23.5t-45 44t-16 68.5q0 26 0.5 53t3.5 57z" unicode="[" horiz-adv-x="865" glyph-name="bracketleft"/>
<glyph d="M70 1597h204l577 -1959h-205z" unicode="\" horiz-adv-x="854" glyph-name="backslash"/>
<glyph d="M754 1517q-2 -30 -10.5 -101t-21.5 -168t-29.5 -212.5t-34 -236t-34.5 -238t-31.5 -218t-25.5 -176.5t-16 -114q-9 -72 -31 -120.5t-56.5 -77.5t-81.5 -41.5t-106 -12.5q-33 0 -77.5 7.5t-85.5 16.5q-48 11 -97 23l17 107h275l223 1656h-31.5t-49 0.5t-57.5 0.5 t-57.5 0.5t-48.5 0.5h-31l12 110q34 10 65.5 18.5t64 15t67.5 10t76 3.5q47 0 87 -7t69 -23.5t45 -44t16 -68.5q0 -26 -0.5 -53t-3.5 -57z" unicode="]" horiz-adv-x="865" glyph-name="bracketright"/>
<glyph d="M577 1531h204l397 -1118h-213l-285 795l-284 -795h-211z" unicode="^" horiz-adv-x="1363" glyph-name="asciicircum"/>
<glyph d="M1287 -187l-20 -151h-1378l20 151h1378z" unicode="_" horiz-adv-x="1335" glyph-name="underscore"/>
<glyph d="M404 1245q-21 9 -53 29t-69 48t-76 61t-74.5 67.5t-64.5 67.5t-45 61l181 164l288 -432l-87 -66v0z" unicode="`" horiz-adv-x="541" glyph-name="grave"/>
<glyph d="M404 -20q-89 0 -152.5 33t-104 90.5t-59 135.5t-18.5 167q0 88 19.5 178.5t57.5 174.5t94.5 157.5t131 128.5t166 86.5t200.5 31.5q56 0 116 -12.5t105 -26.5l137 39l-130 -954q-5 -41 6.5 -58.5t28.5 -17.5q14 0 35 9t56 37l30 -64q-8 -12 -29.5 -34.5t-54.5 -45 t-76.5 -39t-94.5 -16.5q-70 0 -112 33t-39 102l-8 13q-26 -29 -59 -55.5t-71 -47t-82 -33t-93 -12.5zM499 140q29 0 58 10.5t56 28.5t51 41t45 47l100 750q-22 8 -46.5 11t-50.5 3q-65 0 -117 -27t-92 -73.5t-68 -107.5t-46 -128.5t-26.5 -137.5t-8.5 -134 q0 -134 36.5 -208.5t108.5 -74.5z" unicode="a" horiz-adv-x="1197" glyph-name="a"/>
<glyph d="M284 1484l-100 43l21 84l308 39l53 -27l-78 -587q24 25 54.5 48t67 40.5t78.5 28t90 10.5q87 0 151 -30.5t107 -87t64 -136.5t21 -179q0 -92 -20.5 -184t-59.5 -175t-96 -154.5t-130.5 -124t-163 -82.5t-193.5 -30q-63 0 -128.5 14t-113.5 29l-124 -43zM368 131 q25 -11 54 -15.5t64 -4.5q63 0 113.5 26t90 71t68 105t47 128t27 140.5t8.5 141.5q0 61 -10 112.5t-29.5 88.5t-48.5 57.5t-67 20.5q-34 0 -65 -11.5t-59 -30.5t-52 -42.5t-43 -48.5z" unicode="b" horiz-adv-x="1196" glyph-name="b"/>
<glyph d="M442 -20q-87 0 -156 30t-117 88.5t-74.5 144.5t-27.5 198q-1 81 16 166t51 165.5t85.5 151.5t121 124t156 84t191.5 31q29 0 61 -3t64 -8t61.5 -13t53.5 -18l-72 -266q-1 1 -8.5 2t-16.5 2t-16.5 1.5t-8.5 1.5q-19 22 -42 48t-47 48.5t-47 37t-43 14.5q-56 0 -107 -38.5 t-89.5 -109.5t-60.5 -173t-20 -229q1 -83 14 -142.5t36.5 -97.5t58 -55.5t79.5 -17.5q43 0 78 8.5t66 24.5t59 38.5t57 49.5l53 -93q-20 -28 -55.5 -62t-87.5 -63.5t-118.5 -49.5t-147.5 -20z" unicode="c" horiz-adv-x="925" glyph-name="c"/>
<glyph d="M408 -20q-90 0 -154 33t-105 90.5t-60 135.5t-19 167q0 88 18.5 178.5t55.5 174.5t93 157.5t129.5 128.5t165.5 86.5t202 31.5q29 0 59 -3.5t59 -9.5l50 332l-142 43l20 83l358 42l55 -27l-205 -1412q-5 -36 2 -57t27 -21q14 0 34 9t56 37l29 -63q-8 -10 -28.5 -32.5 t-53 -45.5t-76 -40.5t-96.5 -17.5q-79 0 -115.5 40t-36.5 124q-23 -30 -54.5 -59.5t-72 -52.5t-89.5 -37.5t-106 -14.5zM501 140q34 0 66 12t60.5 31.5t52.5 44t42 49.5l109 729q-27 14 -58 19.5t-66 5.5q-66 0 -117.5 -27.5t-91 -74t-67.5 -108.5t-46 -130t-26 -138 t-8 -134q0 -134 40 -206.5t110 -72.5z" unicode="d" horiz-adv-x="1222" glyph-name="d"/>
<glyph d="M72 430q1 152 49 285.5t132 233.5t197 157.5t245 57.5q79 0 137 -19.5t96 -53t56.5 -79.5t19.5 -99q1 -80 -30 -144.5t-83 -115t-120 -87t-139 -60t-141 -36t-126 -13.5q-2 -65 8.5 -123t34.5 -102t63 -70t93 -26q50 0 94.5 12.5t84 34t74 50t64.5 60.5l56 -94 q-21 -32 -60.5 -70.5t-96 -73t-129 -57.5t-158.5 -23q-114 0 -194.5 39t-131 103t-73.5 145.5t-22 167.5zM367 573q34 2 75 12t82 29t79.5 45.5t67.5 61.5t46.5 77t16.5 92q-2 74 -28 109t-73 35q-44 0 -80 -22t-64 -58t-49.5 -83.5t-36 -99t-23.5 -103t-13 -95.5z" unicode="e" horiz-adv-x="1067" glyph-name="e"/>
<glyph d="M244 996h-131l18 91l142 63l12 75q15 93 55 174t98.5 141.5t133.5 95t162 34.5q41 0 85 -4.5t84 -21.5l-61 -174q-9 7 -22 15.5t-30.5 16t-38.5 12t-47 4.5q-39 0 -65 -17.5t-43 -49t-27 -75.5t-17 -98l-18 -123h218l-24 -159h-216l-113 -933q-14 -113 -50 -217 t-93 -183.5t-134.5 -127.5t-175.5 -48q-27 0 -53.5 2t-50.5 4.5t-43.5 6t-31.5 6.5l57 180q5 -2 23.5 -9.5t43 -15t50 -13.5t43.5 -6q48 0 78 56t44 159z" unicode="f" horiz-adv-x="694" glyph-name="f"/>
<glyph d="M160 -271q13 -8 42 -22.5t67 -28t81 -23.5t85 -10q57 0 96 8.5t65.5 32t41.5 64t24 105.5l33 240q-25 -23 -55 -44t-65.5 -37t-76 -25t-85.5 -9q-90 0 -154.5 33t-106.5 90.5t-62 135.5t-20 167q0 88 19.5 178.5t57.5 174.5t94.5 157.5t131 128.5t166 86.5t200.5 31.5 q63 0 126 -14t108 -30l144 44l-178 -1240q-11 -84 -42.5 -149t-76.5 -113.5t-101 -82t-117 -54t-124 -29.5t-122 -9q-35 0 -72.5 4t-71.5 10t-61 13t-42 14zM506 140q31 0 61 10t57 26.5t51 38.5t43 45l109 750q-26 11 -54.5 16t-60.5 5q-65 0 -117 -27.5t-92 -74 t-68 -108.5t-46 -130t-26.5 -138t-8.5 -134q0 -134 41 -206.5t111 -72.5z" unicode="g" horiz-adv-x="1189" glyph-name="g"/>
<glyph d="M277 1482l-123 43l17 83l346 42l53 -27l-90 -708q36 53 80 98.5t94 78.5t106 52t116 19q55 0 100.5 -15.5t78.5 -51t51 -93.5t18 -142q0 -29 -5 -72.5t-12.5 -92.5t-16 -99t-16.5 -92q-6 -38 -13.5 -79t-13.5 -81t-10.5 -77.5t-5.5 -70.5q-1 -36 7.5 -50t23.5 -14 q17 0 37.5 10t59.5 40l30 -63q-7 -11 -29.5 -34.5t-58 -47t-83 -41.5t-105.5 -18q-51 0 -84 11t-52 31.5t-26 48.5t-6 63q1 27 5.5 63.5t11 77t14.5 84t16 85.5t17 91.5t16.5 101.5t12 103.5t4.5 96.5q0 47 -7 76t-19.5 44.5t-29.5 21t-38 5.5q-34 0 -72.5 -19.5t-77 -53 t-75 -79t-66.5 -96.5l-93 -735h-272z" unicode="h" horiz-adv-x="1271" glyph-name="h"/>
<glyph d="M133 122q7 60 19 145.5t27.5 193t33.5 235.5t38 272l-129 58l16 85l357 52l53 -24l-133 -930q-11 -76 29 -76q17 0 39 12t60 44l29 -65q-8 -11 -30.5 -35t-57.5 -48t-81.5 -42.5t-103.5 -18.5q-87 0 -130.5 36.5t-35.5 105.5zM436 1360q-29 0 -54.5 12t-45 32t-30.5 46 t-11 54q1 36 14.5 68t36.5 55.5t54.5 37.5t68.5 14q35 0 62.5 -11.5t47 -31t29.5 -44.5t10 -52q-1 -36 -13 -69t-35.5 -57.5t-57 -39t-76.5 -14.5z" unicode="i" horiz-adv-x="658" glyph-name="i"/>
<glyph d="M250 980l-161 51l19 81l390 51l50 -24l-134 -1139q-16 -129 -60.5 -227t-109.5 -164t-146 -99.5t-171 -33.5q-55 0 -97 9.5t-61 27.5l37 104q7 -3 17.5 -5t21.5 -3.5t20 -2.5t13 -1q72 0 119.5 38.5t77.5 102.5t46.5 147t26.5 172zM436 1360q-29 0 -54.5 12t-45 32 t-30.5 46t-11 54q1 36 14.5 68t36.5 55.5t54.5 37.5t68.5 14q35 0 62.5 -11.5t47 -31t29.5 -44.5t10 -52q-1 -36 -13 -69t-35.5 -57.5t-57 -39t-76.5 -14.5z" unicode="j" horiz-adv-x="650" glyph-name="j"/>
<glyph d="M276 1482l-124 43l17 83l346 42l54 -27l-216 -1623h-272zM442 610l4 1h-4q43 28 82.5 53.5t78 56t76.5 69t79 92.5q30 40 40.5 78.5t13.5 79.5q2 35 17.5 58.5t37 38t47.5 20.5t49 6q55 0 87 -33.5t33 -81.5q0 -42 -13.5 -75.5t-33.5 -62.5q-31 -42 -74.5 -81 t-92.5 -73.5t-99 -63.5t-94 -51l221 -393q25 -44 56 -68.5t54 -24.5q19 0 51.5 13t62.5 39l34 -67q-14 -20 -43.5 -47.5t-69.5 -52.5t-89 -42t-103 -17q-67 0 -110 29t-69 85z" unicode="k" horiz-adv-x="1123" glyph-name="k"/>
<glyph d="M111 115q0 16 2.5 39t4.5 38l177 1290l-128 43l20 83l343 42l50 -27l-192 -1414q-5 -35 2 -55.5t27 -20.5q7 0 16 2t20 8t26.5 17t36.5 28l29 -64q-8 -11 -29.5 -35t-55.5 -48t-79 -42.5t-99 -18.5q-36 0 -67 7.5t-54 23.5t-36.5 41.5t-13.5 62.5z" unicode="l" horiz-adv-x="622" glyph-name="l"/>
<glyph d="M236 962l-104 60l18 89l315 52l50 -24l-17 -210q35 49 78 92t92 74.5t102.5 49.5t109.5 18q51 0 94 -12.5t75 -41.5t52.5 -75.5t27.5 -114.5q35 54 79 98.5t94.5 77t107 50.5t116.5 18q54 0 99 -16.5t78 -52.5t51.5 -93.5t18.5 -139.5q0 -29 -4.5 -72t-11.5 -91.5 t-15.5 -99t-15.5 -93.5q-6 -39 -13 -79t-13 -80t-10.5 -77.5t-5.5 -70.5q-2 -36 7 -50.5t23 -14.5q17 0 37.5 11t61.5 44l29 -64q-8 -11 -30 -35t-57 -48.5t-82 -43t-105 -18.5q-51 0 -83.5 12t-51 33t-25.5 48.5t-6 59.5q1 28 5 64.5t10 77.5t13.5 85t15.5 87q7 41 15 90.5 t15 101t11.5 102.5t4.5 96q0 47 -6.5 75.5t-18.5 44.5t-28 21t-36 5q-32 0 -68 -16t-72 -45t-70.5 -68.5t-63.5 -86.5q-5 -64 -12.5 -132.5t-15.5 -128.5l-62 -505h-274l57 443q6 42 12.5 91.5t11.5 101t8 102t3 95.5q-1 50 -7.5 80t-18.5 45.5t-30.5 20t-43.5 4.5 q-31 0 -68 -17.5t-74.5 -48.5t-73.5 -72.5t-66 -89.5l-103 -755h-267z" unicode="m" horiz-adv-x="1925" glyph-name="m"/>
<glyph d="M236 963l-103 59l17 89l316 52l50 -24l-17 -207q36 50 80 92.5t93.5 73t104 48t111.5 17.5q55 0 100.5 -15.5t78.5 -51t51 -93.5t18 -142q0 -29 -5 -72.5t-12.5 -92.5t-16.5 -99t-16 -92q-6 -38 -13.5 -79t-13.5 -81t-10.5 -77.5t-5.5 -70.5q-1 -36 7.5 -50t23.5 -14 t34 9.5t55 36.5l29 -64q-7 -10 -28.5 -32.5t-56 -45.5t-80.5 -40.5t-102 -17.5q-51 0 -84 12t-52 33t-26 49t-6 60q1 27 5.5 63.5t11 77t14.5 84t16 85.5q7 42 16 91.5t16.5 101.5t12.5 103.5t5 96.5q0 47 -6.5 76t-18 44.5t-29 21t-40.5 5.5q-33 0 -70.5 -18.5t-75.5 -50.5 t-73.5 -75.5t-65.5 -93.5l-102 -745h-267z" unicode="n" horiz-adv-x="1284" glyph-name="n"/>
<glyph d="M65 437q-3 96 15.5 187.5t55 172.5t90 148.5t122 116t150.5 75.5t176 27q206 0 316 -118.5t115 -340.5q2 -96 -16 -188t-54.5 -173t-90.5 -149t-122.5 -116.5t-151 -76t-175.5 -27.5q-207 0 -315 120t-115 342zM536 101q51 0 91.5 26.5t71.5 72t53 106t35 127.5 t18.5 137.5t4.5 136.5q-4 169 -47 246.5t-125 77.5q-51 0 -92 -26t-73 -71t-54.5 -104t-36.5 -125.5t-20 -135.5t-4 -134q4 -170 46.5 -252t131.5 -82z" unicode="o" horiz-adv-x="1173" glyph-name="o"/>
<glyph d="M278 -520h-262l201 1491l-108 55l17 85l327 52l50 -24l-12 -104q24 25 53.5 48t65.5 41t77.5 28.5t89.5 10.5q87 0 151.5 -30.5t107.5 -87t64.5 -136.5t21.5 -179q0 -92 -20.5 -184t-60 -175t-96.5 -154.5t-130 -124t-161.5 -82.5t-189.5 -30q-29 0 -57.5 3.5t-57.5 8.5z M369 133q26 -12 55.5 -17t67.5 -5q62 0 111.5 26t88 71t66.5 105t45.5 128t26 140.5t8.5 141.5q0 61 -10 112.5t-29.5 88.5t-48 57.5t-66.5 20.5q-34 0 -64.5 -11.5t-57 -30t-49.5 -42.5t-41 -49z" unicode="p" horiz-adv-x="1195" glyph-name="p"/>
<glyph d="M409 -20q-90 0 -154 33t-105 90.5t-60 135.5t-19 167q0 88 18.5 178.5t55.5 174.5t93 157.5t129.5 128.5t165.5 86.5t202 31.5q30 0 62 -4t63 -10t59.5 -14t50.5 -16l2 1l131 29l-192 -1439q-4 -27 4 -50.5t28 -23.5q17 0 38.5 11.5t59.5 43.5l29 -64q-8 -11 -30.5 -35 t-58 -48.5t-83 -43t-105.5 -18.5q-46 0 -78 12t-51.5 32.5t-27.5 49t-6 61.5l65 466q-24 -24 -54 -46.5t-66 -39.5t-77.5 -27t-88.5 -10zM502 140q33 0 64 11.5t59 30t51.5 42.5t41.5 48l103 739q-25 11 -53.5 15.5t-59.5 4.5q-66 0 -117.5 -27.5t-91 -74t-67.5 -108.5 t-46 -130t-26 -138t-8 -134q0 -134 39.5 -206.5t110.5 -72.5z" unicode="q" horiz-adv-x="1195" glyph-name="q"/>
<glyph d="M234 962l-104 60l17 89l292 52l51 -30l-17 -247q16 46 47 95t75 89.5t99.5 66.5t121.5 26q21 0 39.5 -5.5t26.5 -11.5l-58 -292q-11 8 -38 17t-71 9q-33 0 -67.5 -6.5t-66.5 -22t-60 -40.5t-48 -61l-99 -750h-267z" unicode="r" horiz-adv-x="845" glyph-name="r"/>
<glyph d="M62 224q16 -14 43 -31t62 -32t76 -25t86 -10q29 0 60.5 5.5t57 20.5t42 41.5t16.5 67.5q0 35 -14 65t-38 57.5t-57 54t-71 53.5q-31 22 -66 53.5t-65 73.5t-49.5 94t-19.5 116q0 75 32.5 136.5t90 106t137 68.5t172.5 24q40 0 81 -3.5t76 -9t61.5 -12t39.5 -12.5 l-41 -189q-7 9 -25 24t-46 29.5t-64 25t-79 10.5q-32 0 -61.5 -6.5t-53.5 -21.5t-39 -39t-17 -58q-2 -35 9 -65t33.5 -58t55 -55.5t72.5 -57.5q41 -31 79 -64.5t67.5 -73.5t47.5 -89t18 -112q0 -87 -36.5 -151.5t-97.5 -108t-141.5 -65t-167.5 -21.5q-47 0 -96 6t-91.5 15.5 t-75 21t-46.5 22.5z" unicode="s" horiz-adv-x="873" glyph-name="s"/>
<glyph d="M123 159q0 5 0.5 13.5t2.5 29t6 55.5t12 94l85 653h-120l23 99l122 47q20 19 40 49.5t39.5 66.5t37 75t32.5 75h147l-33 -261h232l-22 -151h-229l-83 -614q-8 -53 -12 -91t-4 -65q0 -48 16.5 -67t61.5 -19q19 0 43 5.5t48 14.5t47 21.5t41 26.5l22 -79 q-20 -24 -55.5 -51.5t-83 -51t-105.5 -39t-122 -15.5q-37 0 -71 8.5t-60.5 29.5t-42 55.5t-15.5 85.5z" unicode="t" horiz-adv-x="729" glyph-name="t"/>
<glyph d="M138 244q0 34 3.5 76.5t9.5 88.5t13 94t13 94l52 365l-113 71l16 89l333 41l50 -24l-69 -550q-11 -90 -22.5 -168.5t-11.5 -136.5q0 -43 7.5 -72t22.5 -46t36.5 -24.5t49.5 -7.5q32 0 63.5 10.5t60 28.5t54 41t46.5 48l120 893h268l-127 -945q-10 -76 32 -76 q8 0 16.5 2.5t19.5 8.5t26 17t36 28l29 -65q-7 -12 -29 -36t-57 -48t-80.5 -42t-98.5 -18q-90 0 -127 44t-23 115l-4 6q-26 -31 -59.5 -60.5t-75 -53t-92.5 -38t-112 -14.5q-51 0 -100 13t-88 44t-63 81.5t-25 125.5z" unicode="u" glyph-name="u"/>
<glyph d="M253 355l-111 589q-5 31 -15.5 43t-25.5 13q-17 0 -29 -5t-26 -14l-29 70q6 8 26 26.5t50.5 37.5t70.5 33.5t86 14.5q83 0 119.5 -35.5t45.5 -101.5l81 -615l23 -202l79 118q42 66 75 128t57.5 124t40.5 127.5t24 138.5q1 25 -3.5 50t-10.5 49.5t-11.5 48t-5.5 45.5 q0 57 34 91t96 34q42 0 72 -16.5t49.5 -45t28.5 -66.5t9 -81q1 -74 -29.5 -164t-82.5 -186.5t-121 -195.5t-145 -190l-178 -227l-174 -12z" unicode="v" horiz-adv-x="1072" glyph-name="v"/>
<glyph d="M253 355l-109 589q-7 31 -17 43t-26 13q-17 0 -28.5 -5t-26.5 -14l-29 70q6 9 27 27.5t52 37.5t71 33t85 14q84 0 120 -35t45 -102l68 -631l19 -199l83 232l261 727h254l78 -779l15 -174l75 118q31 48 63.5 109.5t59.5 130t45.5 141.5t20.5 144q1 25 -4 50.5t-11 49.5 t-11 47.5t-5 45.5q0 57 34 91t97 34q42 0 71.5 -16t48 -44.5t27.5 -67.5t9 -85q0 -49 -17.5 -110.5t-47.5 -128.5t-68.5 -136t-79 -134t-80.5 -122.5t-73 -100.5l-160 -226l-206 -10l-51 373l-33 318l-11 149l-45 -149l-128 -301l-165 -378l-224 -14z" unicode="w" horiz-adv-x="1736" glyph-name="w"/>
<glyph d="M386 579l-175 355q-14 29 -30.5 50t-37.5 21q-25 0 -42 -7.5t-34 -21.5l-38 71q6 9 27 28t54.5 38.5t78.5 34.5t99 15q75 0 115 -27t57 -78l97 -302l255 399h264l-445 -577l171 -337q7 -14 16 -30.5t19.5 -30t21 -22.5t21.5 -9q7 0 16 1.5t21 7t27.5 15t35.5 26.5l41 -70 q-6 -11 -29 -35.5t-60.5 -49.5t-88.5 -44.5t-113 -19.5q-36 0 -62 7.5t-44.5 21.5t-30.5 33t-21 43l-110 316l-253 -401h-274z" unicode="x" horiz-adv-x="1020" glyph-name="x"/>
<glyph d="M-25 -293q10 -8 28 -16.5t41.5 -16t51.5 -12.5t58 -5q40 0 83 14.5t87 47.5t88 86.5t87 131.5h-154l-197 1007q-7 31 -16.5 43.5t-25.5 12.5q-12 0 -26.5 -4.5t-37.5 -23.5l-29 70q7 10 28.5 30t54 40t73.5 35.5t86 15.5q41 0 70 -9.5t48.5 -27t30 -43t15.5 -57.5 q6 -37 14.5 -97.5t19 -133t21 -151t20.5 -150.5t18.5 -132.5t14.5 -97.5l25 -230l104 213q33 75 64.5 147t56 143.5t39 142.5t14.5 145q0 37 -7 62.5t-15.5 48t-15.5 46.5t-7 58q0 57 34 90t97 33q40 0 70 -16t49.5 -43t29.5 -63t10 -77q0 -83 -17 -159t-44 -149.5t-62 -145 t-71 -143.5q-48 -99 -100.5 -195.5t-102.5 -181.5t-95 -154t-76 -114q-76 -121 -177 -177.5t-226 -56.5q-24 0 -53 3.5t-56 8.5t-49.5 12t-34.5 13l64 182v0z" unicode="y" horiz-adv-x="1089" glyph-name="y"/>
<glyph d="M622 829l120 100l-357 1q-36 0 -63.5 -13t-47.5 -34.5t-32 -50.5t-16 -61h-86q-2 23 -3 57t1 72t7 77t14 72.5t22 58t32 34.5q12 7 33 14.5t59 7.5q39 0 89 -2.5t104 -6t110 -7.5t107.5 -7.5t96 -6t76.5 -2.5t54.5 6t44.5 23l2 2l55 -61l-649 -804l-102 -87h370 q39 0 70.5 12.5t54.5 34.5t37 51.5t19 63.5h83q2 -23 2 -56.5t-2.5 -71.5t-8 -76.5t-15 -72.5t-23 -60.5t-31.5 -38.5q-13 -9 -39 -14.5t-64 -5.5t-89 2.5t-107 6t-114.5 8t-112.5 8t-99.5 6t-76.5 2.5q-10 0 -23.5 -1.5t-27 -4.5t-27 -8.5t-23.5 -14.5l-4 -4l-65 62z" unicode="z" horiz-adv-x="1017" glyph-name="z"/>
<glyph d="M248 -67q0 5 4 35.5t10.5 77t14.5 104.5t17 117q20 139 46 312q0 17 -14 34t-38 33q-32 22 -76 39.5t-89 28.5l18 124q49 12 101 28.5t91 36.5q27 14 44.5 30t20.5 33l81 534q12 74 35 123t58 77.5t81.5 40t105.5 11.5q33 0 77.5 -7.5t85.5 -16.5q48 -11 97 -23 q-4 -24 -8 -45q-3 -18 -6 -35t-3 -24h-276l-96 -631q-6 -41 -32 -70t-66 -54q-11 -7 -34.5 -18.5t-48.5 -22.5q-29 -13 -62 -29q45 -23 82.5 -46t59.5 -46q23 -23 34.5 -50.5t6.5 -58.5l-95 -630h275q-2 -6 -4 -23.5t-4 -36.5q-3 -22 -6 -48q-34 -10 -66 -18.5t-64.5 -15 t-68 -10t-76.5 -3.5q-47 0 -86 7t-67.5 23.5t-44 44t-15.5 68.5z" unicode="{" horiz-adv-x="1033" glyph-name="braceleft"/>
<glyph d="M349 1780h195v-1966h-195v1966z" unicode="|" horiz-adv-x="854" glyph-name="bar"/>
<glyph d="M804 1613q0 -5 -4 -35.5t-10.5 -77t-14.5 -104.5t-17 -117q-20 -139 -46 -312q0 -17 14 -34t38 -33q32 -22 76 -39.5t89 -28.5l-18 -124q-49 -12 -101 -28.5t-91 -36.5q-27 -14 -44.5 -30t-20.5 -33l-81 -534q-12 -74 -35 -123t-58 -77.5t-81.5 -40t-105.5 -11.5 q-33 0 -77.5 7.5t-85.5 16.5q-48 11 -97 23q4 24 8 45q3 18 6 35t3 24h276l96 631q6 41 32 70t66 54q11 7 34.5 18.5t48.5 22.5q29 13 62 29q-45 23 -82.5 46t-59.5 46q-23 23 -34.5 50.5t-6.5 58.5l95 630h-275q2 6 4 23.5t4 36.5q3 22 6 48q34 10 66 18.5t64.5 15t68 10 t76.5 3.5q47 0 86 -7t67.5 -23.5t44 -44t15.5 -68.5z" unicode="}" horiz-adv-x="1033" glyph-name="braceright"/>
<glyph d="M127 864q12 36 41 73.5t70.5 67.5t92.5 49.5t108 19.5q42 0 76.5 -12t64 -30t55.5 -38.5t51 -38.5t51 -30t56 -12q67 0 114 29t82 82l89 -98q-11 -41 -40.5 -80.5t-72 -71t-95 -51t-109.5 -19.5q-44 0 -79.5 12.5t-65 31t-55.5 40t-51 40t-51.5 31t-56.5 12.5 q-59 0 -110 -26.5t-86 -79.5z" unicode="~" horiz-adv-x="1137" glyph-name="asciitilde"/>
<glyph unicode=" " horiz-adv-x="485" glyph-name="nonbreakingspace"/>
<glyph d="M357 -434h-295l251 1268h175zM609 1220q-2 -40 -18 -72.5t-40.5 -56t-55 -36t-62.5 -12.5q-36 0 -62.5 12t-43.5 32t-24 46.5t-6 54.5q2 44 19 77t43.5 55t59 33.5t65.5 11.5q27 0 51 -10.5t41 -29.5t26 -46t7 -59z" unicode="¡" horiz-adv-x="703" glyph-name="exclamdown"/>
<glyph d="M403 -9q-131 31 -203.5 144.5t-74.5 305.5q-1 72 12 147.5t40 148t68 139.5t96 121.5t123.5 94t151.5 57.5l49 209h150l-47 -196q55 -2 115 -12.5t103 -28.5l-72 -266q-1 1 -8.5 2t-16.5 2t-16.5 1.5t-8.5 1.5q-19 22 -42 48t-47 48.5t-47 37t-43 14.5q-56 0 -107 -38.5 t-89.5 -109.5t-60.5 -173t-20 -229q1 -83 14 -142.5t36.5 -97.5t58 -55.5t79.5 -17.5q43 0 78 8.5t66 24.5t59 38.5t57 49.5l53 -93q-18 -26 -50 -56.5t-77 -58.5t-103 -49.5t-128 -27.5l-36 -198h-150l38 206v0z" unicode="¢" horiz-adv-x="1056" glyph-name="cent"/>
<glyph d="M36 -20q-20 0 -37.5 4.5t-30.5 15t-20 28t-5 42.5q2 26 23.5 53.5t56 49.5t79.5 36t95 14q24 25 46.5 85t37.5 146l49 279h-183l18 159h192l18 108q12 73 39.5 142t67.5 130t91.5 112t112.5 87.5t130 57t144 20.5q55 0 98 -4t77.5 -13.5t63 -25t53.5 -37.5l-113 -201 q-4 9 -21 30t-47 43.5t-72 39.5t-95 17q-34 0 -70.5 -13.5t-70 -51t-62 -105.5t-46.5 -176l-9.5 -57t-18.5 -103h298l-17 -159h-309q-8 -41 -12.5 -70t-5.5 -37q-16 -92 -42 -161t-55 -120.5t-56.5 -88.5t-45.5 -64q41 -9 86 -20t91.5 -21.5t94 -17.5t94.5 -7q96 0 158 13.5 t98 40.5t50 67.5t14 94.5q0 26 -8.5 50.5t-22 45t-29.5 37t-30 27.5l177 157q31 -22 61.5 -51t54.5 -66t39 -81t15 -96q0 -75 -26.5 -144.5t-87 -123t-158.5 -85.5t-240 -32q-81 0 -152.5 11.5t-137 28.5t-127.5 36.5t-123 35.5q-17 -18 -43 -38t-57.5 -36.5t-67 -27 t-69.5 -10.5z" unicode="£" horiz-adv-x="1383" glyph-name="sterling"/>
<glyph d="M417 444q-36 53 -55.5 115t-19.5 131q0 68 19 129t54 113l-202 203l129 130l204 -205q51 32 110.5 50t125.5 18q69 0 131 -20t115 -55l200 199l129 -130l-201 -201q32 -51 49 -109t17 -122q0 -66 -18.5 -126.5t-52.5 -112.5l204 -203l-130 -129l-204 203 q-52 -33 -112.5 -51.5t-126.5 -18.5q-64 0 -123 17t-110 48l-203 -203l-130 129zM538 690q0 -53 19 -99t52 -81t77.5 -55t95.5 -20t95.5 20t77.5 55t52 81t19 99q0 52 -19 98.5t-52 81.5t-77.5 55t-95.5 20t-95.5 -20t-77.5 -55t-52 -81.5t-19 -98.5z" unicode="¤" horiz-adv-x="1540" glyph-name="currency"/>
<glyph d="M333 98l252 30l30 248h-380l15 140h382l24 198h-383l17 142h299l-295 542l-116 23l13 107h602l-14 -107l-178 -22l178 -385l49 -128l81 131l258 386l-129 18l13 107h517l-13 -107l-133 -28l-417 -537h279l-16 -142h-367l-24 -198h367l-16 -140h-369l-30 -248l261 -30 l-10 -98h-757z" unicode="¥" horiz-adv-x="1483" glyph-name="yen"/>
<glyph d="M349 1780h195v-877h-195v877zM349 691h195v-877h-195v877z" unicode="¦" horiz-adv-x="854" glyph-name="brokenbar"/>
<glyph d="M112 234h151l29 -208q36 -44 96 -62.5t135 -18.5q40 0 85 10.5t84 33.5t66 62t30 96q3 45 -24.5 79.5t-74 63.5t-107 55.5t-123 55t-122.5 62.5t-106 79t-73 102.5t-23 134.5q2 47 15.5 90t35 81t49.5 71.5t58 62.5q-38 42 -58.5 93.5t-16.5 117.5q4 63 29.5 116t66 95 t93.5 73.5t111.5 52t119 31t117.5 10.5q68 0 130 -7t113 -18t89 -24t58 -26l-48 -317h-147l-40 208q-26 27 -74.5 42.5t-110.5 14.5q-36 0 -80.5 -6.5t-83.5 -25.5t-67 -54t-32 -92q-3 -53 24 -91.5t73.5 -69t106 -57t121.5 -54t121.5 -60t105 -75t71.5 -99.5t22 -133 q-3 -53 -15.5 -99.5t-33 -87.5t-46.5 -76t-55 -64q36 -42 56 -92.5t17 -115.5q-4 -61 -27.5 -113.5t-63 -94.5t-91 -74t-110 -54t-121 -33t-124.5 -11q-64 0 -131.5 8t-127 20t-105.5 26t-66 26zM344 868q-3 -47 19.5 -83.5t62 -67.5t92.5 -58t110.5 -53.5t116.5 -55 t111 -62.5q18 27 30 59t14 67q3 48 -19 86t-61 69.5t-91 59t-109 54t-115.5 54.5t-109.5 62q-20 -27 -34.5 -59.5t-16.5 -71.5z" unicode="§" horiz-adv-x="1194" glyph-name="section"/>
<glyph d="M605 1360q-27 0 -51 12t-42 32t-28 46t-10 54q0 36 12 67.5t33.5 55.5t51.5 38t66 14q32 0 57.5 -11.5t43.5 -31t27 -44.5t9 -52q0 -36 -11.5 -69t-33 -57.5t-53 -39t-71.5 -14.5zM167 1360q-27 0 -51 12t-42 32t-28 46t-10 54q0 36 12 67.5t33.5 55.5t51.5 38t66 14 q32 0 57.5 -11.5t43.5 -31t27.5 -44.5t8.5 -52q0 -36 -11.5 -69t-33 -57.5t-53 -39t-71.5 -14.5z" unicode="¨" horiz-adv-x="809" glyph-name="dieresis"/>
<glyph d="M167 806q0 106 27.5 204t77.5 182.5t120 154.5t155 119.5t182.5 76.5t203.5 27q105 0 203 -27t183.5 -76.5t155.5 -119.5t120 -154.5t77.5 -182.5t27.5 -204t-27.5 -204t-77.5 -183t-120 -155t-155.5 -119.5t-183.5 -76.5t-203 -27t-203 27t-183 76.5t-155 119.5 t-120 155t-77.5 183t-27.5 204zM297 806q0 -89 22.5 -172t63.5 -155t98.5 -131t128.5 -101.5t152.5 -65.5t170.5 -23t171 23t153 65.5t128.5 101.5t98.5 131t63.5 155t22.5 172t-22.5 171.5t-63.5 154.5t-98.5 131.5t-128.5 101.5t-153 65.5t-171 23.5t-170.5 -23.5 t-152.5 -65.5t-128.5 -101.5t-98.5 -131.5t-63.5 -154.5t-22.5 -171.5zM542 802q-1 90 28 171t84 141.5t134.5 96.5t180.5 36q34 0 69 -3t66.5 -8t57.5 -12t41 -15v-222h-91l-48 120q-22 20 -54.5 29.5t-70.5 9.5q-45 0 -84 -19.5t-68 -56.5t-46 -89.5t-17 -119.5 q-1 -105 20 -175.5t54.5 -114t75.5 -62t84 -18.5q72 0 129.5 18t90.5 37l35 -88q-21 -18 -53 -34.5t-70.5 -29t-81.5 -20.5t-88 -8q-90 0 -160 34.5t-118.5 94t-74 138.5t-25.5 169z" unicode="©" horiz-adv-x="1768" glyph-name="copyright"/>
<glyph d="M305 743q-58 0 -103 20.5t-76 59t-47.5 93.5t-16.5 124q0 63 18.5 127.5t53 124t82.5 111.5t107.5 90.5t129 61t145.5 22.5q45 0 91.5 -8.5t80.5 -19.5l127 37l-119 -679q-3 -25 0.5 -39.5t11.5 -14.5t20.5 3.5t35.5 16.5l29 -47q-4 -6 -25 -19.5t-50.5 -27.5t-64.5 -25 t-67 -11q-59 0 -89 35.5t-21 90.5q-18 -22 -41.5 -44.5t-54 -40.5t-69.5 -29.5t-88 -11.5zM413 872q38 0 77 22t68 49l87 501q-34 31 -72 31q-72 0 -123.5 -38.5t-84.5 -99t-48 -135t-15 -147.5q0 -91 25 -137t86 -46z" unicode="ª" horiz-adv-x="854" glyph-name="ordfeminine"/>
<glyph d="M238 690l715 402l49 -149l-482 -334l391 -328l-86 -135l-609 384zM912 690l715 402l49 -149l-482 -334l391 -328l-86 -135l-609 384z" unicode="«" horiz-adv-x="1873" glyph-name="guillemotleft"/>
<glyph d="M228 864h971l-62 -542h-199l45 388h-772z" unicode="¬" horiz-adv-x="1370" glyph-name="logicalnot"/>
<glyph d="M259 862h758l-18 -180h-758z" unicode="­" horiz-adv-x="1187" glyph-name="uni00AD"/>
<glyph d="M167 806q0 106 27.5 204t77.5 182.5t120 154.5t155 119.5t182.5 76.5t203.5 27q105 0 203 -27t183.5 -76.5t155.5 -119.5t120 -154.5t77.5 -182.5t27.5 -204t-27.5 -204t-77.5 -183t-120 -155t-155.5 -119.5t-183.5 -76.5t-203 -27t-203 27t-183 76.5t-155 119.5 t-120 155t-77.5 183t-27.5 204zM297 806q0 -89 22.5 -172t63.5 -155t98.5 -131t128.5 -101.5t152.5 -65.5t170.5 -23t171 23t153 65.5t128.5 101.5t98.5 131t63.5 155t22.5 172t-22.5 171.5t-63.5 154.5t-98.5 131.5t-128.5 101.5t-153 65.5t-171 23.5t-170.5 -23.5 t-152.5 -65.5t-128.5 -101.5t-98.5 -131.5t-63.5 -154.5t-22.5 -171.5zM566 449l83 20v665l-83 22v84h150q27 -1 46.5 -0.5t43.5 1t58 2t90 2.5q79 0 139.5 -16.5t102 -47t62.5 -73t23 -94.5q0 -40 -7 -79t-30.5 -73.5t-68 -63.5t-118.5 -48q49 -28 79.5 -68t53 -81.5 t42.5 -78t50 -57.5q14 -7 27.5 -9.5t28.5 -2.5v-78h-188q-20 0 -35 18t-29.5 47.5t-30.5 67t-38 77.5t-52 78.5t-71 69.5h-77v-264l97 -20v-74h-348v74zM817 843q26 -5 59.5 -6.5t71.5 -1.5q35 0 62.5 12.5t46.5 34t29 50t10 61.5q0 77 -46.5 111t-122.5 34h-27.5 t-24.5 -0.5t-25.5 -3t-32.5 -6.5v-285z" unicode="®" horiz-adv-x="1768" glyph-name="registered"/>
<glyph d="M43 1596h544l-20 -182h-543z" unicode="¯" horiz-adv-x="614" glyph-name="macron"/>
<glyph d="M522 943q-72 0 -133 26.5t-105 72t-68.5 106.5t-23.5 130q1 71 28 132t73.5 106t110.5 70.5t139 25.5q72 0 133 -26.5t106 -71.5t70 -106t24 -130q-1 -72 -28.5 -133.5t-74.5 -106t-111.5 -70t-139.5 -25.5zM530 1084q40 0 74 14.5t58.5 40.5t39 61.5t14.5 77.5 q1 40 -12.5 75t-38 61.5t-57.5 41.5t-71 15q-40 0 -74 -14.5t-58.5 -40.5t-38.5 -61.5t-14 -76.5q-1 -40 12.5 -75.5t37.5 -61.5t57 -41.5t71 -15.5z" unicode="°" horiz-adv-x="931" glyph-name="degree"/>
<glyph d="M572 525l26 164l-141 -7h-209l18 180h220l139 -11q1 9 3 32.5t4 50t4 50t2 32.5l27 230h200l-26 -230l-29 -164l115 10h238l-18 -180h-249l-112 7q-2 -42 -5 -82t-5 -82l-28 -241h-201zM197 180h858l-17 -167h-858z" unicode="±" horiz-adv-x="1348" glyph-name="plusminus"/>
<glyph d="M129 808q34 20 90 56t120 83t129 103t118 116.5t86 122.5t33 121q0 72 -39.5 111t-114.5 39q-41 0 -80 -9.5t-73.5 -25t-62.5 -34t-46 -36.5l-71 84q21 25 61.5 55t94.5 56t117 43t128 17q84 0 146 -17.5t102.5 -49.5t60.5 -76.5t20 -98.5q0 -55 -25.5 -113.5t-69.5 -116 t-103 -113t-125.5 -106.5t-137 -96t-137.5 -80l453 46l67 117l104 -23l-64 -280h-743z" unicode="²" horiz-adv-x="1037" glyph-name="two.superior"/>
<glyph d="M186 866q25 -9 57 -16.5t65.5 -13.5t67 -9t62.5 -3q140 0 209 50t74 137q2 30 -9.5 57.5t-33 48t-53 32.5t-68.5 12h-9t-9 -1l-118 -40l-23 120q24 7 59 19t73 31q28 14 54.5 32t47.5 39.5t34.5 46.5t15.5 54q1 25 -4 45t-20 34t-42 21.5t-69 7.5q-68 0 -127.5 -26.5 t-110.5 -64.5l-54 102q30 25 70.5 49t89.5 42t105.5 29t116.5 11q68 0 122 -14.5t91 -41t56 -63.5t16 -81q-2 -35 -13.5 -71t-40.5 -71t-79.5 -68t-129.5 -62q71 6 128.5 -9t97 -46t60 -75t18.5 -96q-3 -68 -39 -127t-101 -103.5t-157.5 -70t-210.5 -25.5q-62 0 -138 12.5 t-145 44.5z" unicode="³" horiz-adv-x="1037" glyph-name="three.superior"/>
<glyph d="M50 1312l317 431l170 -165q-9 -17 -34 -45.5t-60 -62t-76 -69.5t-83 -68t-80.5 -57t-68.5 -36z" unicode="´" horiz-adv-x="559" glyph-name="acute"/>
<glyph d="M306 -372h-230l108 730q9 71 20.5 140t22.5 139.5t21 143.5t17 151q1 36 -9 51t-24 15q-16 0 -33.5 -8t-38.5 -22l-30 67q7 8 27 28t53 41t78.5 37t104.5 16q34 0 62.5 -6.5t49 -21.5t31.5 -40t9 -61q-5 -80 -17.5 -169.5t-26.5 -177.5q-7 -44 -14.5 -86t-13.5 -83.5 t-9.5 -85t-3.5 -90.5q0 -56 10.5 -92.5t28 -58t40.5 -30t49 -8.5q37 0 68.5 13t58.5 33.5t49.5 44.5t41.5 46l116 864h268l-126 -938q-5 -39 3.5 -57.5t28.5 -18.5q17 0 39 12t42 26l30 -64q-8 -13 -30 -34.5t-55 -42t-74.5 -35.5t-88.5 -15q-30 0 -56 5.5t-44.5 20.5 t-27.5 42t-4 69q-20 -19 -45.5 -43t-60.5 -45t-80.5 -35.5t-104.5 -14.5q-24 0 -49 3.5t-47.5 11t-42 17.5t-31.5 24z" unicode="µ" horiz-adv-x="1364" glyph-name="mu"/>
<glyph d="M197 87l187 30l76 590q-77 1 -142.5 28.5t-113 76.5t-74.5 117t-28 150q-1 112 33.5 200.5t109 150t190.5 94.5t278 33q60 0 107.5 -2.5t93.5 -6t96 -6.5t115 -4h272l-11 -103l-156 -33q-5 -43 -13.5 -110t-19 -150t-22.5 -177.5t-24.5 -192t-24.5 -193.5t-23 -182.5 t-20 -158.5t-15 -122l146 -30l-9 -86h-395l173 1400h-200l-178 -1400h-416z" unicode="¶" horiz-adv-x="1364" glyph-name="paragraph"/>
<glyph d="M186 672q2 40 18 72.5t41 56t55.5 36t62.5 12.5q36 0 62.5 -12t43.5 -32t24 -46.5t6 -54.5q-2 -44 -19.5 -77t-43.5 -55t-58.5 -33.5t-65.5 -11.5q-28 0 -51.5 10.5t-40.5 29.5t-26.5 46t-7.5 59z" unicode="·" horiz-adv-x="703" glyph-name="periodcentered"/>
<glyph d="M326 34l70 -4q9 -13 17 -36.5t14 -53t9.5 -61.5t3.5 -61q0 -143 -73.5 -218t-217.5 -75q-20 0 -45.5 2t-49.5 6t-44 9t-28 11l26 152q13 -7 37 -11t47 -4q81 0 130.5 49.5t52.5 153.5q2 45 -3 81t-9 56z" unicode="¸" horiz-adv-x="479" glyph-name="cedilla"/>
<glyph d="M222 818l234 24l75 618q-25 -11 -57.5 -19.5t-67 -15.5t-69 -12t-64.5 -8l-14 118q37 8 93 26.5t115.5 44t116 55.5t94.5 61h3l109 -21l-103 -847l233 -24l-15 -115h-699z" unicode="¹" horiz-adv-x="1037" glyph-name="one.superior"/>
<glyph d="M415 733q-75 0 -138 25.5t-108.5 71t-70.5 110.5t-25 145q0 81 19.5 150t54 125t80.5 99t98.5 72t110 43.5t113.5 14.5q83 -1 147 -27.5t107.5 -73.5t66 -112t22.5 -142q0 -122 -41 -215.5t-107.5 -157.5t-152.5 -96.5t-176 -31.5zM426 844q69 -1 114 32.5t70.5 87 t35.5 120t10 132.5q0 60 -9 109.5t-25.5 85t-40.5 55t-55 19.5q-64 0 -106 -37.5t-67.5 -94t-36 -123.5t-10.5 -127t9.5 -107.5t25.5 -81t38 -52t47 -18.5z" unicode="º" horiz-adv-x="854" glyph-name="ordmasculine"/>
<glyph d="M876 548l-715 -402l-49 149l482 334l-391 328l86 135l609 -384zM1552 548l-715 -402l-49 149l482 334l-391 328l86 135l609 -384z" unicode="»" horiz-adv-x="1873" glyph-name="guillemotright"/>
<glyph d="M211 644l234 24l75 618q-25 -11 -57.5 -19.5t-67 -15.5t-69 -12t-64.5 -8l-14 118q37 8 93 26.5t115.5 44t116 55.5t94.5 61h3l109 -21l-103 -847l233 -24l-15 -115h-699zM1389 296l560 779h61l132 -97l-466 -583l-76 -85l351 22l32 235l193 19l-33 -242l164 11l-19 -173 h-166l-26 -196h-191l26 196h-496zM1452 1530h181l-681 -1530h-181z" unicode="¼" horiz-adv-x="2546" glyph-name="onequarter"/>
<glyph d="M211 644l234 24l75 618q-25 -11 -57.5 -19.5t-67 -15.5t-69 -12t-64.5 -8l-14 118q37 8 93 26.5t115.5 44t116 55.5t94.5 61h3l109 -21l-103 -847l233 -24l-15 -115h-699zM1472 1530h181l-681 -1530h-181zM1457 106q34 20 90 56t120 83t129 103t118 116.5t86 122.5 t33 121q0 72 -39.5 111t-114.5 39q-41 0 -80 -9.5t-73.5 -25t-62.5 -34t-46 -36.5l-71 84q21 25 61.5 55t94.5 56t117 43t128 17q84 0 146 -17.5t102.5 -49.5t60.5 -76.5t20 -98.5q0 -55 -25.5 -113.5t-69.5 -116t-103 -113t-125.5 -106.5t-137 -96t-137.5 -80l453 46 l67 117l104 -23l-64 -280h-743z" unicode="½" horiz-adv-x="2546" glyph-name="onehalf"/>
<glyph d="M187 692q25 -9 57 -16.5t65.5 -13.5t67 -9t62.5 -3q140 0 209 50t74 137q2 30 -9.5 57.5t-33 48t-53 32.5t-68.5 12h-9t-9 -1l-118 -40l-23 120q24 7 59 19t73 31q28 14 54.5 32t47.5 39.5t34.5 46.5t15.5 54q1 25 -4 45t-20 34t-42 21.5t-69 7.5q-68 0 -127.5 -26.5 t-110.5 -64.5l-54 102q30 25 70.5 49t89.5 42t105.5 29t116.5 11q68 0 122 -14.5t91 -41t56 -63.5t16 -81q-2 -35 -13.5 -71t-40.5 -71t-79.5 -68t-129.5 -62q71 6 128.5 -9t97 -46t60 -75t18.5 -96q-3 -68 -39 -127t-101 -103.5t-157.5 -70t-210.5 -25.5q-62 0 -138 12.5 t-145 44.5zM1389 296l560 779h61l132 -97l-466 -583l-76 -85l351 22l32 235l193 19l-33 -242l164 11l-19 -173h-166l-26 -196h-191l26 196h-496zM1477 1530h181l-681 -1530h-181z" unicode="¾" horiz-adv-x="2546" glyph-name="threequarters"/>
<glyph d="M760 941q12 -17 22 -44.5t17.5 -60t12 -67.5t4.5 -68q0 -51 -19.5 -93.5t-54.5 -79t-84 -69t-109 -64.5q-85 -42 -151 -84.5t-105 -97.5q-8 -22 -11 -49t-4 -52q-2 -74 22.5 -132t70 -98.5t110.5 -62t144 -21.5q23 0 50.5 2t55.5 7t55 12.5t48 17.5l-38 -176 q-10 -9 -35 -21t-59.5 -23t-77 -18.5t-86.5 -7.5q-95 0 -167 17.5t-125.5 47.5t-89 71.5t-57.5 88.5t-31 98.5t-9 102.5q0 83 19.5 145.5t52.5 112.5q32 48 73 85t85.5 68t89.5 57.5t84 53.5q29 19 53.5 39t43 42.5t30 49t12.5 57.5q3 51 0 95.5t-10 70.5l152 49zM780 1291 q-2 -40 -18 -72.5t-40.5 -56t-55 -36t-62.5 -12.5q-37 0 -63.5 12t-43 32t-23.5 46.5t-6 54.5q2 44 19 77t43 55t59 33.5t66 11.5q27 0 50.5 -10.5t40.5 -29.5t26.5 -46t7.5 -59z" unicode="¿" horiz-adv-x="1020" glyph-name="questiondown"/>
<glyph d="M674 1522h282l250 -1393l159 -32l-7 -97h-609l5 97l156 29l-44 299h-523l-133 -298l175 -30l-7 -97h-520l8 97l130 29zM845 563l-89 607l-10 159l-342 -766h441zM826 1589q-36 13 -86 41t-99.5 64t-91.5 77t-62 81l163 156l270 -342l-94 -77v0z" unicode="À" horiz-adv-x="1347" glyph-name="Agrave"/>
<glyph d="M674 1522h282l250 -1393l159 -32l-7 -97h-609l5 97l156 29l-44 299h-523l-133 -298l175 -30l-7 -97h-520l8 97l130 29zM845 563l-89 607l-10 159l-342 -766h441zM734 1666l276 342l160 -156q-13 -26 -37 -53.5t-54 -53.5t-64 -50.5t-68 -45t-65 -36t-55 -24.5z" unicode="Á" horiz-adv-x="1347" glyph-name="Aacute"/>
<glyph d="M674 1522h282l250 -1393l159 -32l-7 -97h-609l5 97l156 29l-44 299h-523l-133 -298l175 -30l-7 -97h-520l8 97l130 29zM845 563l-89 607l-10 159l-342 -766h441zM476 1668l340 340h177l211 -340l-99 -58l-219 216l-323 -215z" unicode="Â" horiz-adv-x="1347" glyph-name="Acircumflex"/>
<glyph d="M674 1522h282l250 -1393l159 -32l-7 -97h-609l5 97l156 29l-44 299h-523l-133 -298l175 -30l-7 -97h-520l8 97l130 29zM845 563l-89 607l-10 159l-342 -766h441zM478 1801q12 31 34 61.5t53 54.5t70.5 38.5t85.5 14.5q36 0 64.5 -11t52 -27t43 -35t39.5 -35t41 -27 t46 -11q28 0 51 9.5t41 23.5t32.5 31t25.5 31l74 -109q-12 -30 -34 -61.5t-52.5 -57t-69 -41.5t-83.5 -16q-41 0 -70.5 10.5t-53 26.5t-43 35t-39.5 35t-42 27t-51 12q-47 1 -83 -24.5t-64 -59.5z" unicode="Ã" horiz-adv-x="1347" glyph-name="Atilde"/>
<glyph d="M674 1522h282l250 -1393l159 -32l-7 -97h-609l5 97l156 29l-44 299h-523l-133 -298l175 -30l-7 -97h-520l8 97l130 29zM845 563l-89 607l-10 159l-342 -766h441zM1050 1690q-27 0 -50 10.5t-40 28.5t-26.5 42.5t-9.5 53.5q0 36 13 65.5t34.5 51t50 33.5t60.5 12t57 -10 t42 -27.5t25.5 -40.5t8.5 -50q0 -36 -11.5 -67t-33 -53.5t-52 -35.5t-68.5 -13zM613 1690q-27 0 -50 10.5t-40 28.5t-26.5 42t-9.5 52q0 36 12.5 66t34 51.5t50 34t60.5 12.5t57 -10t42.5 -27.5t26 -41t7.5 -50.5q0 -36 -12 -67t-33 -53.5t-51.5 -35t-67.5 -12.5z" unicode="Ä" horiz-adv-x="1347" glyph-name="Adieresis"/>
<glyph d="M670 1513q-79 25 -123 78t-44 134q0 77 36.5 131t92 87.5t122 49t125.5 15.5q66 0 120.5 -15t93.5 -43.5t60.5 -69.5t21.5 -93q0 -55 -17 -99t-47 -77.5t-69.5 -57t-84.5 -37.5l249 -1387l159 -32l-7 -97h-609l5 97l156 29l-44 299h-523l-133 -298l175 -30l-7 -97h-520 l8 97l130 29zM824 1609q33 0 65.5 7.5t58 25.5t41.5 48.5t16 76.5q0 28 -12 51t-32.5 39.5t-47 26t-55.5 9.5q-32 0 -65 -8.5t-59.5 -27t-43 -47t-16.5 -68.5q0 -29 12 -53.5t32.5 -42t48 -27.5t57.5 -10zM845 563l-89 607l-10 159l-342 -766h441z" unicode="Å" horiz-adv-x="1347" glyph-name="Aring"/>
<glyph d="M695 1387l-292 24l15 111h1454l-23 -334h-171l-40 199l-366 20l-73 -549l430 33l-25 -200l-420 25l-76 -589l485 30l108 248l164 -21l-67 -384h-1127l12 97l142 30l39 315h-474l-163 -315l189 -30l-7 -97h-596l11 97l156 30zM881 580l102 817l-98 2l-424 -819h420z" unicode="Æ" horiz-adv-x="1923" glyph-name="AE"/>
<glyph d="M359 -293q13 -7 37 -11t47 -4q81 0 130.5 49.5t52.5 153.5q1 26 -0.5 48.5t-3.5 41.5q-99 3 -178 29t-139.5 71t-104 105.5t-71 131.5t-41 150t-13.5 161q-2 210 59 378t171 285.5t261 180.5t330 63q76 0 132 -5t97.5 -12t71.5 -15.5t56 -14.5l36 -10l-64 -386h-193 l-32 287q-29 14 -64.5 23t-81.5 9q-87 0 -156 -34.5t-121.5 -92.5t-89.5 -135t-60.5 -162t-33.5 -172.5t-8 -166.5q3 -114 21 -210.5t55 -167t93.5 -110t136.5 -39.5q25 0 57 3t65 12.5t63.5 26.5t53.5 45q8 9 19 35t22 57t20 61t14 46h166l-42 -305q-23 -14 -56 -31.5 t-77.5 -34t-101.5 -30.5t-128 -21q11 -35 18 -81.5t7 -88.5q0 -143 -73.5 -218t-217.5 -75q-20 0 -45.5 2t-49.5 6t-44 9t-28 11l26 152v0z" unicode="Ç" horiz-adv-x="1266" glyph-name="Ccedilla"/>
<glyph d="M799 1589q-36 13 -86 41t-99.5 64t-91.5 77t-62 81l163 156l270 -342l-94 -77v0zM4 97l155 30l162 1264l-139 25l11 106h1034l-23 -344h-171l-40 209l-384 20l-73 -545l454 29l-26 -198l-444 23l-80 -589l502 30l118 258l165 -22l-79 -393h-1154z" unicode="È" horiz-adv-x="1272" glyph-name="Egrave"/>
<glyph d="M707 1666l276 342l160 -156q-13 -26 -37 -53.5t-54 -53.5t-64 -50.5t-68 -45t-65 -36t-55 -24.5zM4 97l155 30l162 1264l-139 25l11 106h1034l-23 -344h-171l-40 209l-384 20l-73 -545l454 29l-26 -198l-444 23l-80 -589l502 30l118 258l165 -22l-79 -393h-1154z" unicode="É" horiz-adv-x="1272" glyph-name="Eacute"/>
<glyph d="M4 97l155 30l162 1264l-139 25l11 106h1034l-23 -344h-171l-40 209l-384 20l-73 -545l454 29l-26 -198l-444 23l-80 -589l502 30l118 258l165 -22l-79 -393h-1154zM449 1668l340 340h177l211 -340l-99 -58l-219 216l-323 -215z" unicode="Ê" horiz-adv-x="1272" glyph-name="Ecircumflex"/>
<glyph d="M1023 1690q-27 0 -50 10.5t-40 28.5t-26.5 42.5t-9.5 53.5q0 36 13 65.5t34.5 51t50 33.5t60.5 12t57 -10t42 -27.5t25.5 -40.5t8.5 -50q0 -36 -11.5 -67t-33 -53.5t-52 -35.5t-68.5 -13zM586 1690q-27 0 -50 10.5t-40 28.5t-26.5 42t-9.5 52q0 36 12.5 66t34 51.5t50 34 t60.5 12.5t57 -10t42.5 -27.5t26 -41t7.5 -50.5q0 -36 -12 -67t-33 -53.5t-51.5 -35t-67.5 -12.5zM4 97l155 30l162 1264l-139 25l11 106h1034l-23 -344h-171l-40 209l-384 20l-73 -545l454 29l-26 -198l-444 23l-80 -589l502 30l118 258l165 -22l-79 -393h-1154z" unicode="Ë" horiz-adv-x="1272" glyph-name="Edieresis"/>
<glyph d="M14 97l149 30l164 1264l-141 25l12 106h588l-11 -106l-164 -25l-163 -1264l167 -29l-8 -98h-604zM521 1589q-36 13 -86 41t-99.5 64t-91.5 77t-62 81l163 156l270 -342l-94 -77v0z" unicode="Ì" horiz-adv-x="740" glyph-name="Igrave"/>
<glyph d="M14 97l149 30l164 1264l-141 25l12 106h588l-11 -106l-164 -25l-163 -1264l167 -29l-8 -98h-604zM429 1666l276 342l160 -156q-13 -26 -37 -53.5t-54 -53.5t-64 -50.5t-68 -45t-65 -36t-55 -24.5z" unicode="Í" horiz-adv-x="740" glyph-name="Iacute"/>
<glyph d="M14 97l149 30l164 1264l-141 25l12 106h588l-11 -106l-164 -25l-163 -1264l167 -29l-8 -98h-604zM171 1668l340 340h177l211 -340l-99 -58l-219 216l-323 -215z" unicode="Î" horiz-adv-x="740" glyph-name="Icircumflex"/>
<glyph d="M14 97l149 30l164 1264l-141 25l12 106h588l-11 -106l-164 -25l-163 -1264l167 -29l-8 -98h-604zM745 1690q-27 0 -50 10.5t-40 28.5t-26.5 42.5t-9.5 53.5q0 36 13 65.5t34.5 51t50 33.5t60.5 12t57 -10t42 -27.5t25.5 -40.5t8.5 -50q0 -36 -11.5 -67t-33 -53.5 t-52 -35.5t-68.5 -13zM308 1690q-27 0 -50 10.5t-40 28.5t-26.5 42t-9.5 52q0 36 12.5 66t34 51.5t50 34t60.5 12.5t57 -10t42.5 -27.5t26 -41t7.5 -50.5q0 -36 -12 -67t-33 -53.5t-51.5 -35t-67.5 -12.5z" unicode="Ï" horiz-adv-x="740" glyph-name="Idieresis"/>
<glyph d="M0 99l153 30l76 582h-143l22 152h141l70 530l-139 25l11 106h309q75 1 155 8.5t161 7.5q168 0 285.5 -45.5t191.5 -127.5t107.5 -195.5t34.5 -248.5q2 -203 -50.5 -375t-159 -297.5t-265.5 -196t-370 -68.5q-9 0 -21 0.5t-24.5 1.5t-25 2.5t-21.5 2.5q-18 1 -44.5 3 t-55.5 3l-58 2t-51 1h-300zM438 136q18 -6 42.5 -11t50 -8.5t50.5 -5.5t44 -2q94 3 168.5 38t131 93t97 134.5t66 163t37 178.5t10.5 181q-1 143 -22.5 242t-66 161t-112.5 90t-163 28q-51 0 -99 -7t-71 -15l-69 -533h337l-21 -152h-336z" unicode="Ð" horiz-adv-x="1471" glyph-name="Eth"/>
<glyph d="M557 1801q12 31 34 61.5t53 54.5t70.5 38.5t85.5 14.5q36 0 64.5 -11t52 -27t43 -35t39.5 -35t41 -27t46 -11q28 0 51 9.5t41 23.5t32.5 31t25.5 31l74 -109q-12 -30 -34 -61.5t-52.5 -57t-69 -41.5t-83.5 -16q-41 0 -70.5 10.5t-53 26.5t-43 35t-39.5 35t-42 27t-51 12 q-47 1 -83 -24.5t-64 -59.5zM12 97l144 29l178 1265l-159 25l16 106h461l414 -1038l75 -232l139 1140l-162 24l11 106h480l-11 -106l-133 -25l-208 -1391h-283l-427 1058l-71 240l-125 -1171l176 -29l-9 -98h-514z" unicode="Ñ" horiz-adv-x="1538" glyph-name="Ntilde"/>
<glyph d="M845 1589q-36 13 -86 41t-99.5 64t-91.5 77t-62 81l163 156l270 -342l-94 -77v0zM633 -20q-142 0 -244.5 51t-168.5 138.5t-98 206t-33 253.5q-1 123 20.5 238.5t64.5 217t107 185.5t147 144.5t185 94t222 33.5q96 0 173.5 -23.5t137.5 -66t104 -102t72 -130.5t42 -152 t15 -167q1 -122 -19.5 -237.5t-62.5 -218t-105 -188t-146 -147t-186.5 -96t-226.5 -34.5zM662 101q98 0 175 60t130.5 164.5t80.5 247t26 307.5q-1 124 -17 223.5t-49 169.5t-83.5 107.5t-119.5 37.5q-63 0 -119 -28t-102 -79t-82.5 -122t-61 -156.5t-37.5 -183t-12 -201.5 q1 -108 15 -206.5t45.5 -174.5t83 -121t127.5 -45z" unicode="Ò" horiz-adv-x="1426" glyph-name="Ograve"/>
<glyph d="M753 1666l276 342l160 -156q-13 -26 -37 -53.5t-54 -53.5t-64 -50.5t-68 -45t-65 -36t-55 -24.5zM633 -20q-142 0 -244.5 51t-168.5 138.5t-98 206t-33 253.5q-1 123 20.5 238.5t64.5 217t107 185.5t147 144.5t185 94t222 33.5q96 0 173.5 -23.5t137.5 -66t104 -102 t72 -130.5t42 -152t15 -167q1 -122 -19.5 -237.5t-62.5 -218t-105 -188t-146 -147t-186.5 -96t-226.5 -34.5zM662 101q98 0 175 60t130.5 164.5t80.5 247t26 307.5q-1 124 -17 223.5t-49 169.5t-83.5 107.5t-119.5 37.5q-63 0 -119 -28t-102 -79t-82.5 -122t-61 -156.5 t-37.5 -183t-12 -201.5q1 -108 15 -206.5t45.5 -174.5t83 -121t127.5 -45z" unicode="Ó" horiz-adv-x="1426" glyph-name="Oacute"/>
<glyph d="M633 -20q-142 0 -244.5 51t-168.5 138.5t-98 206t-33 253.5q-1 123 20.5 238.5t64.5 217t107 185.5t147 144.5t185 94t222 33.5q96 0 173.5 -23.5t137.5 -66t104 -102t72 -130.5t42 -152t15 -167q1 -122 -19.5 -237.5t-62.5 -218t-105 -188t-146 -147t-186.5 -96 t-226.5 -34.5zM662 101q98 0 175 60t130.5 164.5t80.5 247t26 307.5q-1 124 -17 223.5t-49 169.5t-83.5 107.5t-119.5 37.5q-63 0 -119 -28t-102 -79t-82.5 -122t-61 -156.5t-37.5 -183t-12 -201.5q1 -108 15 -206.5t45.5 -174.5t83 -121t127.5 -45zM495 1668l340 340h177 l211 -340l-99 -58l-219 216l-323 -215z" unicode="Ô" horiz-adv-x="1426" glyph-name="Ocircumflex"/>
<glyph d="M497 1801q12 31 34 61.5t53 54.5t70.5 38.5t85.5 14.5q36 0 64.5 -11t52 -27t43 -35t39.5 -35t41 -27t46 -11q28 0 51 9.5t41 23.5t32.5 31t25.5 31l74 -109q-12 -30 -34 -61.5t-52.5 -57t-69 -41.5t-83.5 -16q-41 0 -70.5 10.5t-53 26.5t-43 35t-39.5 35t-42 27t-51 12 q-47 1 -83 -24.5t-64 -59.5zM633 -20q-142 0 -244.5 51t-168.5 138.5t-98 206t-33 253.5q-1 123 20.5 238.5t64.5 217t107 185.5t147 144.5t185 94t222 33.5q96 0 173.5 -23.5t137.5 -66t104 -102t72 -130.5t42 -152t15 -167q1 -122 -19.5 -237.5t-62.5 -218t-105 -188 t-146 -147t-186.5 -96t-226.5 -34.5zM662 101q98 0 175 60t130.5 164.5t80.5 247t26 307.5q-1 124 -17 223.5t-49 169.5t-83.5 107.5t-119.5 37.5q-63 0 -119 -28t-102 -79t-82.5 -122t-61 -156.5t-37.5 -183t-12 -201.5q1 -108 15 -206.5t45.5 -174.5t83 -121t127.5 -45z " unicode="Õ" horiz-adv-x="1426" glyph-name="Otilde"/>
<glyph d="M1069 1690q-27 0 -50 10.5t-40 28.5t-26.5 42.5t-9.5 53.5q0 36 13 65.5t34.5 51t50 33.5t60.5 12t57 -10t42 -27.5t25.5 -40.5t8.5 -50q0 -36 -11.5 -67t-33 -53.5t-52 -35.5t-68.5 -13zM632 1690q-27 0 -50 10.5t-40 28.5t-26.5 42t-9.5 52q0 36 12.5 66t34 51.5t50 34 t60.5 12.5t57 -10t42.5 -27.5t26 -41t7.5 -50.5q0 -36 -12 -67t-33 -53.5t-51.5 -35t-67.5 -12.5zM633 -20q-142 0 -244.5 51t-168.5 138.5t-98 206t-33 253.5q-1 123 20.5 238.5t64.5 217t107 185.5t147 144.5t185 94t222 33.5q96 0 173.5 -23.5t137.5 -66t104 -102 t72 -130.5t42 -152t15 -167q1 -122 -19.5 -237.5t-62.5 -218t-105 -188t-146 -147t-186.5 -96t-226.5 -34.5zM662 101q98 0 175 60t130.5 164.5t80.5 247t26 307.5q-1 124 -17 223.5t-49 169.5t-83.5 107.5t-119.5 37.5q-63 0 -119 -28t-102 -79t-82.5 -122t-61 -156.5 t-37.5 -183t-12 -201.5q1 -108 15 -206.5t45.5 -174.5t83 -121t127.5 -45z" unicode="Ö" horiz-adv-x="1426" glyph-name="Odieresis"/>
<glyph d="M215 439l383 327l-301 327l149 139l281 -350q17 16 46 43.5t64.5 61t74 70t74 70t64.5 61t46 43.5l117 -140l-383 -327l301 -327l-149 -139l-281 350q-17 -16 -46 -43.5t-64.5 -61t-74 -70t-74 -70t-64.5 -61.5t-46 -43z" unicode="×" horiz-adv-x="1370" glyph-name="multiply"/>
<glyph d="M266 119q-45 44 -78 100.5t-55 121.5t-33 138.5t-11 151.5q-1 123 20.5 238.5t64.5 217t107 185.5t147 144.5t185 94t222 33.5q77 0 141 -15t118 -44l134 208l90 -51l-139 -214q51 -44 88.5 -102t62 -125.5t36.5 -143t13 -154.5q1 -122 -19.5 -237.5t-62.5 -218 t-105 -188t-146 -147t-186.5 -96t-226.5 -34.5q-86 0 -157 18.5t-128 53.5l-136 -210l-91 52zM987 1313q-32 52 -77 79.5t-105 27.5q-63 0 -119 -28t-102 -79t-82.5 -122t-61 -156.5t-37.5 -183t-12 -201.5q1 -86 9.5 -166t28.5 -149zM469 232q32 -60 79.5 -94.5 t113.5 -34.5q98 0 175 60t130.5 164.5t80.5 247t26 307.5q-1 101 -11.5 185.5t-32.5 150.5z" unicode="Ø" horiz-adv-x="1429" glyph-name="Oslash"/>
<glyph d="M890 1589q-36 13 -86 41t-99.5 64t-91.5 77t-62 81l163 156l270 -342l-94 -77v0zM152 428q-1 39 0.5 79.5t6.5 85.5l105 799l-140 24l13 106h600l-11 -105l-177 -26l-102 -774q-7 -58 -11 -108t-4 -89q1 -75 19 -135t52.5 -101.5t84 -63.5t114.5 -22q89 0 155.5 34.5 t113.5 101.5t77 165.5t47 226.5l103 765l-142 26l11 105h451l-13 -105l-127 -25l-100 -765q-23 -177 -73 -300t-128 -200t-184 -112t-239 -35q-130 0 -224.5 33.5t-156 93t-91 141.5t-30.5 180z" unicode="Ù" horiz-adv-x="1427" glyph-name="Ugrave"/>
<glyph d="M798 1666l276 342l160 -156q-13 -26 -37 -53.5t-54 -53.5t-64 -50.5t-68 -45t-65 -36t-55 -24.5zM152 428q-1 39 0.5 79.5t6.5 85.5l105 799l-140 24l13 106h600l-11 -105l-177 -26l-102 -774q-7 -58 -11 -108t-4 -89q1 -75 19 -135t52.5 -101.5t84 -63.5t114.5 -22 q89 0 155.5 34.5t113.5 101.5t77 165.5t47 226.5l103 765l-142 26l11 105h451l-13 -105l-127 -25l-100 -765q-23 -177 -73 -300t-128 -200t-184 -112t-239 -35q-130 0 -224.5 33.5t-156 93t-91 141.5t-30.5 180z" unicode="Ú" horiz-adv-x="1427" glyph-name="Uacute"/>
<glyph d="M152 428q-1 39 0.5 79.5t6.5 85.5l105 799l-140 24l13 106h600l-11 -105l-177 -26l-102 -774q-7 -58 -11 -108t-4 -89q1 -75 19 -135t52.5 -101.5t84 -63.5t114.5 -22q89 0 155.5 34.5t113.5 101.5t77 165.5t47 226.5l103 765l-142 26l11 105h451l-13 -105l-127 -25 l-100 -765q-23 -177 -73 -300t-128 -200t-184 -112t-239 -35q-130 0 -224.5 33.5t-156 93t-91 141.5t-30.5 180zM540 1668l340 340h177l211 -340l-99 -58l-219 216l-323 -215z" unicode="Û" horiz-adv-x="1427" glyph-name="Ucircumflex"/>
<glyph d="M1114 1690q-27 0 -50 10.5t-40 28.5t-26.5 42.5t-9.5 53.5q0 36 13 65.5t34.5 51t50 33.5t60.5 12t57 -10t42 -27.5t25.5 -40.5t8.5 -50q0 -36 -11.5 -67t-33 -53.5t-52 -35.5t-68.5 -13zM677 1690q-27 0 -50 10.5t-40 28.5t-26.5 42t-9.5 52q0 36 12.5 66t34 51.5t50 34 t60.5 12.5t57 -10t42.5 -27.5t26 -41t7.5 -50.5q0 -36 -12 -67t-33 -53.5t-51.5 -35t-67.5 -12.5zM152 428q-1 39 0.5 79.5t6.5 85.5l105 799l-140 24l13 106h600l-11 -105l-177 -26l-102 -774q-7 -58 -11 -108t-4 -89q1 -75 19 -135t52.5 -101.5t84 -63.5t114.5 -22 q89 0 155.5 34.5t113.5 101.5t77 165.5t47 226.5l103 765l-142 26l11 105h451l-13 -105l-127 -25l-100 -765q-23 -177 -73 -300t-128 -200t-184 -112t-239 -35q-130 0 -224.5 33.5t-156 93t-91 141.5t-30.5 180z" unicode="Ü" horiz-adv-x="1427" glyph-name="Udieresis"/>
<glyph d="M221 98l223 29l60 471l-346 793l-119 25l11 106h610l-15 -106l-166 -25l191 -514l41 -138l67 123l318 529l-153 25l10 106h480l-13 -106l-116 -24l-519 -794l-61 -471l222 -29l-9 -98h-726zM709 1666l276 342l160 -156q-13 -26 -37 -53.5t-54 -53.5t-64 -50.5t-68 -45 t-65 -36t-55 -24.5z" unicode="Ý" horiz-adv-x="1245" glyph-name="Yacute"/>
<glyph d="M19 97l142 30l164 1268l-140 24l13 107h591l-12 -107l-168 -24l-26 -204q52 5 105.5 8t106.5 3q137 0 228.5 -27t147 -74t79 -111.5t24.5 -139.5q2 -99 -33.5 -190.5t-114.5 -162t-205.5 -113t-307.5 -42.5q-56 0 -87.5 1t-52.5 3l-28 -219l174 -29l-8 -98h-602zM490 472 q35 -3 66 -3.5t66 -0.5q83 0 150.5 23t114.5 67t71.5 109t21.5 149q-2 66 -17.5 115t-47.5 81.5t-82.5 48.5t-121.5 16q-33 0 -72 -4t-73 -12z" unicode="Þ" horiz-adv-x="1276" glyph-name="Thorn"/>
<glyph d="M174 927q20 150 58 257t88 180t109 117t121.5 67t126.5 30t123 7q74 0 140.5 -18.5t117 -54.5t80 -90t29.5 -125q0 -68 -21 -117t-53 -86.5t-69 -67t-69 -58t-53 -58.5t-21 -69q0 -35 27.5 -78t83.5 -115q23 -31 48.5 -64t47 -70.5t35.5 -81.5t14 -97q0 -79 -32.5 -143.5 t-89.5 -110.5t-135 -71.5t-168 -25.5q-97 0 -160.5 14.5t-98.5 32.5l26 187q11 -15 33.5 -33t50.5 -33.5t59.5 -25.5t61.5 -10q38 0 69.5 6t54.5 24t36 52.5t13 92.5q0 30 -8 61t-20 61t-27.5 58t-30.5 52q-20 26 -41.5 59.5t-39 69.5t-28.5 72t-11 69q0 36 8 63.5t22 51 t33.5 45.5t42.5 46q61 62 98.5 132t37.5 156q0 37 -9 70.5t-27 59.5t-46 41.5t-66 15.5q-56 0 -102.5 -25t-84 -87.5t-66 -169.5t-47.5 -270l-119 -922h-272z" unicode="ß" horiz-adv-x="1216" glyph-name="germandbls"/>
<glyph d="M404 -20q-89 0 -152.5 33t-104 90.5t-59 135.5t-18.5 167q0 88 19.5 178.5t57.5 174.5t94.5 157.5t131 128.5t166 86.5t200.5 31.5q56 0 116 -12.5t105 -26.5l137 39l-130 -954q-5 -41 6.5 -58.5t28.5 -17.5q14 0 35 9t56 37l30 -64q-8 -12 -29.5 -34.5t-54.5 -45 t-76.5 -39t-94.5 -16.5q-70 0 -112 33t-39 102l-8 13q-26 -29 -59 -55.5t-71 -47t-82 -33t-93 -12.5zM499 140q29 0 58 10.5t56 28.5t51 41t45 47l100 750q-22 8 -46.5 11t-50.5 3q-65 0 -117 -27t-92 -73.5t-68 -107.5t-46 -128.5t-26.5 -137.5t-8.5 -134 q0 -134 36.5 -208.5t108.5 -74.5zM709 1245q-21 9 -53 29t-69 48t-76 61t-74.5 67.5t-64.5 67.5t-45 61l181 164l288 -432l-87 -66v0z" unicode="à" horiz-adv-x="1197" glyph-name="agrave"/>
<glyph d="M404 -20q-89 0 -152.5 33t-104 90.5t-59 135.5t-18.5 167q0 88 19.5 178.5t57.5 174.5t94.5 157.5t131 128.5t166 86.5t200.5 31.5q56 0 116 -12.5t105 -26.5l137 39l-130 -954q-5 -41 6.5 -58.5t28.5 -17.5q14 0 35 9t56 37l30 -64q-8 -12 -29.5 -34.5t-54.5 -45 t-76.5 -39t-94.5 -16.5q-70 0 -112 33t-39 102l-8 13q-26 -29 -59 -55.5t-71 -47t-82 -33t-93 -12.5zM499 140q29 0 58 10.5t56 28.5t51 41t45 47l100 750q-22 8 -46.5 11t-50.5 3q-65 0 -117 -27t-92 -73.5t-68 -107.5t-46 -128.5t-26.5 -137.5t-8.5 -134 q0 -134 36.5 -208.5t108.5 -74.5zM633 1312l317 431l170 -165q-9 -17 -34 -45.5t-60 -62t-76 -69.5t-83 -68t-80.5 -57t-68.5 -36z" unicode="á" horiz-adv-x="1197" glyph-name="aacute"/>
<glyph d="M404 -20q-89 0 -152.5 33t-104 90.5t-59 135.5t-18.5 167q0 88 19.5 178.5t57.5 174.5t94.5 157.5t131 128.5t166 86.5t200.5 31.5q56 0 116 -12.5t105 -26.5l137 39l-130 -954q-5 -41 6.5 -58.5t28.5 -17.5q14 0 35 9t56 37l30 -64q-8 -12 -29.5 -34.5t-54.5 -45 t-76.5 -39t-94.5 -16.5q-70 0 -112 33t-39 102l-8 13q-26 -29 -59 -55.5t-71 -47t-82 -33t-93 -12.5zM499 140q29 0 58 10.5t56 28.5t51 41t45 47l100 750q-22 8 -46.5 11t-50.5 3q-65 0 -117 -27t-92 -73.5t-68 -107.5t-46 -128.5t-26.5 -137.5t-8.5 -134 q0 -134 36.5 -208.5t108.5 -74.5zM378 1292l349 369h178l202 -369l-102 -58l-215 229l-327 -228z" unicode="â" horiz-adv-x="1197" glyph-name="acircumflex"/>
<glyph d="M404 -20q-89 0 -152.5 33t-104 90.5t-59 135.5t-18.5 167q0 88 19.5 178.5t57.5 174.5t94.5 157.5t131 128.5t166 86.5t200.5 31.5q56 0 116 -12.5t105 -26.5l137 39l-130 -954q-5 -41 6.5 -58.5t28.5 -17.5q14 0 35 9t56 37l30 -64q-8 -12 -29.5 -34.5t-54.5 -45 t-76.5 -39t-94.5 -16.5q-70 0 -112 33t-39 102l-8 13q-26 -29 -59 -55.5t-71 -47t-82 -33t-93 -12.5zM499 140q29 0 58 10.5t56 28.5t51 41t45 47l100 750q-22 8 -46.5 11t-50.5 3q-65 0 -117 -27t-92 -73.5t-68 -107.5t-46 -128.5t-26.5 -137.5t-8.5 -134 q0 -134 36.5 -208.5t108.5 -74.5zM382 1498q16 31 43 61.5t61 54.5t72.5 38.5t76.5 14.5q36 0 63.5 -11t49.5 -27t40 -35t36 -35t37 -27t43 -11q28 0 50 9.5t40 25t33.5 34t29.5 36.5l75 -114q-13 -35 -38.5 -67.5t-59.5 -58t-73.5 -40.5t-79.5 -15q-43 0 -73 10.5t-52 26.5 t-39.5 35t-35.5 35t-38.5 27t-49.5 12q-21 0 -41 -7.5t-39 -20t-36 -28t-31 -30.5z" unicode="ã" horiz-adv-x="1197" glyph-name="atilde"/>
<glyph d="M404 -20q-89 0 -152.5 33t-104 90.5t-59 135.5t-18.5 167q0 88 19.5 178.5t57.5 174.5t94.5 157.5t131 128.5t166 86.5t200.5 31.5q56 0 116 -12.5t105 -26.5l137 39l-130 -954q-5 -41 6.5 -58.5t28.5 -17.5q14 0 35 9t56 37l30 -64q-8 -12 -29.5 -34.5t-54.5 -45 t-76.5 -39t-94.5 -16.5q-70 0 -112 33t-39 102l-8 13q-26 -29 -59 -55.5t-71 -47t-82 -33t-93 -12.5zM499 140q29 0 58 10.5t56 28.5t51 41t45 47l100 750q-22 8 -46.5 11t-50.5 3q-65 0 -117 -27t-92 -73.5t-68 -107.5t-46 -128.5t-26.5 -137.5t-8.5 -134 q0 -134 36.5 -208.5t108.5 -74.5zM967 1360q-27 0 -51 12t-42 32t-28 46t-10 54q0 36 12 67.5t33.5 55.5t51.5 38t66 14q32 0 57.5 -11.5t43.5 -31t27 -44.5t9 -52q0 -36 -11.5 -69t-33 -57.5t-53 -39t-71.5 -14.5zM529 1360q-27 0 -51 12t-42 32t-28 46t-10 54 q0 36 12 67.5t33.5 55.5t51.5 38t66 14q32 0 57.5 -11.5t43.5 -31t27.5 -44.5t8.5 -52q0 -36 -11.5 -69t-33 -57.5t-53 -39t-71.5 -14.5z" unicode="ä" horiz-adv-x="1197" glyph-name="adieresis"/>
<glyph d="M404 -20q-89 0 -152.5 33t-104 90.5t-59 135.5t-18.5 167q0 88 19.5 178.5t57.5 174.5t94.5 157.5t131 128.5t166 86.5t200.5 31.5q56 0 116 -12.5t105 -26.5l137 39l-130 -954q-5 -41 6.5 -58.5t28.5 -17.5q14 0 35 9t56 37l30 -64q-8 -12 -29.5 -34.5t-54.5 -45 t-76.5 -39t-94.5 -16.5q-70 0 -112 33t-39 102l-8 13q-26 -29 -59 -55.5t-71 -47t-82 -33t-93 -12.5zM499 140q29 0 58 10.5t56 28.5t51 41t45 47l100 750q-22 8 -46.5 11t-50.5 3q-65 0 -117 -27t-92 -73.5t-68 -107.5t-46 -128.5t-26.5 -137.5t-8.5 -134 q0 -134 36.5 -208.5t108.5 -74.5zM753 1253q-141 0 -218.5 62.5t-77.5 176.5q0 84 35.5 142t90.5 94t120 52t124 16q65 0 118.5 -15.5t91.5 -45.5t59 -73.5t21 -98.5q0 -80 -32 -138t-84 -96.5t-117 -57t-131 -18.5zM772 1371q33 0 64.5 7.5t56.5 26.5t40 51.5t15 82.5 q0 31 -11 56.5t-30.5 44t-45.5 29t-55 10.5q-33 0 -64.5 -8.5t-57 -28t-41 -51.5t-15.5 -78q0 -30 12 -56t31.5 -45t45.5 -30t55 -11z" unicode="å" horiz-adv-x="1197" glyph-name="aring"/>
<glyph d="M382 -20q-87 0 -146.5 32.5t-96.5 89t-53 133.5t-16 166q0 88 21 179t62.5 175.5t102 159t139.5 129.5t175 87t209 32q48 0 102 -9.5t99 -22.5l101 32l-12 -90q65 42 137.5 65t151.5 25q80 1 137.5 -18.5t95 -53.5t55.5 -80.5t19 -99.5q1 -80 -29.5 -144.5t-82 -114.5 t-118.5 -86t-137.5 -60t-139.5 -36t-125 -13q-2 -71 7 -129.5t30.5 -100t58 -64t90.5 -22.5q51 0 96.5 11.5t86 32t76 48.5t66.5 60l56 -94q-21 -32 -61.5 -70t-98.5 -71t-131.5 -55.5t-160.5 -22.5q-84 0 -149 20.5t-112 58t-77.5 89.5t-46.5 114q-28 -47 -67.5 -97 t-88 -91t-105.5 -67.5t-120 -26.5zM1035 573q34 2 74 12t80.5 28.5t78 45.5t66 61.5t45.5 77t16 92.5q-2 73 -27 108.5t-72 35.5q-43 0 -78.5 -22t-63 -58t-48.5 -83.5t-35.5 -99t-23.5 -103t-12 -95.5zM465 154q41 0 81.5 25t77 62t67.5 80.5t54 80.5v4l-22 -23l100 642 q-30 6 -63 6q-70 0 -127.5 -27t-102.5 -73.5t-78 -107.5t-55 -128.5t-32.5 -137.5t-10.5 -134q0 -57 6 -106.5t19.5 -85.5t34.5 -56.5t51 -20.5z" unicode="æ" horiz-adv-x="1728" glyph-name="ae"/>
<glyph d="M147 -295q13 -7 37 -11t47 -4q81 0 130.5 49.5t52.5 153.5q1 25 -0.5 47t-3.5 41q-80 6 -143 38.5t-107 90.5t-68 141t-25 190q-1 81 16 166t51 165.5t85.5 151.5t121 124t156 84t191.5 31q29 0 61 -3t64 -8t61.5 -13t53.5 -18l-72 -266q-1 1 -8.5 2t-16.5 2t-16.5 1.5 t-8.5 1.5q-19 22 -42 48t-47 48.5t-47 37t-43 14.5q-56 0 -107 -38.5t-89.5 -109.5t-60.5 -173t-20 -229q1 -83 14 -142.5t36.5 -97.5t58 -55.5t79.5 -17.5q43 0 78 8.5t66 24.5t59 38.5t57 49.5l53 -93q-16 -23 -43 -50t-64.5 -53t-85 -47.5t-105.5 -33.5q12 -35 19 -82 t7 -91q0 -143 -73.5 -218t-217.5 -75q-20 0 -45.5 2t-49.5 6t-44 9t-28 11l26 152v0z" unicode="ç" horiz-adv-x="925" glyph-name="ccedilla"/>
<glyph d="M72 430q1 152 49 285.5t132 233.5t197 157.5t245 57.5q79 0 137 -19.5t96 -53t56.5 -79.5t19.5 -99q1 -80 -30 -144.5t-83 -115t-120 -87t-139 -60t-141 -36t-126 -13.5q-2 -65 8.5 -123t34.5 -102t63 -70t93 -26q50 0 94.5 12.5t84 34t74 50t64.5 60.5l56 -94 q-21 -32 -60.5 -70.5t-96 -73t-129 -57.5t-158.5 -23q-114 0 -194.5 39t-131 103t-73.5 145.5t-22 167.5zM367 573q34 2 75 12t82 29t79.5 45.5t67.5 61.5t46.5 77t16.5 92q-2 74 -28 109t-73 35q-44 0 -80 -22t-64 -58t-49.5 -83.5t-36 -99t-23.5 -103t-13 -95.5zM642 1245 q-21 9 -53 29t-69 48t-76 61t-74.5 67.5t-64.5 67.5t-45 61l181 164l288 -432l-87 -66v0z" unicode="è" horiz-adv-x="1067" glyph-name="egrave"/>
<glyph d="M566 1312l317 431l170 -165q-9 -17 -34 -45.5t-60 -62t-76 -69.5t-83 -68t-80.5 -57t-68.5 -36zM72 430q1 152 49 285.5t132 233.5t197 157.5t245 57.5q79 0 137 -19.5t96 -53t56.5 -79.5t19.5 -99q1 -80 -30 -144.5t-83 -115t-120 -87t-139 -60t-141 -36t-126 -13.5 q-2 -65 8.5 -123t34.5 -102t63 -70t93 -26q50 0 94.5 12.5t84 34t74 50t64.5 60.5l56 -94q-21 -32 -60.5 -70.5t-96 -73t-129 -57.5t-158.5 -23q-114 0 -194.5 39t-131 103t-73.5 145.5t-22 167.5zM367 573q34 2 75 12t82 29t79.5 45.5t67.5 61.5t46.5 77t16.5 92 q-2 74 -28 109t-73 35q-44 0 -80 -22t-64 -58t-49.5 -83.5t-36 -99t-23.5 -103t-13 -95.5z" unicode="é" horiz-adv-x="1067" glyph-name="eacute"/>
<glyph d="M311 1292l349 369h178l202 -369l-102 -58l-215 229l-327 -228zM72 430q1 152 49 285.5t132 233.5t197 157.5t245 57.5q79 0 137 -19.5t96 -53t56.5 -79.5t19.5 -99q1 -80 -30 -144.5t-83 -115t-120 -87t-139 -60t-141 -36t-126 -13.5q-2 -65 8.5 -123t34.5 -102t63 -70 t93 -26q50 0 94.5 12.5t84 34t74 50t64.5 60.5l56 -94q-21 -32 -60.5 -70.5t-96 -73t-129 -57.5t-158.5 -23q-114 0 -194.5 39t-131 103t-73.5 145.5t-22 167.5zM367 573q34 2 75 12t82 29t79.5 45.5t67.5 61.5t46.5 77t16.5 92q-2 74 -28 109t-73 35q-44 0 -80 -22t-64 -58 t-49.5 -83.5t-36 -99t-23.5 -103t-13 -95.5z" unicode="ê" horiz-adv-x="1067" glyph-name="ecircumflex"/>
<glyph d="M900 1360q-27 0 -51 12t-42 32t-28 46t-10 54q0 36 12 67.5t33.5 55.5t51.5 38t66 14q32 0 57.5 -11.5t43.5 -31t27 -44.5t9 -52q0 -36 -11.5 -69t-33 -57.5t-53 -39t-71.5 -14.5zM462 1360q-27 0 -51 12t-42 32t-28 46t-10 54q0 36 12 67.5t33.5 55.5t51.5 38t66 14 q32 0 57.5 -11.5t43.5 -31t27.5 -44.5t8.5 -52q0 -36 -11.5 -69t-33 -57.5t-53 -39t-71.5 -14.5zM72 430q1 152 49 285.5t132 233.5t197 157.5t245 57.5q79 0 137 -19.5t96 -53t56.5 -79.5t19.5 -99q1 -80 -30 -144.5t-83 -115t-120 -87t-139 -60t-141 -36t-126 -13.5 q-2 -65 8.5 -123t34.5 -102t63 -70t93 -26q50 0 94.5 12.5t84 34t74 50t64.5 60.5l56 -94q-21 -32 -60.5 -70.5t-96 -73t-129 -57.5t-158.5 -23q-114 0 -194.5 39t-131 103t-73.5 145.5t-22 167.5zM367 573q34 2 75 12t82 29t79.5 45.5t67.5 61.5t46.5 77t16.5 92 q-2 74 -28 109t-73 35q-44 0 -80 -22t-64 -58t-49.5 -83.5t-36 -99t-23.5 -103t-13 -95.5z" unicode="ë" horiz-adv-x="1067" glyph-name="edieresis"/>
<glyph d="M133 122q7 60 19 145.5t27.5 193t33.5 235.5t38 272l-129 58l16 85l357 52l53 -24l-133 -930q-11 -76 29 -76q17 0 39 12t60 44l29 -65q-8 -11 -30.5 -35t-57.5 -48t-81.5 -42.5t-103.5 -18.5q-87 0 -130.5 36.5t-35.5 105.5zM391 1245q-21 9 -53 29t-69 48t-76 61 t-74.5 67.5t-64.5 67.5t-45 61l181 164l288 -432l-87 -66v0z" unicode="ì" horiz-adv-x="658" glyph-name="igrave"/>
<glyph d="M313 1312l317 431l170 -165q-9 -17 -34 -45.5t-60 -62t-76 -69.5t-83 -68t-80.5 -57t-68.5 -36zM133 122q7 60 19 145.5t27.5 193t33.5 235.5t38 272l-129 58l16 85l357 52l53 -24l-133 -930q-11 -76 29 -76q17 0 39 12t60 44l29 -65q-8 -11 -30.5 -35t-57.5 -48 t-81.5 -42.5t-103.5 -18.5q-87 0 -130.5 36.5t-35.5 105.5z" unicode="í" horiz-adv-x="658" glyph-name="iacute"/>
<glyph d="M58 1292l349 369h178l202 -369l-102 -58l-215 229l-327 -228zM133 122q7 60 19 145.5t27.5 193t33.5 235.5t38 272l-129 58l16 85l357 52l53 -24l-133 -930q-11 -76 29 -76q17 0 39 12t60 44l29 -65q-8 -11 -30.5 -35t-57.5 -48t-81.5 -42.5t-103.5 -18.5 q-87 0 -130.5 36.5t-35.5 105.5z" unicode="î" horiz-adv-x="658" glyph-name="icircumflex"/>
<glyph d="M647 1360q-27 0 -51 12t-42 32t-28 46t-10 54q0 36 12 67.5t33.5 55.5t51.5 38t66 14q32 0 57.5 -11.5t43.5 -31t27 -44.5t9 -52q0 -36 -11.5 -69t-33 -57.5t-53 -39t-71.5 -14.5zM209 1360q-27 0 -51 12t-42 32t-28 46t-10 54q0 36 12 67.5t33.5 55.5t51.5 38t66 14 q32 0 57.5 -11.5t43.5 -31t27.5 -44.5t8.5 -52q0 -36 -11.5 -69t-33 -57.5t-53 -39t-71.5 -14.5zM133 122q7 60 19 145.5t27.5 193t33.5 235.5t38 272l-129 58l16 85l357 52l53 -24l-133 -930q-11 -76 29 -76q17 0 39 12t60 44l29 -65q-8 -11 -30.5 -35t-57.5 -48 t-81.5 -42.5t-103.5 -18.5q-87 0 -130.5 36.5t-35.5 105.5z" unicode="ï" horiz-adv-x="658" glyph-name="idieresis"/>
<glyph d="M71 445q0 155 44.5 278.5t120.5 209.5t177 131.5t214 45.5q69 0 122 -14.5t86 -52.5q-7 49 -18.5 96t-31 93.5t-49 92.5t-71.5 91l-145 -165l-109 93l149 163q-51 41 -104 73.5t-100 45.5l49 142q57 -15 131 -50t146 -81q24 28 50 59.5t48 57.5q26 31 50 61l106 -96 l-144 -165q84 -75 145 -162t100.5 -182t58.5 -195.5t19 -203.5q0 -176 -41.5 -328t-121 -264t-196 -175.5t-266.5 -63.5q-107 0 -186 41.5t-130.5 108.5t-77 149.5t-25.5 165.5zM517 99q57 0 105.5 35.5t87 97t65 144t38.5 175.5q2 12 5 35t6 49.5t5 51.5t3 41q1 17 -2 42.5 t-11.5 54t-23.5 57.5t-37.5 51.5t-54 37t-73.5 14.5q-49 0 -88.5 -26t-70.5 -70t-53 -102t-36.5 -122.5t-21.5 -131.5t-7 -128q0 -62 9 -117.5t29 -97.5t51 -66.5t75 -24.5z" unicode="ð" horiz-adv-x="1186" glyph-name="eth"/>
<glyph d="M236 963l-103 59l17 89l316 52l50 -24l-17 -207q36 50 80 92.5t93.5 73t104 48t111.5 17.5q55 0 100.5 -15.5t78.5 -51t51 -93.5t18 -142q0 -29 -5 -72.5t-12.5 -92.5t-16.5 -99t-16 -92q-6 -38 -13.5 -79t-13.5 -81t-10.5 -77.5t-5.5 -70.5q-1 -36 7.5 -50t23.5 -14 t34 9.5t55 36.5l29 -64q-7 -10 -28.5 -32.5t-56 -45.5t-80.5 -40.5t-102 -17.5q-51 0 -84 12t-52 33t-26 49t-6 60q1 27 5.5 63.5t11 77t14.5 84t16 85.5q7 42 16 91.5t16.5 101.5t12.5 103.5t5 96.5q0 47 -6.5 76t-18 44.5t-29 21t-40.5 5.5q-33 0 -70.5 -18.5t-75.5 -50.5 t-73.5 -75.5t-65.5 -93.5l-102 -745h-267zM372 1498q16 31 43 61.5t61 54.5t72.5 38.5t76.5 14.5q36 0 63.5 -11t49.5 -27t40 -35t36 -35t37 -27t43 -11q28 0 50 9.5t40 25t33.5 34t29.5 36.5l75 -114q-13 -35 -38.5 -67.5t-59.5 -58t-73.5 -40.5t-79.5 -15q-43 0 -73 10.5 t-52 26.5t-39.5 35t-35.5 35t-38.5 27t-49.5 12q-21 0 -41 -7.5t-39 -20t-36 -28t-31 -30.5z" unicode="ñ" horiz-adv-x="1284" glyph-name="ntilde"/>
<glyph d="M65 437q-3 96 15.5 187.5t55 172.5t90 148.5t122 116t150.5 75.5t176 27q206 0 316 -118.5t115 -340.5q2 -96 -16 -188t-54.5 -173t-90.5 -149t-122.5 -116.5t-151 -76t-175.5 -27.5q-207 0 -315 120t-115 342zM536 101q51 0 91.5 26.5t71.5 72t53 106t35 127.5 t18.5 137.5t4.5 136.5q-4 169 -47 246.5t-125 77.5q-51 0 -92 -26t-73 -71t-54.5 -104t-36.5 -125.5t-20 -135.5t-4 -134q4 -170 46.5 -252t131.5 -82zM644 1245q-21 9 -53 29t-69 48t-76 61t-74.5 67.5t-64.5 67.5t-45 61l181 164l288 -432l-87 -66v0z" unicode="ò" horiz-adv-x="1173" glyph-name="ograve"/>
<glyph d="M568 1312l317 431l170 -165q-9 -17 -34 -45.5t-60 -62t-76 -69.5t-83 -68t-80.5 -57t-68.5 -36zM65 437q-3 96 15.5 187.5t55 172.5t90 148.5t122 116t150.5 75.5t176 27q206 0 316 -118.5t115 -340.5q2 -96 -16 -188t-54.5 -173t-90.5 -149t-122.5 -116.5t-151 -76 t-175.5 -27.5q-207 0 -315 120t-115 342zM536 101q51 0 91.5 26.5t71.5 72t53 106t35 127.5t18.5 137.5t4.5 136.5q-4 169 -47 246.5t-125 77.5q-51 0 -92 -26t-73 -71t-54.5 -104t-36.5 -125.5t-20 -135.5t-4 -134q4 -170 46.5 -252t131.5 -82z" unicode="ó" horiz-adv-x="1173" glyph-name="oacute"/>
<glyph d="M322 1292l349 369h178l202 -369l-102 -58l-215 229l-327 -228zM65 437q-3 96 15.5 187.5t55 172.5t90 148.5t122 116t150.5 75.5t176 27q206 0 316 -118.5t115 -340.5q2 -96 -16 -188t-54.5 -173t-90.5 -149t-122.5 -116.5t-151 -76t-175.5 -27.5q-207 0 -315 120 t-115 342zM536 101q51 0 91.5 26.5t71.5 72t53 106t35 127.5t18.5 137.5t4.5 136.5q-4 169 -47 246.5t-125 77.5q-51 0 -92 -26t-73 -71t-54.5 -104t-36.5 -125.5t-20 -135.5t-4 -134q4 -170 46.5 -252t131.5 -82z" unicode="ô" horiz-adv-x="1173" glyph-name="ocircumflex"/>
<glyph d="M65 437q-3 96 15.5 187.5t55 172.5t90 148.5t122 116t150.5 75.5t176 27q206 0 316 -118.5t115 -340.5q2 -96 -16 -188t-54.5 -173t-90.5 -149t-122.5 -116.5t-151 -76t-175.5 -27.5q-207 0 -315 120t-115 342zM536 101q51 0 91.5 26.5t71.5 72t53 106t35 127.5 t18.5 137.5t4.5 136.5q-4 169 -47 246.5t-125 77.5q-51 0 -92 -26t-73 -71t-54.5 -104t-36.5 -125.5t-20 -135.5t-4 -134q4 -170 46.5 -252t131.5 -82zM339 1498q16 31 43 61.5t61 54.5t72.5 38.5t76.5 14.5q36 0 63.5 -11t49.5 -27t40 -35t36 -35t37 -27t43 -11 q28 0 50 9.5t40 25t33.5 34t29.5 36.5l75 -114q-13 -35 -38.5 -67.5t-59.5 -58t-73.5 -40.5t-79.5 -15q-43 0 -73 10.5t-52 26.5t-39.5 35t-35.5 35t-38.5 27t-49.5 12q-21 0 -41 -7.5t-39 -20t-36 -28t-31 -30.5z" unicode="õ" horiz-adv-x="1173" glyph-name="otilde"/>
<glyph d="M911 1360q-27 0 -51 12t-42 32t-28 46t-10 54q0 36 12 67.5t33.5 55.5t51.5 38t66 14q32 0 57.5 -11.5t43.5 -31t27 -44.5t9 -52q0 -36 -11.5 -69t-33 -57.5t-53 -39t-71.5 -14.5zM473 1360q-27 0 -51 12t-42 32t-28 46t-10 54q0 36 12 67.5t33.5 55.5t51.5 38t66 14 q32 0 57.5 -11.5t43.5 -31t27.5 -44.5t8.5 -52q0 -36 -11.5 -69t-33 -57.5t-53 -39t-71.5 -14.5zM65 437q-3 96 15.5 187.5t55 172.5t90 148.5t122 116t150.5 75.5t176 27q206 0 316 -118.5t115 -340.5q2 -96 -16 -188t-54.5 -173t-90.5 -149t-122.5 -116.5t-151 -76 t-175.5 -27.5q-207 0 -315 120t-115 342zM536 101q51 0 91.5 26.5t71.5 72t53 106t35 127.5t18.5 137.5t4.5 136.5q-4 169 -47 246.5t-125 77.5q-51 0 -92 -26t-73 -71t-54.5 -104t-36.5 -125.5t-20 -135.5t-4 -134q4 -170 46.5 -252t131.5 -82z" unicode="ö" horiz-adv-x="1173" glyph-name="odieresis"/>
<glyph d="M746 1031q-27 0 -51.5 10.5t-42.5 29.5t-28.5 46t-8.5 59q1 40 18.5 72.5t43.5 56t58 36t64 12.5q36 0 62.5 -12t43 -32t24 -46.5t6.5 -54.5q-2 -43 -19 -76t-44 -55.5t-60 -34t-66 -11.5zM275 863h908l-18 -179h-908zM510 339q1 40 18 72.5t43.5 56t58.5 36t64 12.5 q36 0 62 -12t43 -32.5t24 -46.5t6 -54q-2 -43 -19.5 -76t-44 -55.5t-59.5 -34t-66 -11.5q-27 0 -51.5 10.5t-42.5 30t-28 46t-8 58.5z" unicode="÷" horiz-adv-x="1370" glyph-name="divide"/>
<glyph d="M203 74q-66 59 -100 150.5t-38 214.5q-3 96 15.5 187.5t55 172.5t90 148.5t122 116t150.5 75.5t176 27q107 0 190 -33l110 166l90 -49l-111 -169q146 -117 152 -374q2 -97 -16 -188.5t-54.5 -172.5t-90.5 -149t-122.5 -116.5t-151 -76t-175.5 -27.5q-118 0 -206 40 l-104 -153l-91 49zM752 973q-41 60 -114 60q-51 0 -92 -26t-73 -71t-54.5 -104t-36.5 -125.5t-20 -135.5t-4 -134q1 -37 3 -69t7 -61zM405 185q43 -82 131 -82q51 0 91.5 26.5t71.5 72t53 106t35 127.5t18.5 137.5t4.5 136.5q-2 45 -5 82t-10 69z" unicode="ø" horiz-adv-x="1174" glyph-name="oslash"/>
<glyph d="M138 244q0 34 3.5 76.5t9.5 88.5t13 94t13 94l52 365l-113 71l16 89l333 41l50 -24l-69 -550q-11 -90 -22.5 -168.5t-11.5 -136.5q0 -43 7.5 -72t22.5 -46t36.5 -24.5t49.5 -7.5q32 0 63.5 10.5t60 28.5t54 41t46.5 48l120 893h268l-127 -945q-10 -76 32 -76 q8 0 16.5 2.5t19.5 8.5t26 17t36 28l29 -65q-7 -12 -29 -36t-57 -48t-80.5 -42t-98.5 -18q-90 0 -127 44t-23 115l-4 6q-26 -31 -59.5 -60.5t-75 -53t-92.5 -38t-112 -14.5q-51 0 -100 13t-88 44t-63 81.5t-25 125.5zM675 1245q-21 9 -53 29t-69 48t-76 61t-74.5 67.5 t-64.5 67.5t-45 61l181 164l288 -432l-87 -66v0z" unicode="ù" glyph-name="ugrave"/>
<glyph d="M586 1312l317 431l170 -165q-9 -17 -34 -45.5t-60 -62t-76 -69.5t-83 -68t-80.5 -57t-68.5 -36zM138 244q0 34 3.5 76.5t9.5 88.5t13 94t13 94l52 365l-113 71l16 89l333 41l50 -24l-69 -550q-11 -90 -22.5 -168.5t-11.5 -136.5q0 -43 7.5 -72t22.5 -46t36.5 -24.5 t49.5 -7.5q32 0 63.5 10.5t60 28.5t54 41t46.5 48l120 893h268l-127 -945q-10 -76 32 -76q8 0 16.5 2.5t19.5 8.5t26 17t36 28l29 -65q-7 -12 -29 -36t-57 -48t-80.5 -42t-98.5 -18q-90 0 -127 44t-23 115l-4 6q-26 -31 -59.5 -60.5t-75 -53t-92.5 -38t-112 -14.5 q-51 0 -100 13t-88 44t-63 81.5t-25 125.5z" unicode="ú" glyph-name="uacute"/>
<glyph d="M331 1292l349 369h178l202 -369l-102 -58l-215 229l-327 -228zM138 244q0 34 3.5 76.5t9.5 88.5t13 94t13 94l52 365l-113 71l16 89l333 41l50 -24l-69 -550q-11 -90 -22.5 -168.5t-11.5 -136.5q0 -43 7.5 -72t22.5 -46t36.5 -24.5t49.5 -7.5q32 0 63.5 10.5t60 28.5 t54 41t46.5 48l120 893h268l-127 -945q-10 -76 32 -76q8 0 16.5 2.5t19.5 8.5t26 17t36 28l29 -65q-7 -12 -29 -36t-57 -48t-80.5 -42t-98.5 -18q-90 0 -127 44t-23 115l-4 6q-26 -31 -59.5 -60.5t-75 -53t-92.5 -38t-112 -14.5q-51 0 -100 13t-88 44t-63 81.5t-25 125.5z " unicode="û" glyph-name="ucircumflex"/>
<glyph d="M920 1360q-27 0 -51 12t-42 32t-28 46t-10 54q0 36 12 67.5t33.5 55.5t51.5 38t66 14q32 0 57.5 -11.5t43.5 -31t27 -44.5t9 -52q0 -36 -11.5 -69t-33 -57.5t-53 -39t-71.5 -14.5zM482 1360q-27 0 -51 12t-42 32t-28 46t-10 54q0 36 12 67.5t33.5 55.5t51.5 38t66 14 q32 0 57.5 -11.5t43.5 -31t27.5 -44.5t8.5 -52q0 -36 -11.5 -69t-33 -57.5t-53 -39t-71.5 -14.5zM138 244q0 34 3.5 76.5t9.5 88.5t13 94t13 94l52 365l-113 71l16 89l333 41l50 -24l-69 -550q-11 -90 -22.5 -168.5t-11.5 -136.5q0 -43 7.5 -72t22.5 -46t36.5 -24.5 t49.5 -7.5q32 0 63.5 10.5t60 28.5t54 41t46.5 48l120 893h268l-127 -945q-10 -76 32 -76q8 0 16.5 2.5t19.5 8.5t26 17t36 28l29 -65q-7 -12 -29 -36t-57 -48t-80.5 -42t-98.5 -18q-90 0 -127 44t-23 115l-4 6q-26 -31 -59.5 -60.5t-75 -53t-92.5 -38t-112 -14.5 q-51 0 -100 13t-88 44t-63 81.5t-25 125.5z" unicode="ü" glyph-name="udieresis"/>
<glyph d="M-25 -293q10 -8 28 -16.5t41.5 -16t51.5 -12.5t58 -5q40 0 83 14.5t87 47.5t88 86.5t87 131.5h-154l-197 1007q-7 31 -16.5 43.5t-25.5 12.5q-12 0 -26.5 -4.5t-37.5 -23.5l-29 70q7 10 28.5 30t54 40t73.5 35.5t86 15.5q41 0 70 -9.5t48.5 -27t30 -43t15.5 -57.5 q6 -37 14.5 -97.5t19 -133t21 -151t20.5 -150.5t18.5 -132.5t14.5 -97.5l25 -230l104 213q33 75 64.5 147t56 143.5t39 142.5t14.5 145q0 37 -7 62.5t-15.5 48t-15.5 46.5t-7 58q0 57 34 90t97 33q40 0 70 -16t49.5 -43t29.5 -63t10 -77q0 -83 -17 -159t-44 -149.5t-62 -145 t-71 -143.5q-48 -99 -100.5 -195.5t-102.5 -181.5t-95 -154t-76 -114q-76 -121 -177 -177.5t-226 -56.5q-24 0 -53 3.5t-56 8.5t-49.5 12t-34.5 13l64 182v0zM506 1312l317 431l170 -165q-9 -17 -34 -45.5t-60 -62t-76 -69.5t-83 -68t-80.5 -57t-68.5 -36z" unicode="ý" horiz-adv-x="1089" glyph-name="yacute"/>
<glyph d="M284 1484l-100 43l21 84l308 39l53 -27l-78 -587q24 25 54.5 48t67 40.5t78.5 28t90 10.5q87 0 151 -30.5t107 -87t64 -136.5t21 -179q0 -92 -20.5 -184t-59.5 -175t-96 -154.5t-130.5 -124t-163 -82.5t-193.5 -30q-29 0 -58 3.5t-58 8.5l-11 -133l-52 -379h-258l71 500z M368 131q25 -11 54 -15.5t64 -4.5q63 0 113.5 26t90 71t68 105t47 128t27 140.5t8.5 141.5q0 61 -10 112.5t-29.5 88.5t-48.5 57.5t-67 20.5q-34 0 -65 -11.5t-59 -30.5t-52 -42.5t-43 -48.5z" unicode="þ" horiz-adv-x="1196" glyph-name="thorn"/>
<glyph d="M776 1589q-36 13 -86 41t-99.5 64t-91.5 77t-62 81l163 156l270 -342l-94 -77v0zM4 97l155 30l162 1264l-139 25l11 106h1034l-23 -344h-171l-40 209l-384 20l-73 -545l454 29l-26 -198l-444 23l-80 -589l502 30l118 258l165 -22l-79 -393h-1154z" unicode="Ѐ" horiz-adv-x="1283" glyph-name="uni0400"/>
<glyph d="M999 1690q-27 0 -50 10.5t-40 28.5t-26.5 42.5t-9.5 53.5q0 36 13 65.5t34.5 51t50 33.5t60.5 12t57 -10t42 -27.5t25.5 -40.5t8.5 -50q0 -36 -11.5 -67t-33 -53.5t-52 -35.5t-68.5 -13zM562 1690q-27 0 -50 10.5t-40 28.5t-26.5 42t-9.5 52q0 36 12.5 66t34 51.5t50 34 t60.5 12.5t57 -10t42.5 -27.5t26 -41t7.5 -50.5q0 -36 -12 -67t-33 -53.5t-51.5 -35t-67.5 -12.5zM4 97l155 30l162 1264l-139 25l11 106h1034l-23 -344h-171l-40 209l-384 20l-73 -545l454 29l-26 -198l-444 23l-80 -589l502 30l118 258l165 -22l-79 -393h-1154z" unicode="Ё" horiz-adv-x="1283" glyph-name="afii10023"/>
<glyph d="M269 97l223 31l164 1282l-281 -21l-138 -334h-161l92 467h1393l-71 -466h-156l-14 333l-382 21l-81 -628q30 14 69.5 29.5t87.5 29t104.5 22t120.5 8.5q83 0 144.5 -17t104 -45.5t69.5 -66t42 -77.5t20.5 -80t5.5 -75q0 -53 -14.5 -111.5t-41.5 -116t-67.5 -109.5 t-91.5 -91.5t-113.5 -63t-134.5 -23.5q-21 0 -40.5 1.5t-31.5 4.5l8 99q6 -1 18 -0.5t25.5 1.5t27.5 3t23 5q42 12 71 48t47 83.5t26.5 99.5t8.5 95q0 70 -12 123.5t-41.5 90.5t-79 56t-123.5 19q-35 0 -69.5 -6.5t-67 -16t-61 -20.5t-50.5 -20l-68 -533l175 -31l-11 -97 h-680z" unicode="Ђ" horiz-adv-x="1675" glyph-name="afii10051"/>
<glyph d="M509 1666l276 342l160 -156q-13 -26 -37 -53.5t-54 -53.5t-64 -50.5t-68 -45t-65 -36t-55 -24.5zM8 97l154 30l163 1264l-163 26l13 105h979l-59 -532h-162l-27 398l-297 18l-165 -1279l266 -30l-10 -97h-703z" unicode="Ѓ" horiz-adv-x="1098" glyph-name="afii10052"/>
<glyph d="M344 849l650 24l-34 -197q-29 2 -74 4t-98.5 5t-113.5 7t-120.5 8.5t-118.5 9.5t-107 11zM75 633q-2 210 59 378t171 285.5t261 180.5t330 63q76 0 132 -5t97.5 -12t71.5 -15.5t56 -14.5l36 -10l-64 -386h-193l-32 287q-29 14 -64.5 23t-81.5 9q-87 0 -156 -34.5 t-121.5 -92.5t-89.5 -135t-60.5 -162t-33.5 -172.5t-8 -166.5q3 -114 21 -210.5t55 -167t93.5 -110t136.5 -39.5q25 0 57 3t65 12.5t63.5 26.5t53.5 45q8 9 19 35t22 57t20 61t14 46h166l-42 -305q-27 -17 -69 -38.5t-101.5 -40t-137.5 -31.5t-177 -13q-155 0 -263 54.5 t-175.5 145t-98.5 207.5t-32 242z" unicode="Є" horiz-adv-x="1266" glyph-name="afii10053"/>
<glyph d="M84 372h167l16 -204q38 -28 90 -47.5t118 -19.5q63 0 115 14.5t90.5 43t60 70t23.5 95.5q1 54 -15 97.5t-48.5 82.5t-80.5 75.5t-109 75.5q-64 40 -124 86.5t-106 101.5t-74 120.5t-28 145.5q-1 101 39.5 181.5t112 136t168.5 85t209 29.5q77 0 138 -7t108 -18t80.5 -25 t56.5 -28l-50 -285h-154l-29 190q-33 24 -74.5 37.5t-96.5 13.5q-50 0 -94.5 -13t-77.5 -37.5t-52.5 -61.5t-19.5 -85q0 -58 18.5 -104.5t53 -88t85 -79.5t114.5 -78q62 -39 119.5 -82.5t102 -95.5t71.5 -115t28 -140q1 -98 -36.5 -182.5t-109 -146.5t-175.5 -97.5 t-237 -35.5q-78 0 -150.5 9.5t-132 23.5t-102 30.5t-60.5 30.5z" unicode="Ѕ" horiz-adv-x="1123" glyph-name="afii10054"/>
<glyph d="M14 97l149 30l164 1264l-141 25l12 106h588l-11 -106l-164 -25l-163 -1264l167 -29l-8 -98h-604z" unicode="І" horiz-adv-x="740" glyph-name="afii10055"/>
<glyph d="M14 97l149 30l164 1264l-141 25l12 106h588l-11 -106l-164 -25l-163 -1264l167 -29l-8 -98h-604zM731 1690q-27 0 -50 10.5t-40 28.5t-26.5 42.5t-9.5 53.5q0 36 13 65.5t34.5 51t50 33.5t60.5 12t57 -10t42 -27.5t25.5 -40.5t8.5 -50q0 -36 -11.5 -67t-33 -53.5 t-52 -35.5t-68.5 -13zM294 1690q-27 0 -50 10.5t-40 28.5t-26.5 42t-9.5 52q0 36 12.5 66t34 51.5t50 34t60.5 12.5t57 -10t42.5 -27.5t26 -41t7.5 -50.5q0 -36 -12 -67t-33 -53.5t-51.5 -35t-67.5 -12.5z" unicode="Ї" horiz-adv-x="740" glyph-name="uni0407"/>
<glyph d="M165 86q30 146 53.5 307t44 328.5t38.5 337t37 332.5l-145 25l15 106h569l-11 -106l-149 -24q-17 -152 -34.5 -302.5t-34 -288.5t-31.5 -260t-28.5 -217.5t-24.5 -160t-19 -88.5q-32 -94 -90.5 -166.5t-135 -124t-165.5 -83.5t-181 -46l-44 99q75 22 133 58.5t100 81 t67.5 94t35.5 98.5z" unicode="Ј" horiz-adv-x="733" glyph-name="afii10057"/>
<glyph d="M-1 277q4 -6 21.5 -15.5t42.5 -18t55.5 -15t60.5 -6.5q28 0 59 36t63 103t62.5 161t58 210.5t50 252t37.5 284.5l13 119l-217 28l13 106h1174l-12 -106l-182 -25l-66 -517q32 8 78 15t108 7q241 0 364 -93.5t123 -270.5q0 -137 -47.5 -240t-132.5 -171.5t-201.5 -103 t-255.5 -34.5q-17 0 -55 2.5t-83 5.5t-90.5 6t-78.5 3h-279l9 98l160 29l164 1280h-360l-17 -146q-20 -179 -48 -343t-64 -306t-80.5 -258t-96.5 -198t-112 -127t-127 -45q-45 0 -85.5 12.5t-80.5 40.5zM1134 110q24 -5 57.5 -7t84.5 -2q79 0 141.5 28.5t106 81t66 126.5 t22.5 165q0 60 -18.5 107.5t-52.5 80.5t-82 51t-106 18q-38 0 -75 -3.5t-63 -9.5z" unicode="Љ" horiz-adv-x="1969" glyph-name="afii10058"/>
<glyph d="M19 97l142 30l164 1264l-140 25l13 106h591l-12 -106l-168 -25l-71 -547h597l71 547l-165 25l11 106h597l-12 -106l-147 -25l-67 -519q33 8 80.5 16t111.5 8q242 0 365 -93.5t123 -270.5q0 -137 -47.5 -240t-132.5 -171.5t-202 -103t-256 -34.5q-18 0 -58.5 2.5t-88 6 t-94.5 6t-78 2.5h-293l11 98l179 30l75 580h-598l-75 -581l167 -29l-8 -98h-595zM1325 111q25 -5 60 -7.5t89 -2.5q79 0 141.5 28.5t105.5 81t66 126.5t23 165q0 60 -18.5 107.5t-52.5 80.5t-82 51t-106 18q-40 0 -79.5 -3.5t-63.5 -10.5h-2z" unicode="Њ" horiz-adv-x="2132" glyph-name="afii10059"/>
<glyph d="M244 97l231 30l173 1281l-283 -22l-133 -331h-156l90 467h1316l-71 -466h-156l-14 333l-307 19l-75 -545q36 17 78.5 30t86 22t87 13.5t82.5 4.5q70 0 130 -6.5t108.5 -24.5t84 -49.5t57 -81t27 -120t-6.5 -166.5l-45 -358l139 -28l-12 -100h-573l11 100l144 28l30 210 q18 130 24 217t-12 140t-64.5 75.5t-132.5 22.5q-31 0 -66 -3t-70 -8.5t-67 -13.5t-56 -19l-86 -621l185 -30l-10 -97h-699z" unicode="Ћ" horiz-adv-x="1735" glyph-name="afii10060"/>
<glyph d="M877 1635q-90 0 -162 16.5t-122 51.5t-77 88t-27 127q0 20 1 40t8 43h230q17 0 23 -13.5t6 -32.5q0 -23 -3.5 -48t-3.5 -47q0 -27 7 -49t23.5 -38t44.5 -25t70 -9q58 0 93 14.5t54 39.5t26.5 58.5t12.5 70.5q2 15 5 29t8.5 25t13 18t19.5 7h186q0 -8 -0.5 -16.5 t-1.5 -16.5q-11 -87 -45 -150t-89 -103.5t-130.5 -60t-169.5 -19.5zM16 97l142 30l164 1264l-139 25l13 106h589l-12 -106l-168 -25l-75 -578h133l450 576l-138 27l13 106h463l-13 -106l-140 -27l-493 -588q31 -16 62.5 -52t62.5 -84t61.5 -104t59 -113t56 -111t52.5 -97.5 t47.5 -72t41.5 -35.5l80 -29l-12 -103h-305q-24 0 -49 29.5t-50.5 78t-52 110.5t-53.5 127t-54 127t-54.5 110.5t-54.5 78t-54 29.5h-75l-73 -563l167 -29l-8 -98h-594z" unicode="Ќ" horiz-adv-x="1394" glyph-name="afii10061"/>
<glyph d="M1020 1589q-36 13 -86 41t-99.5 64t-91.5 77t-62 81l163 156l270 -342l-94 -77v0zM19 97l142 30l164 1264l-140 25l13 106h588l-11 -106l-168 -25l-126 -964l101 140l646 711l15 113l-140 25l13 106h588l-11 -106l-168 -25l-164 -1264l166 -29l-8 -98h-592l10 97l142 30 l124 961l-96 -137l-651 -722l-13 -102l166 -29l-8 -98h-592z" unicode="Ѝ" horiz-adv-x="1641" glyph-name="uni040D"/>
<glyph d="M849 1635q-90 0 -162 16.5t-122 51.5t-77 88t-27 127q0 20 1 40t8 43h230q17 0 23 -13.5t6 -32.5q0 -23 -3.5 -48t-3.5 -47q0 -27 7 -49t23.5 -38t44.5 -25t70 -9q58 0 93 14.5t54 39.5t26.5 58.5t12.5 70.5q2 15 5 29t8.5 25t13 18t19.5 7h186q0 -8 -0.5 -16.5 t-1.5 -16.5q-11 -87 -45 -150t-89 -103.5t-130.5 -60t-169.5 -19.5zM172 198h157q46 0 82.5 3.5t64.5 15t47.5 32.5t31.5 56l-342 1087l-101 24l13 106h575l-10 -106l-165 -25l172 -650l37 -189l72 191l274 647l-151 26l11 106h423l-14 -106l-103 -24l-505 -1080 q-16 -32 -35.5 -69.5t-44 -75t-55.5 -72t-69.5 -60.5t-86 -42t-105.5 -16q-26 0 -52 3t-50 8t-45 12t-35 15z" unicode="Ў" horiz-adv-x="1238" glyph-name="afii10062"/>
<glyph d="M9 97l154 30l163 1264l-147 25l13 106h564l-12 -106l-134 -25l-164 -1264h540l165 1264l-130 25l11 106h554l-10 -106l-141 -25l-164 -1263l155 -31l-11 -97h-581l-102 -348h-145l15 348h-603z" unicode="Џ" horiz-adv-x="1544" glyph-name="afii10145"/>
<glyph d="M675 1522h282l250 -1393l159 -32l-7 -97h-609l5 97l156 29l-44 299h-523l-133 -298l175 -30l-7 -97h-520l8 97l130 29zM846 563l-89 607l-10 159l-342 -766h441z" unicode="А" horiz-adv-x="1347" glyph-name="afii10017"/>
<glyph d="M6 97l156 30l163 1263l-151 26l13 106h1052l-31 -367h-162l-36 237l-414 14l-65 -499q33 8 84 16t114 8q241 0 363 -96.5t122 -279.5q0 -135 -45.5 -241t-129.5 -179.5t-202 -112.5t-262 -39q-18 0 -58.5 2.5t-88.5 6t-95 6t-78 2.5h-259zM428 110q23 -5 56.5 -7t90.5 -2 q84 0 148.5 32t109 88.5t67 134.5t22.5 170q0 63 -18.5 112.5t-52.5 84t-81.5 53t-105.5 18.5q-40 0 -82 -3.5t-67 -10.5z" unicode="Б" horiz-adv-x="1283" glyph-name="afii10018"/>
<glyph d="M15 97l143 30l165 1264l-140 25l13 106h294q80 1 159 8.5t168 7.5q133 0 221.5 -27.5t141.5 -72.5t75.5 -103.5t24.5 -120.5q4 -164 -85 -263t-256 -145q75 -3 136.5 -28.5t105 -67.5t67 -97t24.5 -117q1 -139 -49.5 -236.5t-143 -159t-223 -89.5t-289.5 -28 q-33 0 -71 2.5t-76.5 6t-75.5 6t-68 2.5h-270zM527 855q36 -2 72 -1.5t75 0.5q69 0 131 18.5t108 59t72 104t24 152.5q-4 113 -65 170.5t-191 57.5q-11 0 -30 -1t-40.5 -2.5t-43.5 -4t-40 -5.5zM432 127q18 -5 42 -9t49 -6.5t48 -4t39 -1.5q87 0 155.5 20.5t116 64t71 112 t20.5 164.5q-2 64 -19 112t-52.5 80t-90.5 47.5t-132 15.5q-34 0 -59.5 -0.5t-45.5 -1.5t-36 -2t-29 -2z" unicode="В" horiz-adv-x="1354" glyph-name="afii10019"/>
<glyph d="M8 97l154 30l163 1264l-163 26l13 105h979l-59 -532h-162l-27 398l-297 18l-165 -1279l266 -30l-10 -97h-703z" unicode="Г" horiz-adv-x="1098" glyph-name="afii10020"/>
<glyph d="M108 130q16 17 44 56.5t62.5 104t73 155.5t75 212t69 273t55.5 338l15 122l-212 25l12 106h1127l-12 -106l-147 -26l-165 -1260h12l33 -29l166 -25q-12 -72 -26 -135t-29 -117t-28.5 -100.5t-23.5 -85.5h-152q2 40 5 89t5.5 99t2.5 95.5t-4 78.5h-877q-6 -13 -15.5 -39.5 t-20.5 -60t-22.5 -71t-21.5 -73.5t-18 -67t-12 -51h-155q0 29 3 74.5t7 97.5t9 105.5t10 98.5l8.5 76.5t4.5 39.5h142zM821 130l167 1281h-346l-17 -154q-28 -240 -72.5 -434t-91.5 -337t-90.5 -233t-70.5 -123h521z" unicode="Д" horiz-adv-x="1398" glyph-name="afii10021"/>
<glyph d="M4 97l155 30l162 1264l-139 25l11 106h1034l-23 -344h-171l-40 209l-384 20l-73 -545l454 29l-26 -198l-444 23l-80 -589l502 30l118 258l165 -22l-79 -393h-1154z" unicode="Е" horiz-adv-x="1283" glyph-name="afii10022"/>
<glyph d="M-32 97l66 30q22 9 53 40.5t68 77.5t78.5 102.5t86 115.5t91 116.5t92 104.5t89 80t82.5 44l-367 584l-153 24l12 106h490l-12 -106l-149 -26l321 -577h120l75 578l-150 25l13 106h586l-12 -106l-161 -25l-75 -578h130l458 578l-135 25l13 106h463l-13 -106l-143 -27 l-505 -583q32 -13 64 -47t64 -81t63.5 -104t62 -115t59.5 -113.5t55.5 -101t51 -77t46.5 -40.5l82 -30l-11 -97h-317q-24 0 -49 29.5t-50.5 78t-52 110.5t-53.5 127t-54 127t-54.5 110.5t-55 78t-54.5 29.5h-81l-73 -563l163 -29l-8 -98h-593l10 97l152 30l72 557h-81 q-30 0 -65 -29.5t-72.5 -77.5t-76.5 -109.5t-77.5 -125.5t-75.5 -125.5t-70 -109.5t-61.5 -77.5t-50.5 -29.5h-335z" unicode="Ж" horiz-adv-x="2084" glyph-name="afii10024"/>
<glyph d="M87 419h177v-257q37 -22 94 -36t149 -14q70 0 126.5 27.5t96.5 77t61.5 119t21.5 153.5q0 109 -56 170t-181 61l-146 -12l14 138l122 3q48 0 97.5 20.5t89.5 64.5t65.5 113t25.5 167q0 104 -51.5 153t-146.5 49q-78 0 -130 -20t-76 -64l-46 -162h-172l21 301 q31 2 81.5 12.5t109.5 22.5t121 22t118 10q121 0 209 -23.5t145.5 -65t85.5 -98.5t28 -124q0 -75 -17 -132.5t-46 -101t-66.5 -74.5t-79.5 -52.5t-84.5 -35t-81.5 -22.5q91 -2 160 -25t116 -63.5t71 -96.5t24 -122q0 -137 -52.5 -234t-142 -159.5t-208.5 -91.5t-253 -29 q-74 0 -147 10t-137.5 25.5t-115.5 34t-82 36.5z" unicode="З" horiz-adv-x="1214" glyph-name="afii10025"/>
<glyph d="M19 97l142 30l164 1264l-140 25l13 106h588l-11 -106l-168 -25l-126 -964l101 140l646 711l15 113l-140 25l13 106h588l-11 -106l-168 -25l-164 -1264l166 -29l-8 -98h-592l10 97l142 30l124 961l-96 -137l-651 -722l-13 -102l166 -29l-8 -98h-592z" unicode="И" horiz-adv-x="1641" glyph-name="afii10026"/>
<glyph d="M943 1635q-90 0 -162 16.5t-122 51.5t-77 88t-27 127q0 20 1 40t8 43h230q17 0 23 -13.5t6 -32.5q0 -23 -3.5 -48t-3.5 -47q0 -27 7 -49t23.5 -38t44.5 -25t70 -9q58 0 93 14.5t54 39.5t26.5 58.5t12.5 70.5q2 15 5 29t8.5 25t13 18t19.5 7h186q0 -8 -0.5 -16.5 t-1.5 -16.5q-11 -87 -45 -150t-89 -103.5t-130.5 -60t-169.5 -19.5zM19 97l142 30l164 1264l-140 25l13 106h588l-11 -106l-168 -25l-126 -964l101 140l646 711l15 113l-140 25l13 106h588l-11 -106l-168 -25l-164 -1264l166 -29l-8 -98h-592l10 97l142 30l124 961l-96 -137 l-651 -722l-13 -102l166 -29l-8 -98h-592z" unicode="Й" horiz-adv-x="1641" glyph-name="afii10027"/>
<glyph d="M16 97l142 30l164 1264l-139 25l13 106h589l-12 -106l-168 -25l-75 -578h133l450 576l-138 27l13 106h463l-13 -106l-140 -27l-493 -588q31 -16 62.5 -52t62.5 -84t61.5 -104t59 -113t56 -111t52.5 -97.5t47.5 -72t41.5 -35.5l80 -29l-12 -103h-305q-24 0 -49 29.5 t-50.5 78t-52 110.5t-53.5 127t-54 127t-54.5 110.5t-54.5 78t-54 29.5h-75l-73 -563l167 -29l-8 -98h-594z" unicode="К" horiz-adv-x="1394" glyph-name="afii10028"/>
<glyph d="M23 289q9 -7 23.5 -15.5t34 -16t44 -12.5t53.5 -5q38 0 65 25t53 73q32 60 63 152.5t58.5 211t50.5 262t40 305.5l13 119l-217 28l13 106h1174l-13 -106l-181 -25l-163 -1264l174 -41l-9 -86h-618l9 98l160 29l164 1280h-360l-17 -146q-35 -311 -88 -557.5t-119 -414.5 q-31 -81 -62.5 -139t-66.5 -94.5t-75 -54t-89 -17.5q-45 0 -93.5 9.5t-81.5 33.5z" unicode="Л" horiz-adv-x="1409" glyph-name="afii10029"/>
<glyph d="M-61 98l160 29l322 1264l-179 25l14 106h580l128 -934l18 -170l60 170q12 29 32.5 78t46.5 111t55.5 133t60 144.5t60.5 144.5t56 133.5t46.5 111.5t32.5 78h524l-12 -106l-171 -25l-33 -1263l169 -30l-9 -98h-631l9 99l183 28l48 874l25 400l-140 -352l-454 -1052 l-143 -15l-153 1043l-57 376l-80 -386l-210 -888l207 -29l-9 -98h-568z" unicode="М" horiz-adv-x="1952" glyph-name="afii10030"/>
<glyph d="M19 97l142 30l164 1264l-140 25l13 106h591l-12 -106l-168 -25l-71 -547h597l71 547l-165 25l11 106h597l-12 -106l-147 -25l-163 -1263l155 -31l-11 -97h-618l11 98l179 30l75 580h-598l-75 -581l167 -29l-8 -98h-595z" unicode="Н" horiz-adv-x="1602" glyph-name="afii10031"/>
<glyph d="M633 -20q-142 0 -244.5 51t-168.5 138.5t-98 206t-33 253.5q-1 123 20.5 238.5t64.5 217t107 185.5t147 144.5t185 94t222 33.5q96 0 173.5 -23.5t137.5 -66t104 -102t72 -130.5t42 -152t15 -167q1 -122 -19.5 -237.5t-62.5 -218t-105 -188t-146 -147t-186.5 -96 t-226.5 -34.5zM662 101q98 0 175 60t130.5 164.5t80.5 247t26 307.5q-1 124 -17 223.5t-49 169.5t-83.5 107.5t-119.5 37.5q-63 0 -119 -28t-102 -79t-82.5 -122t-61 -156.5t-37.5 -183t-12 -201.5q1 -108 15 -206.5t45.5 -174.5t83 -121t127.5 -45z" unicode="О" horiz-adv-x="1429" glyph-name="afii10032"/>
<glyph d="M19 97l143 30l162 1260l-162 29l13 106h1409l-9 -106l-149 -25l-163 -1264l157 -30l-10 -97h-587l11 97l143 28l167 1273h-535l-164 -1271l167 -30l-8 -97h-595z" unicode="П" horiz-adv-x="1538" glyph-name="afii10033"/>
<glyph d="M16 97l142 30l165 1264l-141 25l13 106h288q82 0 156.5 8t152.5 8q133 0 229 -25t158.5 -75.5t93.5 -125t33 -173.5q4 -147 -44.5 -261t-138 -192t-214.5 -118.5t-273 -40.5q-56 0 -87 1t-54 3l-48 -404l242 -29l-8 -98h-675zM510 665q38 -8 72 -10t63 -1q93 1 161.5 34 t114 94t68 148t23.5 197q2 149 -63.5 220t-207.5 69q-28 -1 -63.5 -4.5t-68.5 -10.5z" unicode="Р" horiz-adv-x="1295" glyph-name="afii10034"/>
<glyph d="M75 633q-2 210 59 378t171 285.5t261 180.5t330 63q76 0 132 -5t97.5 -12t71.5 -15.5t56 -14.5l36 -10l-64 -386h-193l-32 287q-29 14 -64.5 23t-81.5 9q-87 0 -156 -34.5t-121.5 -92.5t-89.5 -135t-60.5 -162t-33.5 -172.5t-8 -166.5q3 -114 21 -210.5t55 -167 t93.5 -110t136.5 -39.5q25 0 57 3t65 12.5t63.5 26.5t53.5 45q8 9 19 35t22 57t20 61t14 46h166l-42 -305q-27 -17 -69 -38.5t-101.5 -40t-137.5 -31.5t-177 -13q-155 0 -263 54.5t-175.5 145t-98.5 207.5t-32 242z" unicode="С" horiz-adv-x="1266" glyph-name="afii10035"/>
<glyph d="M225 100l248 27l166 1281l-274 -24l-133 -394l-156 -1l90 533h1268l-77 -532l-149 -1l-7 395l-277 24l-167 -1281l268 -27l-9 -100h-802z" unicode="Т" horiz-adv-x="1352" glyph-name="afii10036"/>
<glyph d="M172 198h157q46 0 82.5 3.5t64.5 15t47.5 32.5t31.5 56l-342 1087l-101 24l13 106h575l-10 -106l-165 -25l172 -650l37 -189l72 191l274 647l-151 26l11 106h423l-14 -106l-103 -24l-505 -1080q-16 -32 -35.5 -69.5t-44 -75t-55.5 -72t-69.5 -60.5t-86 -42t-105.5 -16 q-26 0 -52 3t-50 8t-45 12t-35 15z" unicode="У" horiz-adv-x="1238" glyph-name="afii10037"/>
<glyph d="M430 41l165 29l16 122q-112 7 -197 28t-147 53t-103 74.5t-66 92.5t-35 107t-10 118q0 135 41.5 253t128.5 209.5t221 150.5t318 77l14 107l-168 26l14 106h612l-12 -106l-172 -26l-14 -104q168 -12 276 -52.5t170.5 -102.5t86.5 -141.5t24 -168.5q0 -135 -42 -253.5 t-129 -211t-220 -153.5t-316 -80l-16 -125l169 -31l-10 -101h-611zM750 1261q-89 -15 -154.5 -47.5t-112.5 -78t-77.5 -101t-48 -116.5t-24 -124t-6.5 -123q0 -59 13 -119t46.5 -111.5t91 -90.5t146.5 -56zM899 294q85 15 149.5 47t111 77t77 100.5t48.5 117t25.5 126.5 t7.5 130q0 59 -13 117.5t-46 108.5t-90 87.5t-145 54.5z" unicode="Ф" horiz-adv-x="1594" glyph-name="afii10038"/>
<glyph d="M-59 98l118 29l496 626l-302 637l-128 26l11 106h597l-9 -105l-145 -25l181 -470l317 469l-137 25l9 106h499l-10 -106l-137 -24l-471 -605l331 -660l138 -29l-9 -98h-623l8 98l148 29l-201 483l-333 -483l151 -30l-9 -97h-501z" unicode="Х" horiz-adv-x="1342" glyph-name="afii10039"/>
<glyph d="M-7 97l169 30l162 1264l-141 25l12 106h589l-11 -106l-165 -25l-160 -1268h528l162 1268l-139 25l11 106h577l-12 -106l-158 -25l-162 -1259h228q-12 -72 -27.5 -143.5t-32 -136.5t-32 -120t-25.5 -94h-152q2 40 5.5 89t5.5 99t2.5 95.5t-3.5 78.5h-1243z" unicode="Ц" horiz-adv-x="1611" glyph-name="afii10040"/>
<glyph d="M637 97l180 30l70 540q-37 -20 -79.5 -34.5t-87.5 -24t-90 -14.5t-87 -5q-100 0 -179 16t-130 64t-71.5 135.5t-2.5 231.5l45 355l-140 25l13 106h584l-12 -106l-155 -26l-29 -206q-14 -130 -18.5 -217.5t11 -140t56.5 -74.5t119 -22q34 0 72 3t74 10t68 16.5t54 23.5 l79 608l-166 25l12 106h595l-12 -106l-145 -25l-163 -1264l149 -30l-10 -97h-616z" unicode="Ч" horiz-adv-x="1377" glyph-name="afii10041"/>
<glyph d="M19 97l142 30l165 1264l-140 25l13 106h589l-12 -106l-173 -24l-164 -1274h466l165 1273l-157 25l12 106h590l-11 -106l-153 -25l-165 -1273h444l164 1273l-156 25l12 106h589l-11 -106l-153 -25l-162 -1258l168 -30l-12 -103h-2060z" unicode="Ш" horiz-adv-x="2205" glyph-name="afii10042"/>
<glyph d="M19 97l142 30l165 1264l-140 25l13 106h586l-12 -106l-172 -24l-164 -1274h468l165 1273l-157 25l12 106h589l-11 -106l-153 -25l-164 -1273h446l164 1273l-155 25l12 106h586l-11 -106l-153 -25l-163 -1264h247q-12 -72 -28 -143t-32.5 -134.5t-31.5 -118t-25 -93.5 h-152q2 40 5 89t5.5 99t2.5 95.5t-4 78.5h-1890z" unicode="Щ" horiz-adv-x="2220" glyph-name="afii10043"/>
<glyph d="M350 97l158 30l165 1279l-272 -11l-139 -406h-161l91 533h938l-10 -101l-166 -30l-62 -484q33 8 84 16t114 8q241 0 363 -96.5t122 -279.5q0 -135 -45.5 -241t-129 -179.5t-201.5 -112.5t-263 -39q-18 0 -59.5 2.5t-90.5 6t-97 6t-79 2.5h-271zM790 110q23 -5 56.5 -7 t89.5 -2q84 0 148.5 32t109 88.5t67 134.5t22.5 170q0 63 -18.5 112.5t-52.5 84t-81.5 53t-105.5 18.5q-40 0 -82 -3.5t-67 -10.5z" unicode="Ъ" horiz-adv-x="1619" glyph-name="afii10044"/>
<glyph d="M1216 97l149 30l164 1264l-141 25l12 106h588l-11 -106l-164 -25l-163 -1264l167 -29l-8 -98h-604zM13 97l148 30l164 1264l-141 25l12 106h588l-11 -101l-165 -30l-67 -519q33 8 81 16t111 8q242 0 364.5 -93.5t122.5 -270.5q0 -137 -47.5 -240t-132.5 -171.5 t-201.5 -103t-255.5 -34.5q-18 0 -58.5 2.5t-88.5 6t-95 6t-78 2.5h-262zM443 111q25 -5 59.5 -7.5t88.5 -2.5q79 0 142 28.5t106 81t66 126.5t23 165q0 60 -18.5 107.5t-53 80.5t-82.5 51t-106 18q-40 0 -79 -3.5t-63 -10.5h-1z" unicode="Ы" horiz-adv-x="1925" glyph-name="afii10045"/>
<glyph d="M13 97l148 30l164 1264l-141 25l12 106h588l-11 -101l-165 -30l-67 -519q33 8 81 16t111 8q242 0 364.5 -93.5t122.5 -270.5q0 -137 -47.5 -240t-132.5 -171.5t-201.5 -103t-255.5 -34.5q-18 0 -58.5 2.5t-88.5 6t-95 6t-78 2.5h-262zM443 111q25 -5 59.5 -7.5t88.5 -2.5 q79 0 142 28.5t106 81t66 126.5t23 165q0 60 -18.5 107.5t-53 80.5t-82.5 51t-106 18q-40 0 -79 -3.5t-63 -10.5h-1z" unicode="Ь" horiz-adv-x="1284" glyph-name="afii10046"/>
<glyph d="M41 381l150 5l72 -185q12 -15 29 -32.5t46.5 -32.5t73 -24.5t107.5 -9.5q80 0 153 41t131.5 119.5t99 192t55.5 259.5q-49 -5 -103 -9.5t-108 -8t-106.5 -6.5t-99.5 -5.5t-86 -5t-65 -3.5l-34 197l610 -23q0 8 0.5 16.5t0.5 17.5q0 108 -18 204.5t-57.5 170t-102 116.5 t-151.5 43q-54 0 -93 -8t-68 -22t-50 -32.5t-40 -40.5l-75 -201h-163l61 345q39 2 82 14.5t98 27t125.5 26t165.5 11.5q139 0 249 -47t185.5 -132t115.5 -205t40 -265q0 -198 -57 -365.5t-162.5 -289t-255 -189.5t-333.5 -68q-79 0 -136.5 12t-103 27t-83 27t-75.5 12z" unicode="Э" horiz-adv-x="1275" glyph-name="afii10047"/>
<glyph d="M12 97l149 30l164 1264l-141 25l12 106h588l-11 -106l-164 -25l-72 -553h286q24 149 83.5 277.5t152.5 223.5t217.5 149t277.5 54q96 0 173.5 -23.5t137.5 -66t104 -102t72 -130.5t42 -152t15 -167q1 -122 -19.5 -237.5t-62.5 -218t-105 -188t-146 -147t-186.5 -96 t-226.5 -34.5q-142 0 -244.5 51t-168.5 138.5t-98 206t-33 253.5v39.5t2 39.5h-289l-75 -581l167 -29l-8 -98h-604zM1110 648q1 -108 15 -206.5t45.5 -174.5t83 -121t127.5 -45q98 0 175 60t130.5 164.5t80.5 247t26 307.5q-1 124 -17 223.5t-49 169.5t-83.5 107.5 t-119.5 37.5q-64 0 -119.5 -28t-101.5 -79t-82.5 -122t-61 -156.5t-37.5 -183t-12 -201.5z" unicode="Ю" horiz-adv-x="2148" glyph-name="afii10048"/>
<glyph d="M-84 86l74 30q26 6 59.5 44.5t71 95t78.5 123t83.5 129t85.5 113t84 74.5q-62 20 -108.5 54t-77.5 78.5t-46.5 96.5t-15.5 109q0 113 40.5 206t120.5 159.5t197.5 103t272.5 36.5q55 0 93 -2.5t72.5 -5.5t72.5 -5.5t94 -2.5h300l-12 -106l-158 -24l-163 -1265l156 -30 l-9 -97h-589l9 97l152 30l71 548q-16 -1 -43.5 -1.5t-56.5 -0.5t-55.5 -0.5t-40.5 -0.5h-32q-29 -23 -58.5 -64t-59.5 -92.5t-59.5 -110t-58.5 -115.5t-56 -109.5t-52.5 -92.5t-47.5 -64t-41 -24h-358zM793 786q36 0 76.5 1t70.5 5l77 605q-12 1 -27.5 4t-37 6.5t-52 6 t-73.5 2.5q-83 0 -141.5 -26.5t-95.5 -74t-54.5 -113t-17.5 -144.5q0 -68 20 -118.5t56 -85t86.5 -51.5t112.5 -17z" unicode="Я" horiz-adv-x="1410" glyph-name="afii10049"/>
<glyph d="M404 -20q-89 0 -152.5 33t-104 90.5t-59 135.5t-18.5 167q0 88 19.5 178.5t57.5 174.5t94.5 157.5t131 128.5t166 86.5t200.5 31.5q56 0 116 -12.5t105 -26.5l137 39l-130 -954q-5 -41 6.5 -58.5t28.5 -17.5q14 0 35 9t56 37l30 -64q-8 -12 -29.5 -34.5t-54.5 -45 t-76.5 -39t-94.5 -16.5q-70 0 -112 33t-39 102l-8 13q-26 -29 -59 -55.5t-71 -47t-82 -33t-93 -12.5zM499 140q29 0 58 10.5t56 28.5t51 41t45 47l100 750q-22 8 -46.5 11t-50.5 3q-65 0 -117 -27t-92 -73.5t-68 -107.5t-46 -128.5t-26.5 -137.5t-8.5 -134 q0 -134 36.5 -208.5t108.5 -74.5z" unicode="а" horiz-adv-x="1197" glyph-name="afii10065"/>
<glyph d="M497 -16q-112 0 -193.5 42.5t-134.5 116t-78.5 172t-25.5 209.5q0 186 39.5 340t104.5 276t149.5 213t174.5 151t178.5 89.5t163.5 29.5q19 0 36.5 12t29.5 32l56 98h129l-45 -266q-3 -21 -7.5 -35.5t-13.5 -22.5t-23.5 -11.5t-38.5 -3.5q-79 0 -157.5 -12t-152.5 -41.5 t-141 -78.5t-123 -122.5t-98 -175t-66 -234.5q28 70 73 133t105 110.5t134.5 75.5t161.5 28q104 0 174 -31t112.5 -85.5t60.5 -129.5t18 -163q0 -149 -44.5 -279t-124.5 -227.5t-190.5 -153.5t-242.5 -56zM529 102q53 0 96 24t76.5 65t57.5 95t39.5 115t22.5 125t6 124 q-1 82 -13 140.5t-34.5 95.5t-55 54t-73.5 17q-70 0 -130 -45t-103 -116t-67 -158.5t-22 -172.5q1 -84 16 -151.5t41 -114.5t62.5 -72t80.5 -25z" unicode="б" horiz-adv-x="1143" glyph-name="afii10066"/>
<glyph d="M64 450q0 123 30 222.5t80 177t115.5 134.5t137 93.5t144.5 54.5t138 18q88 0 149 -17t99.5 -45t56 -62.5t17.5 -70.5q0 -46 -12.5 -88.5t-43 -81t-82 -71.5t-128.5 -60q76 1 128 -18.5t84 -52t46.5 -74.5t14.5 -85q0 -86 -37 -166t-108 -141.5t-176.5 -98.5t-241.5 -37 q-89 0 -164 31t-130 91t-86 147.5t-31 199.5zM473 673q68 13 121 31.5t89 46t55 65.5t19 89q0 58 -27.5 91.5t-95.5 33.5q-20 0 -47 -9t-56 -28.5t-57.5 -50t-52 -73t-39.5 -97.5t-20 -123zM336 385q0 -62 12 -115t35.5 -91t58 -59.5t80.5 -21.5q47 0 90 19t76 55t52.5 87 t19.5 114q0 42 -8.5 80t-28 66.5t-52 45t-81.5 16.5q-13 0 -26.5 -1t-28.5 -3l-194 -32q-3 -17 -4.5 -38.5t-1.5 -43.5t0.5 -42.5t0.5 -35.5z" unicode="в" horiz-adv-x="1128" glyph-name="afii10067"/>
<glyph d="M17 239q0 77 30.5 134.5t80 103.5t112 84.5t127.5 78.5q52 35 87 66.5t57 63t31.5 65t9.5 71.5q0 43 -30.5 71.5t-85.5 28.5q-45 0 -86.5 -9.5t-74 -22t-54.5 -25t-28 -18.5l-22 125q18 13 50 31.5t76 35t99.5 28.5t121.5 12q157 0 242 -59t85 -165q0 -57 -17 -103.5 t-45 -86t-65 -72t-77 -61t-80.5 -53t-75.5 -47.5q-43 -27 -77.5 -52t-59 -51t-37.5 -56.5t-13 -68.5q0 -30 8.5 -57t27 -47.5t48 -32.5t71.5 -12q43 0 77 7t63 20t55 29.5t55 36.5l31 -117q-29 -30 -72.5 -55t-94.5 -43t-105 -27.5t-104 -9.5q-78 0 -141.5 20.5t-107.5 55.5 t-68 82.5t-24 100.5z" unicode="г" horiz-adv-x="878" glyph-name="afii10068"/>
<glyph d="M72 436q0 132 42 255t121.5 218.5t193.5 152.5t257 57q46 0 83 -9t67 -24q-4 122 -22 209t-52 143t-85 82.5t-121 26.5q-47 0 -102 -13t-123 -59l-70 81q40 34 87.5 58t95.5 39t94 22t84 7q96 0 170 -25.5t129 -71t92 -107.5t59.5 -136t32.5 -157t10 -169 q0 -105 -13.5 -222.5t-44 -232.5t-80.5 -220t-122 -185.5t-168 -128t-220 -47.5q-92 0 -165 33t-124 93t-78.5 144t-27.5 186zM508 104q60 0 107.5 33t83.5 91.5t62 139t42.5 176t25 202.5t9.5 218q-32 21 -69.5 30t-84.5 9q-72 0 -132.5 -44.5t-104 -120t-68 -175 t-24.5 -208.5q0 -85 7.5 -150.5t25.5 -110t47.5 -67.5t72.5 -23z" unicode="д" horiz-adv-x="1154" glyph-name="afii10069"/>
<glyph d="M72 430q1 152 49 285.5t132 233.5t197 157.5t245 57.5q79 0 137 -19.5t96 -53t56.5 -79.5t19.5 -99q1 -80 -30 -144.5t-83 -115t-120 -87t-139 -60t-141 -36t-126 -13.5q-2 -65 8.5 -123t34.5 -102t63 -70t93 -26q50 0 94.5 12.5t84 34t74 50t64.5 60.5l56 -94 q-21 -32 -60.5 -70.5t-96 -73t-129 -57.5t-158.5 -23q-114 0 -194.5 39t-131 103t-73.5 145.5t-22 167.5zM367 573q34 2 75 12t82 29t79.5 45.5t67.5 61.5t46.5 77t16.5 92q-2 74 -28 109t-73 35q-44 0 -80 -22t-64 -58t-49.5 -83.5t-36 -99t-23.5 -103t-13 -95.5z" unicode="е" horiz-adv-x="1067" glyph-name="afii10070"/>
<glyph d="M65 227l102 -103q35 0 75.5 35.5t75.5 101.5t58 160.5t23 213.5q0 82 -12 143t-32 101t-47.5 59.5t-57.5 19.5q-48 0 -87.5 -19.5t-85.5 -65.5l-51 72q14 21 43 55t71 66.5t96 56t118 23.5q69 0 125 -29.5t95.5 -87t61 -141.5t21.5 -192q0 -14 -0.5 -27t-1.5 -26h187 l65 503h268l-65 -503h191q28 100 79 191.5t118.5 160.5t148 110t167.5 41q48 0 78.5 -9t51.5 -26l-82 -212l-101 103q-35 0 -76 -35.5t-76 -101.5t-58 -160.5t-23 -213.5q0 -83 12 -143.5t32.5 -100.5t47.5 -59.5t57 -19.5q24 0 45.5 4.5t42 14.5t41.5 26.5t44 39.5l52 -72 q-14 -21 -43.5 -55t-71.5 -66.5t-96 -56t-118 -23.5q-69 0 -124.5 29.5t-95 87t-61 141.5t-21.5 192q0 25 1.5 50t5.5 51h-183l-68 -531h-267l68 531h-190q-24 -108 -74 -207.5t-119.5 -176t-154 -122t-177.5 -45.5q-48 0 -78.5 9t-51.5 26z" unicode="ж" horiz-adv-x="1943" glyph-name="afii10072"/>
<glyph d="M127 317l117 -150q29 -26 68 -45t94 -19q69 0 119 18t83 51t49 79t16 102q0 40 -11 73.5t-38.5 57.5t-74 37.5t-116.5 13.5l-111 -21l24 133l88 9q74 7 123.5 32t79 60t42 76t12.5 81q0 64 -45.5 101t-143.5 37q-34 0 -62.5 -6.5t-51 -15.5t-38 -20t-22.5 -20l-63 -172 h-150l36 297q49 0 87.5 8.5t80.5 19t94.5 19t131.5 8.5q97 0 173.5 -17t129 -49t80.5 -77t28 -102q0 -56 -23 -104t-61 -87t-86.5 -68t-100.5 -46q128 -5 198 -67t70 -167q0 -96 -46 -169.5t-124 -123t-181.5 -75t-218.5 -25.5q-71 0 -130 8.5t-106 21.5t-82 28t-57 29z" unicode="з" horiz-adv-x="1029" glyph-name="afii10073"/>
<glyph d="M138 244q0 34 3.5 76.5t9.5 88.5t13 94t13 94l52 365l-113 71l16 89l333 41l50 -24l-69 -550q-11 -90 -22.5 -168.5t-11.5 -136.5q0 -43 7.5 -72t22.5 -46t36.5 -24.5t49.5 -7.5q32 0 63.5 10.5t60 28.5t54 41t46.5 48l120 893h268l-127 -945q-10 -76 32 -76 q8 0 16.5 2.5t19.5 8.5t26 17t36 28l29 -65q-7 -12 -29 -36t-57 -48t-80.5 -42t-98.5 -18q-90 0 -127 44t-23 115l-4 6q-26 -31 -59.5 -60.5t-75 -53t-92.5 -38t-112 -14.5q-51 0 -100 13t-88 44t-63 81.5t-25 125.5z" unicode="и" glyph-name="afii10074"/>
<glyph d="M138 244q0 34 3.5 76.5t9.5 88.5t13 94t13 94l52 365l-113 71l16 89l333 41l50 -24l-69 -550q-11 -90 -22.5 -168.5t-11.5 -136.5q0 -43 7.5 -72t22.5 -46t36.5 -24.5t49.5 -7.5q32 0 63.5 10.5t60 28.5t54 41t46.5 48l120 893h268l-127 -945q-10 -76 32 -76 q8 0 16.5 2.5t19.5 8.5t26 17t36 28l29 -65q-7 -12 -29 -36t-57 -48t-80.5 -42t-98.5 -18q-90 0 -127 44t-23 115l-4 6q-26 -31 -59.5 -60.5t-75 -53t-92.5 -38t-112 -14.5q-51 0 -100 13t-88 44t-63 81.5t-25 125.5zM681 1265q-83 0 -152 16.5t-118.5 51.5t-76.5 89.5 t-27 129.5q0 20 1.5 40.5t7.5 42.5h218q17 0 23 -13t6 -33q0 -23 -3.5 -48t-3.5 -47q0 -29 7 -51.5t24 -39t45.5 -25t71.5 -8.5q58 0 92.5 16t53 42t25.5 59.5t12 68.5q2 15 5 29t8.5 25t13 18t19.5 7h186q0 -8 -0.5 -16.5t-1.5 -16.5q-12 -90 -46.5 -153.5t-89.5 -104.5 t-130.5 -60t-169.5 -19z" unicode="й" glyph-name="afii10075"/>
<glyph d="M236 963l-103 59l17 89l316 52l61 -28l-68 -496h157q48 38 86.5 77t77.5 89q21 26 35.5 57t14.5 58q1 13 -3 23t-8.5 20.5t-8.5 23.5t-4 33q0 33 14.5 59t38.5 43t55.5 26t64.5 9q25 0 48.5 -8t41 -23t28 -37t10.5 -50q0 -44 -18 -87t-47.5 -83t-69 -77.5t-82.5 -72 t-87.5 -64.5t-83.5 -56q23 -29 50 -73.5t56 -95.5t59 -102.5t58.5 -94t55 -71.5t48.5 -34l74 -36l-12 -92h-266q-41 0 -75.5 40t-65 100t-58.5 129.5t-56.5 129.5t-58.5 100t-65 40h-17l-73 -539h-267z" unicode="к" horiz-adv-x="1137" glyph-name="afii10076"/>
<glyph d="M33 -16q-9 0 -24 2.5t-30.5 6t-27.5 8t-13 7.5l59 256q4 -3 23.5 -8.5t43.5 -11.5t46 -10t30 -4q11 0 22.5 11.5t22.5 31.5q24 41 47.5 117t45 172t40 204.5t32.5 214.5l-214 44l16 121h912l-121 -936q-5 -44 6.5 -60.5t25.5 -16.5t34.5 10t55.5 36l29 -64 q-11 -17 -38 -40t-63.5 -44t-81 -36t-90.5 -15q-82 0 -127.5 39t-34.5 122l113 872h-298q-4 -32 -11.5 -82.5t-18 -112t-23.5 -131t-27.5 -139t-30 -136t-31 -123t-30.5 -98.5t-29 -63q-20 -30 -41 -56.5t-48.5 -46t-64 -30.5t-86.5 -11z" unicode="л" horiz-adv-x="1170" glyph-name="afii10077"/>
<glyph d="M5 -16q-9 0 -23 2.5t-27.5 6t-24 8t-11.5 7.5l59 262q4 -3 25.5 -8.5t48 -11.5t50.5 -10t32 -4q23 51 45 118.5t41 141t35.5 148.5t30 140.5t23 117.5t15.5 81l-170 42l14 121h512l109 -633l29 -202l75 202l270 633h346l-36 -905q0 -48 8.5 -78.5t25.5 -30.5 q21 0 43.5 13.5t47.5 36.5l34 -75q-6 -9 -32 -30.5t-65.5 -43t-90.5 -38t-106 -16.5q-60 0 -96 29.5t-38 102.5l23 578l21 343l-149 -341l-312 -706h-151l-131 676l-58 314l-63 -348q-18 -96 -35.5 -171t-36.5 -136.5t-39.5 -113.5t-43.5 -101q-15 -33 -33.5 -56t-44 -37.5 t-61 -21t-85.5 -6.5z" unicode="м" horiz-adv-x="1649" glyph-name="afii10078"/>
<glyph d="M233 962l-104 60l17 89l316 52l61 -28l-66 -487h412l66 498h266l-120 -937q-5 -38 4 -57t28 -19q7 0 15 2t18.5 7t24 14t32.5 23l29 -64q-7 -11 -28.5 -33.5t-55 -45t-77.5 -39.5t-96 -17q-43 0 -78 10t-58 28.5t-34 46.5t-6 64l53 389h-413l-70 -518h-267z" unicode="н" horiz-adv-x="1310" glyph-name="afii10079"/>
<glyph d="M65 437q-3 96 15.5 187.5t55 172.5t90 148.5t122 116t150.5 75.5t176 27q206 0 316 -118.5t115 -340.5q2 -96 -16 -188t-54.5 -173t-90.5 -149t-122.5 -116.5t-151 -76t-175.5 -27.5q-207 0 -315 120t-115 342zM536 101q51 0 91.5 26.5t71.5 72t53 106t35 127.5 t18.5 137.5t4.5 136.5q-4 169 -47 246.5t-125 77.5q-51 0 -92 -26t-73 -71t-54.5 -104t-36.5 -125.5t-20 -135.5t-4 -134q4 -170 46.5 -252t131.5 -82z" unicode="о" horiz-adv-x="1170" glyph-name="afii10080"/>
<glyph d="M236 963l-103 59l17 89l316 52l50 -24l-17 -207q36 50 80 92.5t93.5 73t104 48t111.5 17.5q55 0 100.5 -15.5t78.5 -51t51 -93.5t18 -142q0 -29 -5 -72.5t-12.5 -92.5t-16.5 -99t-16 -92q-6 -38 -13.5 -79t-13.5 -81t-10.5 -77.5t-5.5 -70.5q-1 -36 7.5 -50t23.5 -14 t34 9.5t55 36.5l29 -64q-7 -10 -28.5 -32.5t-56 -45.5t-80.5 -40.5t-102 -17.5q-51 0 -84 12t-52 33t-26 49t-6 60q1 27 5.5 63.5t11 77t14.5 84t16 85.5q7 42 16 91.5t16.5 101.5t12.5 103.5t5 96.5q0 47 -6.5 76t-18 44.5t-29 21t-40.5 5.5q-33 0 -70.5 -18.5t-75.5 -50.5 t-73.5 -75.5t-65.5 -93.5l-102 -745h-267z" unicode="п" horiz-adv-x="1284" glyph-name="afii10081"/>
<glyph d="M278 -520h-262l201 1491l-108 55l17 85l327 52l50 -24l-12 -104q24 25 53.5 48t65.5 41t77.5 28.5t89.5 10.5q87 0 151.5 -30.5t107.5 -87t64.5 -136.5t21.5 -179q0 -92 -20.5 -184t-60 -175t-96.5 -154.5t-130 -124t-161.5 -82.5t-189.5 -30q-29 0 -57.5 3.5t-57.5 8.5z M369 133q26 -12 55.5 -17t67.5 -5q62 0 111.5 26t88 71t66.5 105t45.5 128t26 140.5t8.5 141.5q0 61 -10 112.5t-29.5 88.5t-48 57.5t-66.5 20.5q-34 0 -64.5 -11.5t-57 -30t-49.5 -42.5t-41 -49z" unicode="р" horiz-adv-x="1195" glyph-name="afii10082"/>
<glyph d="M442 -20q-87 0 -156 30t-117 88.5t-74.5 144.5t-27.5 198q-1 81 16 166t51 165.5t85.5 151.5t121 124t156 84t191.5 31q29 0 61 -3t64 -8t61.5 -13t53.5 -18l-72 -266q-1 1 -8.5 2t-16.5 2t-16.5 1.5t-8.5 1.5q-19 22 -42 48t-47 48.5t-47 37t-43 14.5q-56 0 -107 -38.5 t-89.5 -109.5t-60.5 -173t-20 -229q1 -83 14 -142.5t36.5 -97.5t58 -55.5t79.5 -17.5q43 0 78 8.5t66 24.5t59 38.5t57 49.5l53 -93q-20 -28 -55.5 -62t-87.5 -63.5t-118.5 -49.5t-147.5 -20z" unicode="с" horiz-adv-x="925" glyph-name="afii10083"/>
<glyph d="M236 962l-104 60l18 89l315 52l50 -24l-17 -210q35 49 78 92t92 74.5t102.5 49.5t109.5 18q51 0 94 -12.5t75 -41.5t52.5 -75.5t27.5 -114.5q35 54 79 98.5t94.5 77t107 50.5t116.5 18q54 0 99 -16.5t78 -52.5t51.5 -93.5t18.5 -139.5q0 -29 -4.5 -72t-11.5 -91.5 t-15.5 -99t-15.5 -93.5q-6 -39 -13 -79t-13 -80t-10.5 -77.5t-5.5 -70.5q-2 -36 7 -50.5t23 -14.5q17 0 37.5 11t61.5 44l29 -64q-8 -11 -30 -35t-57 -48.5t-82 -43t-105 -18.5q-51 0 -83.5 12t-51 33t-25.5 48.5t-6 59.5q1 28 5 64.5t10 77.5t13.5 85t15.5 87q7 41 15 90.5 t15 101t11.5 102.5t4.5 96q0 47 -6.5 75.5t-18.5 44.5t-28 21t-36 5q-32 0 -68 -16t-72 -45t-70.5 -68.5t-63.5 -86.5q-5 -64 -12.5 -132.5t-15.5 -128.5l-62 -505h-274l57 443q6 42 12.5 91.5t11.5 101t8 102t3 95.5q-1 50 -7.5 80t-18.5 45.5t-30.5 20t-43.5 4.5 q-31 0 -68 -17.5t-74.5 -48.5t-73.5 -72.5t-66 -89.5l-103 -755h-267z" unicode="т" horiz-adv-x="1925" glyph-name="afii10084"/>
<glyph d="M-34 -293q10 -8 28 -16.5t41.5 -16t51.5 -12.5t58 -5q40 0 83 14.5t87 47.5t88 86.5t87 131.5h-154l-197 1007q-7 31 -16.5 43.5t-25.5 12.5q-12 0 -26.5 -4.5t-37.5 -23.5l-29 70q7 10 28.5 30t54 40t73.5 35.5t86 15.5q41 0 70 -9.5t48.5 -27t30 -43t15.5 -57.5 q6 -37 14.5 -97.5t19 -133t21 -151t20.5 -150.5t18.5 -132.5t14.5 -97.5l25 -230l104 213q33 75 64.5 147t56 143.5t39 142.5t14.5 145q0 37 -7 62.5t-15.5 48t-15.5 46.5t-7 58q0 57 34 90t97 33q40 0 70 -16t49.5 -43t29.5 -63t10 -77q0 -83 -17 -159t-44 -149.5t-62 -145 t-71 -143.5q-48 -99 -100.5 -195.5t-102.5 -181.5t-95 -154t-76 -114q-76 -121 -177 -177.5t-226 -56.5q-24 0 -53 3.5t-56 8.5t-49.5 12t-34.5 13l64 182v0z" unicode="у" horiz-adv-x="1078" glyph-name="afii10085"/>
<glyph d="M408 -20q-90 0 -154 33t-105 90.5t-60 135.5t-19 167q0 88 18 178.5t53.5 174.5t89.5 157.5t125 128.5t159.5 86.5t194.5 31.5q31 0 60 -6t55 -14l48 339l-128 43l21 83l332 42h1l50 -27l-77 -537q43 32 102 54.5t134 22.5q90 0 155 -33t106.5 -91t61 -135.5t19.5 -167.5 q0 -88 -18 -178.5t-53.5 -174.5t-88.5 -157.5t-123.5 -128t-159 -86t-193.5 -31.5q-26 0 -50.5 4t-47.5 10l-40 -284q-5 -38 3.5 -57t27.5 -19q8 0 16.5 2t20 8t26.5 17t36 28l29 -64q-7 -11 -28.5 -35t-55.5 -48t-79 -42.5t-99 -18.5q-36 0 -68 7.5t-55 23.5t-36.5 41.5 t-11.5 61.5q0 2 4.5 35t13.5 92.5t21.5 143t27.5 186.5q-44 -37 -109 -64.5t-152 -27.5zM501 134q30 0 57.5 8t51.5 21t45 29.5t37 33.5q25 165 53.5 362t60.5 419q-26 17 -57 23.5t-66 6.5q-61 0 -109.5 -28t-85 -75.5t-63 -109.5t-43 -131t-24 -139.5t-7.5 -134.5 q0 -134 40 -209.5t110 -75.5zM935 125q24 -11 50.5 -15t55.5 -4q60 0 108 28t84.5 75t62 109.5t42 131t24 139.5t7.5 135q0 133 -41.5 208.5t-113.5 75.5q-48 0 -89.5 -21t-73.5 -49z" unicode="ф" horiz-adv-x="1722" glyph-name="afii10086"/>
<glyph d="M386 579l-175 355q-14 29 -30.5 50t-37.5 21q-25 0 -42 -7.5t-34 -21.5l-38 71q6 9 27 28t54.5 38.5t78.5 34.5t99 15q75 0 115 -27t57 -78l97 -302l255 399h264l-445 -577l171 -337q7 -14 16 -30.5t19.5 -30t21 -22.5t21.5 -9q7 0 16 1.5t21 7t27.5 15t35.5 26.5l41 -70 q-6 -11 -29 -35.5t-60.5 -49.5t-88.5 -44.5t-113 -19.5q-36 0 -62 7.5t-44.5 21.5t-30.5 33t-21 43l-110 316l-253 -401h-274z" unicode="х" horiz-adv-x="1020" glyph-name="afii10087"/>
<glyph d="M138 244q0 34 3.5 76.5t9.5 88.5t13 94t13 94l52 365l-113 71l16 89l333 41l50 -24l-69 -550q-11 -90 -22.5 -168.5t-11.5 -136.5q0 -43 7.5 -72t22.5 -46t36.5 -24.5t49.5 -7.5q32 0 63.5 10.5t60 28.5t54 41t46.5 48l120 893h268l-127 -945q-10 -76 32 -76 q8 0 16.5 2.5t19.5 8.5t26 17t36 28l29 -65q-5 -8 -17.5 -23t-32 -32t-45 -34.5t-55.5 -30.5q-15 -8 -30.5 -17.5t-28 -21.5t-20.5 -26t-8 -32t7.5 -36.5t16.5 -39t16.5 -45t7.5 -54.5q0 -40 -26 -80.5t-66 -76t-88 -61.5t-92 -37l-65 74q19 7 39 22.5t37 35t28 42t11 45.5 q0 20 -4.5 35t-10 30.5t-10 35t-4.5 47.5q0 48 30.5 83.5t75.5 61.5q-52 15 -72 54.5t-9 95.5l-4 6q-26 -31 -59.5 -60.5t-75 -53t-92.5 -38t-112 -14.5q-51 0 -100 13t-88 44t-63 81.5t-25 125.5z" unicode="ц" glyph-name="afii10088"/>
<glyph d="M412 359q-87 0 -146 19.5t-91 67.5t-39.5 129t9.5 204l24 181l-119 73l17 89l332 41l54 -24l-48 -385q-8 -66 -8 -110.5t14.5 -71t46 -37.5t85.5 -11q68 0 116.5 11t81.5 30l1 -1l74 582h264l-114 -937q-5 -36 4.5 -56t29.5 -20q13 0 34 9t56 37l29 -64q-10 -17 -34 -40 t-58.5 -44t-76.5 -36t-88 -15q-47 0 -81.5 12.5t-56.5 34.5t-31 52.5t-4 66.5l37 290q-75 -35 -153 -56t-161 -21z" unicode="ч" horiz-adv-x="1194" glyph-name="afii10089"/>
<glyph d="M139 244q0 34 3.5 80t9.5 95t13 95.5t12 82.5l52 365l-113 71l16 89l333 41l50 -24l-69 -550q-5 -36 -10.5 -77.5t-11 -82.5t-9 -78.5t-3.5 -66.5q0 -43 7.5 -72t22.5 -46t36.5 -24.5t49.5 -7.5q35 0 69.5 12.5t65 33t57 47t46.5 54.5q-2 20 -3.5 40t1.5 39l108 795h268 l-83 -610q-12 -91 -20 -154.5t-8 -106.5t7.5 -72t22.5 -46t36.5 -24.5t49.5 -7.5q33 0 65 11t61.5 29.5t55 42.5t46.5 50l119 888h268l-127 -945q-10 -76 32 -76q8 0 16.5 2.5t19.5 8.5t26 17t36 28l29 -65q-7 -12 -29 -36t-57 -48t-80.5 -42t-98.5 -18q-90 0 -127 44 t-23 115l-5 10q-28 -31 -63 -61.5t-78.5 -54.5t-96 -39t-115.5 -15q-120 0 -180.5 49t-64.5 143q-26 -33 -60 -67t-78 -62t-99 -45.5t-123 -17.5q-51 0 -100 13t-88 44t-63 81.5t-24 125.5z" unicode="ш" horiz-adv-x="1870" glyph-name="afii10090"/>
<glyph d="M139 244q0 34 3.5 80t9.5 95t13 95.5t12 82.5l52 365l-113 71l16 89l333 41l50 -24l-69 -550q-5 -36 -10.5 -77.5t-11 -82.5t-9 -78.5t-3.5 -66.5q0 -43 7.5 -72t22.5 -46t36.5 -24.5t49.5 -7.5q35 0 69.5 12.5t65 33t57 47t46.5 54.5q-2 20 -3.5 40t1.5 39l108 795h268 l-83 -610q-12 -91 -20 -154.5t-8 -106.5t7.5 -72t22.5 -46t36.5 -24.5t49.5 -7.5q33 0 65 11t61.5 29.5t55 42.5t46.5 50l119 888h268l-127 -945q-10 -76 32 -76q8 0 16.5 2.5t19.5 8.5t26 17t36 28l29 -65q-5 -8 -17 -22.5t-30.5 -31t-43 -34t-54.5 -30.5q-16 -8 -32 -18 t-29 -22t-21.5 -26.5t-8.5 -32.5t7.5 -36.5t16 -39t16 -45t7.5 -54.5q0 -40 -26 -80.5t-66 -76t-88 -61.5t-92 -37l-64 74q19 7 39 22.5t37 35t28 42t11 45.5q0 20 -4.5 35t-10.5 30.5t-10.5 35t-4.5 47.5q0 24 8.5 45.5t23.5 39.5t34.5 33t40.5 27q-53 15 -73 54t-9 96 l-5 10q-28 -31 -63 -61.5t-78.5 -54.5t-96 -39t-115.5 -15q-120 0 -180.5 49t-64.5 143q-26 -33 -60 -67t-78 -62t-99 -45.5t-123 -17.5q-51 0 -100 13t-88 44t-63 81.5t-24 125.5z" unicode="щ" horiz-adv-x="1868" glyph-name="afii10091"/>
<glyph d="M55 771q-2 23 -2.5 57t1.5 72t6.5 77t13.5 72.5t22 58t32 34.5q13 7 38 14t63 7q58 0 126.5 -5.5t137 -12t131.5 -12t109 -5.5q32 0 70.5 9.5t66.5 25.5q6 4 18.5 -2.5t23 -17t17 -23t0.5 -20.5q-104 -120 -182.5 -231.5t-122.5 -229.5q26 28 59.5 53.5t73 45.5t85.5 32 t96 12q59 0 109 -16.5t86.5 -53.5t57 -97.5t20.5 -148.5q0 -64 -18.5 -125.5t-53 -115.5t-83 -99.5t-108.5 -78.5t-129 -51.5t-145 -18.5q-78 0 -146.5 23.5t-119 70t-79.5 115t-29 159.5q0 175 76.5 328t215.5 284h-281q-23 0 -43.5 -9t-38.5 -23.5t-33 -31.5t-27 -32 q-31 -39 -37 -90h-77zM798 616q-42 0 -101 -28.5t-112 -85.5q-12 -69 -12 -144q0 -52 8 -99t23.5 -82.5t38.5 -56.5t53 -21q62 0 109.5 27t79 72t47.5 104t16 124q0 36 -6.5 70t-23.5 60.5t-46 43t-74 16.5z" unicode="ъ" horiz-adv-x="1285" glyph-name="afii10092"/>
<glyph d="M1253 1155h270l-126 -945q-11 -76 32 -76q14 0 36.5 11t61.5 45l29 -65q-11 -17 -35.5 -42t-60 -47.5t-78.5 -38.5t-91 -16t-82 14t-54 38.5t-27.5 56.5t-2.5 68zM483 -23q-91 0 -166.5 30t-124.5 92t-65.5 158.5t10.5 229.5l79 476l-103 59l17 89l316 52l53 -24 l-73 -499q23 24 54.5 49t71 45.5t86 34t99.5 13.5q60 0 111 -17.5t87.5 -55.5t57 -100t20.5 -150q0 -93 -40 -180t-111 -154t-168 -107.5t-211 -40.5zM504 99q62 0 107 30t73.5 77t42 105.5t13.5 114.5q0 36 -5.5 70t-21.5 60.5t-44.5 43t-73.5 16.5q-18 0 -40 -5.5 t-46.5 -16t-50 -26.5t-48.5 -37l-21 -147q-13 -74 -9 -128t20.5 -89t43.5 -51.5t60 -16.5z" unicode="ы" horiz-adv-x="1632" glyph-name="afii10093"/>
<glyph d="M490 -23q-91 0 -166.5 30t-124.5 92t-65.5 158.5t10.5 229.5l79 476l-103 59l17 89l316 52l53 -24l-73 -499q23 24 54.5 49t71 45.5t86 34t99.5 13.5q60 0 111 -17.5t87.5 -55.5t57 -100t20.5 -150q0 -93 -40 -180t-111 -154t-168 -107.5t-211 -40.5zM511 99q62 0 107 30 t73.5 77t42 105.5t13.5 114.5q0 36 -5.5 70t-21.5 60.5t-44.5 43t-73.5 16.5q-18 0 -40 -5.5t-46.5 -16t-50 -26.5t-48.5 -37l-21 -147q-13 -74 -9 -128t20.5 -89t43.5 -51.5t60 -16.5z" unicode="ь" horiz-adv-x="1099" glyph-name="afii10094"/>
<glyph d="M59 336h118q7 -16 13.5 -45.5t13.5 -61t15 -59t17 -39.5q26 -17 59.5 -27t72.5 -10q68 0 122.5 34t95.5 93.5t68.5 139t40.5 170.5q-64 -8 -127.5 -13.5t-121.5 -9.5t-108 -6.5t-86 -4.5l-34 173h489q1 9 1 18v18q0 98 -19.5 165.5t-52.5 109.5t-76 61t-90 19 q-51 0 -86.5 -13t-66.5 -39l-67 -146h-145l32 260q22 7 66 16t97.5 16.5t109 12.5t99.5 5q114 0 203.5 -31t151.5 -92t94.5 -152t32.5 -212q0 -153 -46.5 -282.5t-130 -224.5t-200 -148.5t-256.5 -53.5q-59 0 -111 8.5t-95.5 21.5t-78.5 29.5t-60 32.5z" unicode="э" horiz-adv-x="1036" glyph-name="afii10095"/>
<glyph d="M233 962l-104 60l17 89l316 52l61 -25l-67 -491h187q25 109 77 203.5t128 164t173 109.5t211 40q206 0 316 -118.5t115 -340.5q2 -96 -16 -188t-54.5 -173t-90.5 -149t-122.5 -116.5t-151 -76t-175.5 -27.5q-207 0 -315 120t-115 342q-1 20 -0.5 40t1.5 40h-185l-70 -517 h-267zM916 435q4 -170 46.5 -252t131.5 -82q51 0 91.5 26.5t71.5 72t53 106t35 127.5t18.5 137.5t4.5 136.5q-4 169 -47 246.5t-125 77.5q-51 0 -92 -26t-73 -71t-54.5 -104t-36.5 -125.5t-20 -135.5t-4 -134z" unicode="ю" horiz-adv-x="1732" glyph-name="afii10096"/>
<glyph d="M-17 100l68 27q22 4 42 26t41 55.5t43 74t48 80t56.5 75t68.5 59.5q-116 29 -171.5 100.5t-55.5 180.5q0 97 36 168t105 117.5t168 69.5t225 23q43 0 85 -1.5t81 -3.5t72.5 -3.5t58.5 -1.5h131l-60 -480q-11 -90 -22 -176.5t-19 -155t-13 -111t-5 -43.5q0 -22 10 -34 t23 -12q16 0 40 13.5t58 42.5l30 -65q-6 -11 -30 -35t-61 -48t-84.5 -42.5t-101.5 -18.5q-42 0 -71.5 11t-47.5 29.5t-26.5 43t-8.5 52.5q0 2 1.5 18.5t4.5 42.5t7 58t8 65q9 77 21 175l-175 1q-30 -28 -55 -74t-47 -99t-42.5 -107.5t-41 -98t-43 -71t-48.5 -27.5h-315z M636 600h27.5h35.5t33 1t22 3l54 426q-15 2 -51.5 4t-99.5 2q-58 0 -106 -10.5t-82.5 -37.5t-54 -74.5t-19.5 -122.5q0 -94 57.5 -142.5t183.5 -48.5z" unicode="я" horiz-adv-x="1199" glyph-name="afii10097"/>
<glyph d="M72 430q1 152 49 285.5t132 233.5t197 157.5t245 57.5q79 0 137 -19.5t96 -53t56.5 -79.5t19.5 -99q1 -80 -30 -144.5t-83 -115t-120 -87t-139 -60t-141 -36t-126 -13.5q-2 -65 8.5 -123t34.5 -102t63 -70t93 -26q50 0 94.5 12.5t84 34t74 50t64.5 60.5l56 -94 q-21 -32 -60.5 -70.5t-96 -73t-129 -57.5t-158.5 -23q-114 0 -194.5 39t-131 103t-73.5 145.5t-22 167.5zM367 573q34 2 75 12t82 29t79.5 45.5t67.5 61.5t46.5 77t16.5 92q-2 74 -28 109t-73 35q-44 0 -80 -22t-64 -58t-49.5 -83.5t-36 -99t-23.5 -103t-13 -95.5zM611 1245 q-21 9 -53 29t-69 48t-76 61t-74.5 67.5t-64.5 67.5t-45 61l181 164l288 -432l-87 -66v0z" unicode="ѐ" horiz-adv-x="1067" glyph-name="uni0450"/>
<glyph d="M869 1360q-27 0 -51 12t-42 32t-28 46t-10 54q0 36 12 67.5t33.5 55.5t51.5 38t66 14q32 0 57.5 -11.5t43.5 -31t27 -44.5t9 -52q0 -36 -11.5 -69t-33 -57.5t-53 -39t-71.5 -14.5zM431 1360q-27 0 -51 12t-42 32t-28 46t-10 54q0 36 12 67.5t33.5 55.5t51.5 38t66 14 q32 0 57.5 -11.5t43.5 -31t27.5 -44.5t8.5 -52q0 -36 -11.5 -69t-33 -57.5t-53 -39t-71.5 -14.5zM72 430q1 152 49 285.5t132 233.5t197 157.5t245 57.5q79 0 137 -19.5t96 -53t56.5 -79.5t19.5 -99q1 -80 -30 -144.5t-83 -115t-120 -87t-139 -60t-141 -36t-126 -13.5 q-2 -65 8.5 -123t34.5 -102t63 -70t93 -26q50 0 94.5 12.5t84 34t74 50t64.5 60.5l56 -94q-21 -32 -60.5 -70.5t-96 -73t-129 -57.5t-158.5 -23q-114 0 -194.5 39t-131 103t-73.5 145.5t-22 167.5zM367 573q34 2 75 12t82 29t79.5 45.5t67.5 61.5t46.5 77t16.5 92 q-2 74 -28 109t-73 35q-44 0 -80 -22t-64 -58t-49.5 -83.5t-36 -99t-23.5 -103t-13 -95.5z" unicode="ё" horiz-adv-x="1067" glyph-name="afii10071"/>
<glyph d="M253 1291h-160l14 108h159l11 83l-123 43l17 83l346 42l53 -27l-29 -224h274l-14 -108h-273l-48 -376q36 53 80 98.5t94 78.5t106 52t116 19q57 0 103 -17t78.5 -52t49.5 -90t17 -130q0 -8 -4.5 -47.5t-11.5 -98t-16 -131.5t-19 -149t-19.5 -149.5t-17.5 -133.5 t-13.5 -101.5t-7.5 -53.5q-18 -129 -60.5 -227.5t-103 -164.5t-136.5 -99.5t-161 -33.5q-43 0 -81.5 5.5t-52.5 18.5l22 112q20 -2 43 -2t45 5q59 7 97 48t62.5 102t39 135.5t25.5 147.5q2 11 7 48t11.5 90t14 118t15.5 133t15.5 133.5t13 119.5t8.5 92.5t3 52.5 q0 39 -5.5 66t-17 43t-29 23t-42.5 7q-34 0 -72.5 -19.5t-77 -53t-75 -78.5t-66.5 -97l-93 -735h-272z" unicode="ђ" horiz-adv-x="1243" glyph-name="afii10099"/>
<glyph d="M423 1312l317 431l170 -165q-9 -17 -34 -45.5t-60 -62t-76 -69.5t-83 -68t-80.5 -57t-68.5 -36zM17 239q0 77 30.5 134.5t80 103.5t112 84.5t127.5 78.5q52 35 87 66.5t57 63t31.5 65t9.5 71.5q0 43 -30.5 71.5t-85.5 28.5q-45 0 -86.5 -9.5t-74 -22t-54.5 -25t-28 -18.5 l-22 125q18 13 50 31.5t76 35t99.5 28.5t121.5 12q157 0 242 -59t85 -165q0 -57 -17 -103.5t-45 -86t-65 -72t-77 -61t-80.5 -53t-75.5 -47.5q-43 -27 -77.5 -52t-59 -51t-37.5 -56.5t-13 -68.5q0 -30 8.5 -57t27 -47.5t48 -32.5t71.5 -12q43 0 77 7t63 20t55 29.5t55 36.5 l31 -117q-29 -30 -72.5 -55t-94.5 -43t-105 -27.5t-104 -9.5q-78 0 -141.5 20.5t-107.5 55.5t-68 82.5t-24 100.5z" unicode="ѓ" horiz-adv-x="878" glyph-name="afii10100"/>
<glyph d="M67 459q0 144 44.5 273.5t128 227.5t203.5 155.5t272 57.5q51 0 99 -6t90.5 -15t77 -20.5t57.5 -21.5l-49 -295h-113l-66 199q-6 6 -15.5 13.5t-24 14t-34 11.5t-46.5 5q-66 0 -119.5 -29.5t-93.5 -81t-67 -122.5t-41 -155h481l-34 -181q-39 2 -91 6.5t-112.5 10.5 t-126 14t-131.5 18q-2 -18 -2 -36v-36q0 -97 17.5 -167.5t48.5 -116.5t71.5 -68.5t87.5 -22.5q48 0 89 12t77 34l59 151h149l-28 -232q-25 -13 -69 -27t-97 -25.5t-110 -19t-109 -7.5q-238 0 -355.5 124.5t-117.5 357.5z" unicode="є" horiz-adv-x="1034" glyph-name="afii10101"/>
<glyph d="M62 224q16 -14 43 -31t62 -32t76 -25t86 -10q29 0 60.5 5.5t57 20.5t42 41.5t16.5 67.5q0 35 -14 65t-38 57.5t-57 54t-71 53.5q-31 22 -66 53.5t-65 73.5t-49.5 94t-19.5 116q0 75 32.5 136.5t90 106t137 68.5t172.5 24q40 0 81 -3.5t76 -9t61.5 -12t39.5 -12.5 l-41 -189q-7 9 -25 24t-46 29.5t-64 25t-79 10.5q-32 0 -61.5 -6.5t-53.5 -21.5t-39 -39t-17 -58q-2 -35 9 -65t33.5 -58t55 -55.5t72.5 -57.5q41 -31 79 -64.5t67.5 -73.5t47.5 -89t18 -112q0 -87 -36.5 -151.5t-97.5 -108t-141.5 -65t-167.5 -21.5q-47 0 -96 6t-91.5 15.5 t-75 21t-46.5 22.5z" unicode="ѕ" horiz-adv-x="871" glyph-name="afii10102"/>
<glyph d="M133 122q7 60 19 145.5t27.5 193t33.5 235.5t38 272l-129 58l16 85l357 52l53 -24l-133 -930q-11 -76 29 -76q17 0 39 12t60 44l29 -65q-8 -11 -30.5 -35t-57.5 -48t-81.5 -42.5t-103.5 -18.5q-87 0 -130.5 36.5t-35.5 105.5zM431 1360q-29 0 -54.5 12t-45 32t-30.5 46 t-11 54q1 36 14.5 68t36.5 55.5t54.5 37.5t68.5 14q35 0 62.5 -11.5t47 -31t29.5 -44.5t10 -52q-1 -36 -13 -69t-35.5 -57.5t-57 -39t-76.5 -14.5z" unicode="і" horiz-adv-x="658" glyph-name="afii10103"/>
<glyph d="M661 1360q-27 0 -51 12t-42 32t-28 46t-10 54q0 36 12 67.5t33.5 55.5t51.5 38t66 14q32 0 57.5 -11.5t43.5 -31t27 -44.5t9 -52q0 -36 -11.5 -69t-33 -57.5t-53 -39t-71.5 -14.5zM223 1360q-27 0 -51 12t-42 32t-28 46t-10 54q0 36 12 67.5t33.5 55.5t51.5 38t66 14 q32 0 57.5 -11.5t43.5 -31t27.5 -44.5t8.5 -52q0 -36 -11.5 -69t-33 -57.5t-53 -39t-71.5 -14.5zM133 122q7 60 19 145.5t27.5 193t33.5 235.5t38 272l-129 58l16 85l357 52l53 -24l-133 -930q-11 -76 29 -76q17 0 39 12t60 44l29 -65q-8 -11 -30.5 -35t-57.5 -48 t-81.5 -42.5t-103.5 -18.5q-87 0 -130.5 36.5t-35.5 105.5z" unicode="ї" horiz-adv-x="658" glyph-name="afii10104"/>
<glyph d="M250 980l-161 51l19 81l390 51l50 -24l-134 -1139q-16 -129 -60.5 -227t-109.5 -164t-146 -99.5t-171 -33.5q-55 0 -97 9.5t-61 27.5l37 104q7 -3 17.5 -5t21.5 -3.5t20 -2.5t13 -1q72 0 119.5 38.5t77.5 102.5t46.5 147t26.5 172zM430 1360q-29 0 -54.5 12t-45 32 t-30.5 46t-11 54q1 36 14.5 68t36.5 55.5t54.5 37.5t68.5 14q35 0 62.5 -11.5t47 -31t29.5 -44.5t10 -52q-1 -36 -13 -69t-35.5 -57.5t-57 -39t-76.5 -14.5z" unicode="ј" horiz-adv-x="650" glyph-name="afii10105"/>
<glyph d="M33 -16q-9 0 -24 2.5t-30.5 6t-27.5 8t-13 7.5l59 256q4 -3 23.5 -8.5t43.5 -11.5t46 -10t30 -4q26 0 54 58q23 46 45 121.5t42.5 168.5t37.5 197t31 206l-214 44l16 121h912l-67 -512q23 24 55.5 50t73.5 48t89.5 36t102.5 14q60 0 110 -19t86 -59t56 -102t20 -147 q0 -92 -39.5 -178t-110 -152.5t-167 -107t-210.5 -40.5q-86 0 -158 29t-121.5 88.5t-71.5 149t-7 210.5l67 559h-298l-14 -116q-8 -69 -20 -145t-27 -152.5t-31.5 -149t-34.5 -135t-37 -111t-37 -76.5q-20 -30 -41 -56.5t-48.5 -46t-64 -30.5t-86.5 -11zM966 394 q-20 -146 11.5 -220.5t107.5 -74.5q62 0 107 30t73.5 77t42 105.5t13.5 114.5q0 36 -5.5 70t-21.5 60.5t-44.5 43t-73.5 16.5q-18 0 -41.5 -5.5t-49 -17t-52 -28t-50.5 -38.5z" unicode="љ" horiz-adv-x="1662" glyph-name="afii10106"/>
<glyph d="M233 962l-104 60l17 89l316 52l61 -25l-67 -490h424l62 498h258l-61 -517q22 24 55 51t74.5 49.5t91 37.5t105.5 15q60 0 110 -19t86 -59t55.5 -102t19.5 -147q0 -92 -39.5 -178t-110 -152.5t-166.5 -107t-210 -40.5q-86 0 -159.5 29.5t-123.5 89t-70.5 149t-0.5 209.5 l8 64h-425l-70 -518h-267zM1112 394q-23 -146 10 -220.5t110 -74.5q62 0 107 30t73.5 77t42 105.5t13.5 114.5q0 36 -6 70t-21.5 60.5t-44 43t-73.5 16.5q-18 0 -42 -6t-50 -17t-53 -28.5t-51 -39.5z" unicode="њ" horiz-adv-x="1789" glyph-name="afii10107"/>
<glyph d="M250 1269h-123l11 108h126l13 105l-123 43l17 83l346 42l53 -27l-32 -246h205l-11 -108h-207l-45 -354q36 53 80 98.5t94 78.5t106 52t116 19q55 0 100.5 -15.5t78.5 -51t51 -93.5t18 -142q0 -29 -5 -72.5t-12.5 -92.5t-16 -99t-16.5 -92q-6 -38 -13.5 -79t-13.5 -81 t-10.5 -77.5t-5.5 -70.5q-1 -36 7.5 -50t23.5 -14q17 0 37.5 10t59.5 40l30 -63q-7 -11 -29.5 -34.5t-58 -47t-83 -41.5t-105.5 -18q-51 0 -84 11t-52 31.5t-26 48.5t-6 63q1 27 5.5 63.5t11 77t14.5 84t16 85.5t17 91.5t16.5 101.5t12 103.5t4.5 96.5q0 47 -7 76 t-19.5 44.5t-29.5 21t-38 5.5q-34 0 -72.5 -19.5t-77 -53t-75 -79t-66.5 -96.5l-93 -735h-272z" unicode="ћ" horiz-adv-x="1271" glyph-name="afii10108"/>
<glyph d="M583 1312l317 431l170 -165q-9 -17 -34 -45.5t-60 -62t-76 -69.5t-83 -68t-80.5 -57t-68.5 -36zM236 963l-103 59l17 89l316 52l61 -28l-68 -496h157q48 38 86.5 77t77.5 89q21 26 35.5 57t14.5 58q1 13 -3 23t-8.5 20.5t-8.5 23.5t-4 33q0 33 14.5 59t38.5 43t55.5 26 t64.5 9q25 0 48.5 -8t41 -23t28 -37t10.5 -50q0 -44 -18 -87t-47.5 -83t-69 -77.5t-82.5 -72t-87.5 -64.5t-83.5 -56q23 -29 50 -73.5t56 -95.5t59 -102.5t58.5 -94t55 -71.5t48.5 -34l74 -36l-12 -92h-266q-41 0 -75.5 40t-65 100t-58.5 129.5t-56.5 129.5t-58.5 100 t-65 40h-17l-73 -539h-267z" unicode="ќ" horiz-adv-x="1137" glyph-name="afii10109"/>
<glyph d="M138 244q0 34 3.5 76.5t9.5 88.5t13 94t13 94l52 365l-113 71l16 89l333 41l50 -24l-69 -550q-11 -90 -22.5 -168.5t-11.5 -136.5q0 -43 7.5 -72t22.5 -46t36.5 -24.5t49.5 -7.5q32 0 63.5 10.5t60 28.5t54 41t46.5 48l120 893h268l-127 -945q-10 -76 32 -76 q8 0 16.5 2.5t19.5 8.5t26 17t36 28l29 -65q-7 -12 -29 -36t-57 -48t-80.5 -42t-98.5 -18q-90 0 -127 44t-23 115l-4 6q-26 -31 -59.5 -60.5t-75 -53t-92.5 -38t-112 -14.5q-51 0 -100 13t-88 44t-63 81.5t-25 125.5zM674 1245q-21 9 -53 29t-69 48t-76 61t-74.5 67.5 t-64.5 67.5t-45 61l181 164l288 -432l-87 -66v0z" unicode="ѝ" glyph-name="uni045D"/>
<glyph d="M-34 -293q10 -8 28 -16.5t41.5 -16t51.5 -12.5t58 -5q40 0 83 14.5t87 47.5t88 86.5t87 131.5h-154l-197 1007q-7 31 -16.5 43.5t-25.5 12.5q-12 0 -26.5 -4.5t-37.5 -23.5l-29 70q7 10 28.5 30t54 40t73.5 35.5t86 15.5q41 0 70 -9.5t48.5 -27t30 -43t15.5 -57.5 q6 -37 14.5 -97.5t19 -133t21 -151t20.5 -150.5t18.5 -132.5t14.5 -97.5l25 -230l104 213q33 75 64.5 147t56 143.5t39 142.5t14.5 145q0 37 -7 62.5t-15.5 48t-15.5 46.5t-7 58q0 57 34 90t97 33q40 0 70 -16t49.5 -43t29.5 -63t10 -77q0 -83 -17 -159t-44 -149.5t-62 -145 t-71 -143.5q-48 -99 -100.5 -195.5t-102.5 -181.5t-95 -154t-76 -114q-76 -121 -177 -177.5t-226 -56.5q-24 0 -53 3.5t-56 8.5t-49.5 12t-34.5 13l64 182v0zM593 1265q-83 0 -152 16.5t-118.5 51.5t-76.5 89.5t-27 129.5q0 20 1.5 40.5t7.5 42.5h218q17 0 23 -13t6 -33 q0 -23 -3.5 -48t-3.5 -47q0 -29 7 -51.5t24 -39t45.5 -25t71.5 -8.5q58 0 92.5 16t53 42t25.5 59.5t12 68.5q2 15 5 29t8.5 25t13 18t19.5 7h186q0 -8 -0.5 -16.5t-1.5 -16.5q-12 -90 -46.5 -153.5t-89.5 -104.5t-130.5 -60t-169.5 -19z" unicode="ў" horiz-adv-x="1078" glyph-name="afii10110"/>
<glyph d="M476 -218q0 42 24 76.5t57 59.5t68.5 39.5t59.5 17.5l46 -45q-29 -17 -42.5 -40t-13.5 -64q0 -17 4 -34t9.5 -36t9.5 -41.5t4 -50.5q0 -40 -22 -71t-57 -55t-79 -40.5t-88 -27.5l-65 74q19 7 37 14.5t32 17.5t23 25t9 38q0 18 -2.5 33t-5.5 31t-5.5 34.5t-2.5 44.5z M138 244q0 34 3.5 76.5t9.5 88.5t13 94t13 94l52 365l-113 71l16 89l333 41l50 -24l-69 -550q-11 -90 -22.5 -168.5t-11.5 -136.5q0 -43 7.5 -72t22.5 -46t36.5 -24.5t49.5 -7.5q32 0 63.5 10.5t60 28.5t54 41t46.5 48l120 893h268l-127 -945q-10 -76 32 -76q8 0 16.5 2.5 t19.5 8.5t26 17t36 28l29 -65q-7 -12 -29 -36t-57 -48t-80.5 -42t-98.5 -18q-90 0 -127 44t-23 115l-4 6q-26 -31 -59.5 -60.5t-75 -53t-92.5 -38t-112 -14.5q-51 0 -100 13t-88 44t-63 81.5t-25 125.5z" unicode="џ" horiz-adv-x="1267" glyph-name="afii10193"/>
<glyph d="M155 103l149 27l141 1024h-3l-260 -18l-64 -152h-148l59 287h432l17 125l-141 27l11 99h598l-10 -94l-173 -34l-17 -123h556l-73 -287h-144l12 152l-367 17l-49 -354q43 8 101.5 14.5t112.5 6.5q115 0 203 -24.5t147.5 -70.5t90 -112.5t30.5 -151.5q0 -120 -45.5 -209.5 t-129 -149t-200.5 -89.5t-259 -30q-18 0 -58.5 2.5t-88.5 6t-95 6t-78 2.5h-270zM587 109q23 -4 56.5 -6t88.5 -2q83 0 146.5 25t106 69t64.5 105t22 133q0 54 -14.5 100t-45 80.5t-77 54t-110.5 19.5q-20 0 -42.5 -1t-44.5 -3t-41 -4.5t-32 -5.5z" unicode="Ѣ" horiz-adv-x="1427" glyph-name="afii10146"/>
<glyph d="M233 962l-104 60l17 89l316 52l51 -24l-18 -208q36 50 80 92.5t93.5 73.5t104 48.5t111.5 17.5q55 0 100.5 -15.5t78.5 -51t51 -93.5t18 -142q0 -29 -8.5 -87t-19.5 -126q24 23 56.5 47t71.5 43.5t84.5 31.5t95.5 12q61 0 111 -19t86 -59t55.5 -102t19.5 -147 q0 -92 -39.5 -178t-110 -152.5t-166.5 -107t-210 -40.5q-86 0 -159.5 29.5t-124 89t-71 149t0.5 209.5q7 42 15.5 90t15 98t11 99.5t4.5 94.5q0 47 -6.5 76t-18 44.5t-29 21t-40.5 5.5q-33 0 -70.5 -18.5t-75.5 -50.5t-73.5 -75.5t-65.5 -93.5l-102 -745h-267zM1060 394 q-24 -146 9.5 -220.5t110.5 -74.5q62 0 107 30t73.5 77t42 105.5t13.5 114.5q0 36 -6 70t-22 60.5t-44.5 43t-73.5 16.5q-35 0 -86 -20.5t-99 -61.5z" unicode="ѣ" horiz-adv-x="1731" glyph-name="afii10194"/>
<glyph d="M633 -20q-142 0 -244.5 51t-168.5 138.5t-98 206t-33 253.5q-1 123 20.5 238.5t64.5 217t107 185.5t147 144.5t185 94t222 33.5q96 0 173.5 -23.5t137.5 -66t104 -102t72 -130.5t42 -152t15 -167q1 -122 -19.5 -237.5t-62.5 -218t-105 -188t-146 -147t-186.5 -96 t-226.5 -34.5zM399 816q39 48 93.5 82.5t123.5 34.5q51 0 90.5 -19.5t72.5 -42.5t63 -42.5t63 -19.5q28 0 52.5 8.5t45.5 21t38.5 28.5t31.5 31q-2 120 -18.5 216t-49.5 163.5t-82.5 104t-117.5 36.5q-82 0 -150.5 -46.5t-121 -127.5t-87 -191t-47.5 -237zM662 101 q87 0 157.5 47.5t122.5 132t84.5 201t42.5 254.5q-37 -45 -89 -76.5t-121 -31.5q-50 0 -90 20t-74.5 44.5t-64.5 44.5t-61 20q-29 0 -55 -8t-49 -21t-41.5 -29t-32.5 -31v-20q1 -108 15 -206.5t45.5 -174.5t83 -121t127.5 -45z" unicode="Ѳ" horiz-adv-x="1426" glyph-name="afii10147"/>
<glyph d="M65 437q-3 96 15.5 187.5t55 172.5t90 148.5t122 116t150.5 75.5t176 27q206 0 316 -118.5t115 -340.5q2 -96 -16 -188t-54.5 -173t-90.5 -149t-122.5 -116.5t-151 -76t-175.5 -27.5q-207 0 -315 120t-115 342zM379 689q25 20 52 32.5t56 12.5t51 -10.5t40 -26.5 t32.5 -34.5t29 -34.5t30 -26.5t35.5 -10.5q21 0 36.5 8.5t27.5 21.5t21.5 29.5t19.5 33.5v23q-4 169 -47 246.5t-125 77.5q-53 0 -94.5 -27.5t-74 -74.5t-55 -109t-35.5 -131zM536 101q52 0 93.5 28t72.5 75.5t53 110t35 132.5q-23 -20 -50 -31t-56 -11q-35 0 -59 10.5 t-42 26t-32 34t-28.5 34.5t-31 26.5t-40.5 11.5q-26 1 -49.5 -18.5t-43.5 -43.5q-2 -26 0 -51q4 -170 46.5 -252t131.5 -82z" unicode="ѳ" horiz-adv-x="1173" glyph-name="afii10195"/>
<glyph d="M169 1391l-131 26l13 105h591l-11 -106l-171 -25l150 -919l43 -297l84 250l301 847q25 73 61 122.5t76.5 79.5t83.5 42.5t82 12.5q37 0 62 -4.5t32 -8.5l-17 -175q-12 3 -25 3q-27 0 -60.5 -10.5t-68 -37.5t-68 -74.5t-60.5 -121.5l-428 -1112h-279z" unicode="Ѵ" horiz-adv-x="1292" glyph-name="afii10148"/>
<glyph d="M142 943q-5 30 -15.5 42.5t-25.5 13.5q-18 0 -36 -9t-34 -20l-29 71q6 9 26.5 29t51.5 40.5t71.5 36.5t87.5 16q84 0 125.5 -35.5t50.5 -101.5l81 -615l17 -181l74 181l201 474q31 73 67 125.5t74.5 86.5t77 49.5t73.5 15.5q34 0 62.5 -5t35.5 -9l-24 -189q-9 3 -20 3 q-23 0 -50.5 -9.5t-57.5 -34t-61 -66t-62 -104.5l-374 -767h-206z" unicode="ѵ" horiz-adv-x="1044" glyph-name="afii10196"/>
<glyph d="M19 97l142 30l164 1264l-140 25l13 106h588l-11 -106l-168 -25l-126 -964l101 140l646 711l15 113l-140 25l13 106h588l-11 -106l-168 -25l-164 -1264l166 -29l-8 -98q-15 -53 -43.5 -108.5t-61 -105t-65 -88.5t-55.5 -60l-130 47q19 39 37.5 82.5t33 86t24 80.5t10.5 66 h-342l10 97l142 30l124 961l-96 -137l-651 -722l-13 -102l166 -29l-8 -98h-592zM965 1635q-90 0 -162 16.5t-122 51.5t-77 88t-27 127q0 20 1 40t8 43h230q17 0 23 -13.5t6 -32.5q0 -23 -3.5 -48t-3.5 -47q0 -27 7 -49t23.5 -38t44.5 -25t70 -9q58 0 93 14.5t54 39.5 t26.5 58.5t12.5 70.5q2 15 5 29t8.5 25t13 18t19.5 7h186q0 -8 -0.5 -16.5t-1.5 -16.5q-11 -87 -45 -150t-89 -103.5t-130.5 -60t-169.5 -19.5z" unicode="Ҋ" horiz-adv-x="1641" glyph-name="uni048A"/>
<glyph d="M680 1265q-83 0 -152 16.5t-118.5 51.5t-76.5 89.5t-27 129.5q0 20 1.5 40.5t7.5 42.5h218q17 0 23 -13t6 -33q0 -23 -3.5 -48t-3.5 -47q0 -29 7 -51.5t24 -39t45.5 -25t71.5 -8.5q58 0 92.5 16t53 42t25.5 59.5t12 68.5q2 15 5 29t8.5 25t13 18t19.5 7h186 q0 -8 -0.5 -16.5t-1.5 -16.5q-12 -90 -46.5 -153.5t-89.5 -104.5t-130.5 -60t-169.5 -19zM138 244q0 34 3.5 76.5t9.5 88.5t13 94t13 94l52 365l-113 71l16 89l333 41l50 -24l-69 -550q-11 -90 -22.5 -168.5t-11.5 -136.5q0 -43 7.5 -72t22.5 -46t36.5 -24.5t49.5 -7.5 q32 0 63.5 10.5t60 28.5t54 41t46.5 48l120 893h268l-127 -945q-10 -76 32 -76q8 0 16.5 2.5t19.5 8.5t26 17t36 28l29 -65q-5 -8 -17.5 -23t-32 -32t-45 -34.5t-55.5 -30.5q-15 -8 -30.5 -17.5t-28 -21.5t-20.5 -26t-8 -32t7.5 -36.5t16.5 -39t16.5 -45t7.5 -54.5 q0 -40 -26 -80.5t-66 -76t-88 -61.5t-92 -37l-65 74q19 7 39 22.5t37 35t28 42t11 45.5q0 20 -4.5 35t-10 30.5t-10 35t-4.5 47.5q0 48 30.5 83.5t75.5 61.5q-52 15 -72 54.5t-9 95.5l-4 6q-26 -31 -59.5 -60.5t-75 -53t-92.5 -38t-112 -14.5q-51 0 -100 13t-88 44t-63 81.5 t-25 125.5z" unicode="ҋ" glyph-name="uni048B"/>
<glyph d="M13 97l148 30l122 943h-173l13 108h174l28 213l-141 25l12 106h588l-11 -101l-165 -30l-28 -213h284l-13 -108h-285l-25 -198q33 8 81 16t111 8q242 0 364.5 -93.5t122.5 -270.5q0 -137 -47.5 -240t-132.5 -171.5t-201.5 -103t-255.5 -34.5q-18 0 -58.5 2.5t-88.5 6 t-95 6t-78 2.5h-262zM443 111q25 -5 59.5 -7.5t88.5 -2.5q79 0 142 28.5t106 81t66 126.5t23 165q0 60 -18.5 107.5t-53 80.5t-82.5 51t-106 18q-40 0 -79 -3.5t-63 -10.5h-1z" unicode="Ҍ" horiz-adv-x="1264" glyph-name="uni048C"/>
<glyph d="M221 1027h-158l16 108h156l46 347l-123 43l17 83l346 42l53 -27l-66 -488h311l-16 -108h-310l-53 -394q24 24 57 50.5t74.5 48t90.5 36t104 14.5q60 0 109.5 -19t84 -58t53.5 -98.5t19 -140.5q0 -91 -39.5 -179t-110 -157t-166.5 -111t-210 -42q-86 0 -158.5 29 t-122.5 88.5t-72 149t-6 210.5zM527 99q62 0 107 30t73.5 77t42 105.5t13.5 114.5q0 36 -5.5 69.5t-21.5 59.5t-44.5 42t-73.5 16q-18 0 -41.5 -5.5t-49 -16.5t-52 -27.5t-50.5 -38.5l-17 -131q-20 -146 14 -220.5t105 -74.5z" unicode="ҍ" horiz-adv-x="1083" glyph-name="uni048D"/>
<glyph d="M16 97l142 30l165 1264l-141 25l13 106h288q82 0 156.5 8t152.5 8q133 0 229 -25t158.5 -75.5t93.5 -125t33 -173.5q2 -98 -19 -181t-62 -151t-100 -120t-134 -87l142 -217l-90 -60l-155 238q-58 -17 -121 -25.5t-131 -8.5q-56 0 -87 1t-54 3l-48 -404l242 -29l-8 -98 h-675zM510 665q38 -8 72 -10t63 -1q46 0 86 8.5t74 24.5l-122 189l90 59l120 -185q60 61 89 156t30 221q2 149 -63.5 220t-207.5 69q-28 -1 -63.5 -4.5t-68.5 -10.5z" unicode="Ҏ" horiz-adv-x="1295" glyph-name="uni048E"/>
<glyph d="M278 -520h-262l201 1491l-108 55l17 85l327 52l50 -24l-12 -104q24 25 53.5 48t65.5 41t77.5 28.5t89.5 10.5q87 0 151.5 -30.5t107.5 -87t64.5 -136.5t21.5 -179q0 -85 -17.5 -169.5t-51 -162.5t-82 -147t-111.5 -123l156 -181l-82 -71l-162 188q-66 -40 -143 -62 t-165 -22q-29 0 -57.5 3.5t-57.5 8.5zM369 133q26 -12 55.5 -17t67.5 -5q54 0 98 19.5t79 54.5l-164 192l81 70l150 -175q27 46 46 100.5t31.5 113t18.5 119t6 118.5q0 61 -10 112.5t-29.5 88.5t-48 57.5t-66.5 20.5q-34 0 -64.5 -11.5t-57 -30t-49.5 -42.5t-41 -49z" unicode="ҏ" horiz-adv-x="1195" glyph-name="uni048F"/>
<glyph d="M-10 97l172 30l163 1263l-172 27l13 105h733l113 359h169l-82 -517l-492 34l-163 -1271l300 -30l-10 -97h-754z" unicode="Ґ" horiz-adv-x="1001" glyph-name="afii10050"/>
<glyph d="M212 983l-130 42l19 121h604l104 316h137l-53 -442h-414l-134 -1020h-261z" unicode="ґ" horiz-adv-x="854" glyph-name="afii10098"/>
<glyph d="M8 97l154 30l73 569h-184l12 126h188l74 569l-163 26l13 105h979l-59 -532h-162l-27 398l-297 18l-76 -584h332l-9 -126h-339l-73 -569l266 -30l-10 -97h-703z" unicode="Ғ" horiz-adv-x="1098" glyph-name="uni0492"/>
<glyph d="M170 428h-154l12 108h156l58 447l-131 42l20 121h838l-78 -384h-136l6 240l-253 18l-64 -484h267l-12 -108h-269l-56 -428h-260z" unicode="ғ" horiz-adv-x="905" glyph-name="uni0493"/>
<glyph d="M8 97l154 30l163 1264l-163 26l13 105h979l-61 -488h-162l-25 354l-297 18l-81 -627q31 19 67.5 36t75 29.5t76.5 19.5t71 7q115 0 191.5 -27.5t122.5 -78t65 -121t19 -156.5q0 -101 -19 -202t-55.5 -193t-88.5 -171.5t-118.5 -137.5t-146.5 -91.5t-171 -33.5 q-11 0 -25.5 1t-29 3t-27.5 5t-20 6l14 117q13 -2 34 -2h44q77 0 140.5 50t109.5 138.5t71 210t25 265.5q0 143 -45.5 215t-152.5 72q-38 0 -69.5 -5t-60 -14.5t-55.5 -22.5t-56 -29l-70 -543l208 -29l-9 -97h-646z" unicode="Ҕ" horiz-adv-x="1238" glyph-name="uni0494"/>
<glyph d="M233 983l-131 42l20 121h839l-79 -384h-136l6 240l-253 18l-65 -497q56 55 135.5 86t171.5 31q106 0 178.5 -27t117.5 -74.5t64.5 -113t19.5 -143.5q0 -87 -21 -171.5t-59.5 -160.5t-94 -141t-124.5 -112.5t-150 -74t-172 -26.5q-11 0 -25.5 1t-29 3t-27.5 5t-20 6 l14 117q13 -2 34 -2h44q75 0 141.5 37.5t115.5 105t77.5 161.5t28.5 206q0 71 -13.5 121.5t-42.5 82t-73.5 46t-106.5 14.5q-28 0 -56 -8t-54 -20.5t-49 -29t-39 -32.5l-54 -410h-260z" unicode="ҕ" horiz-adv-x="1183" glyph-name="uni0495"/>
<glyph d="M-32 97l66 30q22 9 53 40.5t68 77.5t78.5 102.5t86 115.5t91 116.5t92 104.5t89 80t82.5 44l-367 584l-153 24l12 106h490l-12 -106l-149 -26l321 -577h120l75 578l-150 25l13 106h586l-12 -106l-161 -25l-75 -578h130l458 578l-135 25l13 106h463l-13 -106l-143 -27 l-505 -583q32 -13 64 -47t64 -81t63.5 -104t62 -115t59.5 -113.5t55.5 -101t51 -77t46.5 -40.5h109q-12 -75 -27.5 -146t-32 -134t-32 -116.5t-25.5 -92.5h-152q2 40 5.5 89t5.5 99t2.5 95.5t-3.5 78.5h-96q-24 0 -49 29.5t-50.5 78t-52 110.5t-53.5 127t-54 127 t-54.5 110.5t-55 78t-54.5 29.5h-81l-73 -563l163 -29l-8 -98h-593l10 97l152 30l72 557h-81q-30 0 -65 -29.5t-72.5 -77.5t-76.5 -109.5t-77.5 -125.5t-75.5 -125.5t-70 -109.5t-61.5 -77.5t-50.5 -29.5h-335z" unicode="Җ" horiz-adv-x="2084" glyph-name="uni0496"/>
<glyph d="M65 227l102 -103q35 0 75.5 35.5t75.5 101.5t58 160.5t23 213.5q0 82 -12 143t-32 101t-47.5 59.5t-57.5 19.5q-48 0 -87.5 -19.5t-85.5 -65.5l-51 72q14 21 43 55t71 66.5t96 56t118 23.5q69 0 125 -29.5t95.5 -87t61 -141.5t21.5 -192q0 -14 -0.5 -27t-1.5 -26h187 l65 503h268l-65 -503h191q28 100 79 191.5t118.5 160.5t148 110t167.5 41q48 0 78.5 -9t51.5 -26l-82 -212l-101 103q-35 0 -76 -35.5t-76 -101.5t-58 -160.5t-23 -213.5q0 -83 12 -143.5t32.5 -100.5t47.5 -59.5t57 -19.5q24 0 45.5 4.5t42 14.5t41.5 26.5t44 39.5l52 -72 q-11 -16 -29.5 -39t-45 -48t-60 -49t-72.5 -40q-15 -9 -29 -18.5t-25 -21t-17.5 -25.5t-6.5 -32t7.5 -36.5t16 -39t16 -45t7.5 -54.5q0 -40 -26 -80.5t-65.5 -76t-87.5 -61.5t-92 -37l-65 74q19 7 39 22.5t37 35t28 42t11 45.5q0 20 -4.5 35t-10.5 30.5t-10.5 35t-4.5 47.5 q0 48 29 83t68 59q-111 25 -175 138t-64 305q0 25 1.5 50t5.5 51h-183l-68 -531h-267l68 531h-190q-24 -108 -74 -207.5t-119.5 -176t-154 -122t-177.5 -45.5q-48 0 -78.5 9t-51.5 26z" unicode="җ" horiz-adv-x="1943" glyph-name="uni0497"/>
<glyph d="M87 419h177v-257q37 -22 94 -36t149 -14q70 0 126.5 27.5t96.5 77t61.5 119t21.5 153.5q0 109 -56 170t-181 61l-146 -12l14 138l122 3q48 0 97.5 20.5t89.5 64.5t65.5 113t25.5 167q0 104 -51.5 153t-146.5 49q-78 0 -130 -20t-76 -64l-46 -162h-172l21 301 q31 2 81.5 12.5t109.5 22.5t121 22t118 10q121 0 209 -23.5t145.5 -65t85.5 -98.5t28 -124q0 -75 -17 -132.5t-46 -101t-66.5 -74.5t-79.5 -52.5t-84.5 -35t-81.5 -22.5q91 -2 160 -25t116 -63.5t71 -96.5t24 -122q0 -117 -39 -205.5t-108 -150.5t-162.5 -98.5t-201.5 -50.5 q13 -35 20.5 -84.5t7.5 -94.5q0 -143 -73.5 -218t-217.5 -75q-20 0 -45.5 2t-49.5 6t-44 9t-28 11l26 152q13 -7 37 -11t47 -4q81 0 130.5 49.5t52.5 153.5q1 28 -1 51.5t-4 43.5h-3q-74 0 -147 10t-137.5 25.5t-115.5 34t-82 36.5z" unicode="Ҙ" horiz-adv-x="1214" glyph-name="uni0498"/>
<glyph d="M127 317l117 -150q29 -26 68 -45t94 -19q69 0 119 18t83 51t49 79t16 102q0 40 -11 73.5t-38.5 57.5t-74 37.5t-116.5 13.5l-111 -21l24 133l88 9q74 7 123.5 32t79 60t42 76t12.5 81q0 64 -45.5 101t-143.5 37q-34 0 -62.5 -6.5t-51 -15.5t-38 -20t-22.5 -20l-63 -172 h-150l36 297q49 0 87.5 8.5t80.5 19t94.5 19t131.5 8.5q97 0 173.5 -17t129 -49t80.5 -77t28 -102q0 -56 -23 -104t-61 -87t-86.5 -68t-100.5 -46q128 -5 198 -67t70 -167q0 -78 -30.5 -141.5t-84.5 -111t-128 -79t-160 -46.5q-27 -20 -43 -43.5t-16 -52.5q0 -18 7.5 -36.5 t16.5 -39t16.5 -45t7.5 -54.5q0 -40 -26 -80.5t-66 -76t-88 -61.5t-92 -37l-65 74q19 7 40 22.5t39 35t30 42t12 45.5q0 20 -5.5 35t-12 30.5t-12 35t-5.5 47.5q0 42 27.5 78.5t66.5 65.5q-71 0 -130 8.5t-105.5 21.5t-81.5 28t-57 29z" unicode="ҙ" horiz-adv-x="1029" glyph-name="uni0499"/>
<glyph d="M16 97l142 30l164 1264l-139 25l13 106h589l-12 -106l-168 -25l-75 -578h133l450 576l-138 27l13 106h463l-13 -106l-140 -27l-493 -588q31 -16 62 -51.5t61.5 -83t60.5 -103.5t59 -112.5t56 -110t52 -97t47.5 -73t41.5 -37.5h102q-10 -72 -25.5 -146.5t-33 -141 t-33.5 -120.5t-26 -87h-152q2 40 5.5 89t5.5 99t2.5 95.5t-3.5 78.5h-76q-24 0 -49 29.5t-50.5 78t-52 110.5t-53.5 127t-54 127t-54.5 110.5t-54.5 78t-54 29.5h-75l-73 -563l167 -29l-8 -98h-594z" unicode="Қ" horiz-adv-x="1394" glyph-name="uni049A"/>
<glyph d="M236 963l-103 59l17 89l316 52l61 -28l-68 -496h157q48 38 86.5 77t77.5 89q21 26 35.5 57t14.5 58q1 13 -3 23t-8.5 20.5t-8.5 23.5t-4 33q0 33 14.5 59t38.5 43t55.5 26t64.5 9q25 0 48.5 -8t41 -23t28 -37t10.5 -50q0 -44 -18 -87t-47.5 -83t-69 -77.5t-82.5 -72 t-87.5 -64.5t-83.5 -56q23 -29 50 -73.5t56 -95.5t59 -102.5t58.5 -94t55 -71.5t48.5 -34l74 -36l-12 -92q-16 -4 -38.5 -11.5t-42.5 -18.5t-34.5 -26.5t-14.5 -35.5q0 -18 7.5 -36.5t16.5 -39t16.5 -45t7.5 -54.5q0 -40 -26 -80.5t-66 -76t-88 -61.5t-92 -37l-65 74 q19 7 39 22.5t37 35t28 42t11 45.5q0 20 -4.5 35t-10 30.5t-10 35t-4.5 47.5t11.5 52t30.5 43t43.5 34t49.5 26h-68q-41 0 -75.5 40t-65 100t-58.5 129.5t-56.5 129.5t-58.5 100t-65 40h-17l-73 -539h-267z" unicode="қ" horiz-adv-x="1137" glyph-name="uni049B"/>
<glyph d="M16 97l142 30l164 1264l-139 25l13 106h589l-12 -106l-168 -25l-75 -578h131l47 333h135l-47 -333h43l451 576l-139 27l13 106h463l-13 -106l-140 -27l-491 -586q31 -15 63 -50.5t63 -83.5t62 -104.5t60 -114t56.5 -112t53 -98t48 -72.5t41.5 -36l74 -29l-12 -103h-305 q-23 0 -47.5 28t-49 74t-50.5 105t-51.5 121.5t-52 123.5t-53 110.5t-53 83t-52.5 41.5l-44 -316h-135l45 319h-130l-73 -563l167 -29l-8 -98h-594z" unicode="Ҝ" horiz-adv-x="1570" glyph-name="uni049C"/>
<glyph d="M236 963l-103 59l17 89l316 52l61 -28l-68 -496h107l35 264h133l-35 -264h56q49 40 86.5 81t73.5 94q21 27 35.5 55t15.5 55q0 13 -3.5 23t-8.5 20.5t-9 23.5t-4 33q0 33 14.5 58t38.5 41.5t55.5 25t64.5 8.5q26 0 49.5 -8.5t41 -24.5t28 -39t10.5 -52q0 -65 -35 -124.5 t-89 -112t-118 -98.5t-121 -83q25 -25 53 -69t56.5 -96t57.5 -107t57 -101t54 -77.5t49 -36.5l74 -36l-12 -92h-265q-37 0 -68 32.5t-58 83t-51 111.5t-47 119t-47 105.5t-50 70.5l-37 -281h-133l39 298h-106l-73 -539h-267z" unicode="ҝ" horiz-adv-x="1318" glyph-name="uni049D"/>
<glyph d="M16 97l142 30l120 927h-151l11 119h156l28 218l-139 25l13 106h589l-12 -106l-168 -25l-28 -218h162l-11 -119h-167l-31 -241h133l450 576l-138 27l13 106h463l-13 -106l-140 -27l-493 -588q31 -16 62.5 -52t62.5 -84t61.5 -104t59 -113t56 -111t52.5 -97.5t47.5 -72 t41.5 -35.5l80 -29l-12 -103h-305q-24 0 -49 29.5t-50.5 78t-52 110.5t-53.5 127t-54 127t-54.5 110.5t-54.5 78t-54 29.5h-75l-73 -563l167 -29l-8 -98h-594z" unicode="Ҟ" horiz-adv-x="1394" glyph-name="uni049E"/>
<glyph d="M102 1310h621l-18 -108h-621zM276 1482l-124 43l17 83l346 42l54 -27l-216 -1623h-272zM442 610l4 1h-4q43 28 82.5 53.5t78 56t76.5 69t79 92.5q30 40 40.5 78.5t13.5 79.5q2 35 17.5 58.5t37 38t47.5 20.5t49 6q55 0 87 -33.5t33 -81.5q0 -42 -13.5 -75.5t-33.5 -62.5 q-31 -42 -74.5 -81t-92.5 -73.5t-99 -63.5t-94 -51l221 -393q25 -44 56 -68.5t54 -24.5q19 0 51.5 13t62.5 39l34 -67q-14 -20 -43.5 -47.5t-69.5 -52.5t-89 -42t-103 -17q-67 0 -110 29t-69 85z" unicode="ҟ" horiz-adv-x="1123" glyph-name="uni049F"/>
<glyph d="M316 97l143 30l166 1284l-260 -7l-142 -419h-159l89 537h932l-11 -106l-169 -25l-75 -578h133l451 576l-139 27l13 106h463l-13 -106l-140 -27l-491 -586q31 -15 63 -50.5t63 -83.5t62 -104.5t60 -114t56.5 -112t53 -98t48 -72.5t41.5 -36l74 -29l-12 -103h-305 q-24 0 -49 29.5t-50.5 78t-52 110.5t-53.5 127t-54 127t-54.5 110.5t-54.5 78t-54 29.5h-75l-72 -563l166 -29l-8 -98h-594z" unicode="Ҡ" horiz-adv-x="1694" glyph-name="uni04A0"/>
<glyph d="M478 1013l-196 -19l-90 -265h-152l59 408h663l-68 -498h155q50 41 90 82.5t75 92.5q21 27 35.5 55t14.5 55q1 13 -3 23t-8.5 20.5t-8.5 23.5t-4 33q0 33 14.5 58t38.5 41.5t55.5 25t64.5 8.5q25 0 48.5 -8t41 -23t28 -37t10.5 -50q0 -44 -18 -86.5t-47.5 -82.5t-69 -77.5 t-82.5 -72t-87 -64.5t-83 -56q23 -29 51.5 -74t58.5 -95.5t61.5 -102t61.5 -94.5t57 -72t49 -34l74 -36l-12 -92h-265q-31 0 -58.5 23t-53 61t-49 86.5t-46 99t-44.5 99t-45 86.5t-47 61t-50 23h-17l-73 -539h-267z" unicode="ҡ" horiz-adv-x="1377" glyph-name="uni04A1"/>
<glyph d="M19 97l142 30l164 1264l-140 25l13 106h591l-12 -106l-168 -25l-71 -547h597l71 547l-165 25l11 106h597l-12 -106l-147 -25l-163 -1263h197q-12 -79 -27.5 -151t-31.5 -134t-31.5 -114t-25.5 -91h-152q2 40 5.5 89t5.5 99t2.5 95.5t-3.5 78.5h-413l11 98l179 30l75 580 h-598l-75 -581l167 -29l-8 -98h-595z" unicode="Ң" horiz-adv-x="1602" glyph-name="uni04A2"/>
<glyph d="M233 962l-104 60l17 89l316 52l61 -28l-66 -487h412l66 498h266l-120 -937q-5 -38 4 -57t28 -19q7 0 15 2t18.5 7t24 14t32.5 23l29 -64q-5 -8 -17.5 -22t-32 -30.5t-45 -33t-56.5 -28.5q-15 -8 -29 -17.5t-25 -21t-18 -25t-7 -29.5q0 -18 7.5 -36.5t16.5 -39t16.5 -45 t7.5 -54.5q0 -40 -26 -80.5t-66 -76t-88 -61.5t-92 -37l-65 74q19 7 39 22.5t37 35t28 42t11 45.5q0 20 -4.5 35t-10 30.5t-10 35t-4.5 47.5q0 48 31 84t73 60q-55 14 -83.5 49t-20.5 91l53 389h-413l-70 -518h-267z" unicode="ң" horiz-adv-x="1310" glyph-name="uni04A3"/>
<glyph d="M19 97l142 30l164 1264l-140 25l13 106h591l-12 -106l-168 -25l-71 -547h597l71 547l-165 25l11 106h981l-58 -518h-168l-18 384l-298 13l-164 -1273l214 -31l-10 -97h-678l11 98l179 30l75 580h-598l-75 -581l167 -29l-8 -98h-595z" unicode="Ҥ" horiz-adv-x="1969" glyph-name="uni04A4"/>
<glyph d="M233 962l-104 60l17 89l316 52l61 -28l-66 -487h412l66 498h690l-65 -406h-147l1 258l-229 24l-104 -813q-5 -38 4 -57t28 -19q7 0 15 2t18.5 7t24 14t32.5 23l29 -64q-7 -11 -28.5 -33.5t-55 -45t-77.5 -39.5t-96 -17q-43 0 -78 10t-58 28.5t-34 46.5t-6 64l53 389h-413 l-70 -518h-267z" unicode="ҥ" horiz-adv-x="1601" glyph-name="uni04A5"/>
<glyph d="M19 97l143 30l162 1260l-162 29l13 106h1409l-9 -106l-149 -25l-73 -566q34 10 71.5 18.5t73 14.5t66 9.5t49.5 3.5q125 0 208.5 -30t133 -81t70 -119.5t20.5 -146.5q0 -109 -19.5 -217.5t-56 -208.5t-89.5 -186t-120 -149.5t-147 -100t-171 -36.5q-11 0 -25.5 1t-29 3 t-27.5 5t-20 6l14 117q13 -2 34 -2h44q76 0 139 54.5t109 151.5t71.5 230.5t25.5 290.5q0 287 -249 287q-32 0 -57.5 -2t-47.5 -5t-42.5 -8t-41.5 -11l-76 -587l157 -30l-10 -97h-587l11 97l143 28l167 1273h-535l-164 -1271l167 -30l-8 -97h-595z" unicode="Ҧ" horiz-adv-x="2077" glyph-name="uni04A6"/>
<glyph d="M236 963l-103 59l17 89l316 52l50 -24l-17 -207q36 50 80 92.5t93.5 73t104 48t111.5 17.5q55 0 100.5 -15.5t78.5 -51t51 -93.5t18 -142q0 -23 -4.5 -65t-12 -95.5t-16.5 -113t-18 -116.5q-3 -17 -6 -36.5t-6 -42.5q28 33 63 64t75 55t85 38.5t95 14.5q85 0 137.5 -28 t80.5 -74t37.5 -105t9.5 -120q0 -66 -16 -140.5t-46.5 -148t-74 -140.5t-98 -118t-118.5 -81.5t-136 -30.5q-50 0 -78 6l7 92q2 0 4.5 -0.5t4.5 -0.5q71 0 125.5 45t91 117t55.5 162t19 180q0 52 -4 93.5t-16 71t-34.5 45.5t-59.5 16q-28 0 -56.5 -12t-57 -32.5t-57.5 -47 t-58 -56.5q-6 -38 -11 -74.5t-9.5 -70.5t-8 -62.5t-5.5 -49.5h-282q4 32 12.5 86.5t19 116t21.5 123.5t19 110q8 51 16.5 106t15 107.5t10 100.5t3.5 86q0 47 -6.5 76t-18 44.5t-29 21t-40.5 5.5q-33 0 -70.5 -18.5t-75.5 -50.5t-73.5 -75.5t-65.5 -93.5l-102 -745h-267z " unicode="ҧ" horiz-adv-x="1694" glyph-name="uni04A7"/>
<glyph d="M89 649q0 128 27.5 243.5t78 214.5t122 178.5t159.5 135.5t190 86.5t215 30.5q54 0 95.5 -9t73 -22t54 -28.5t36.5 -28.5l-56 -82q-16 15 -62.5 27.5t-140.5 12.5q-84 0 -154.5 -31.5t-126.5 -86t-99 -126.5t-71 -153.5t-42.5 -167.5t-14.5 -167q0 -112 22.5 -216 t71 -184t125.5 -128t186 -48q69 0 134 15q-53 40 -97.5 92.5t-76.5 115.5t-50 135.5t-18 154.5q0 177 50.5 308.5t133 219.5t187.5 131.5t214 43.5q91 0 167.5 -28.5t132 -82t86 -130.5t30.5 -174q0 -113 -33 -225t-92 -213.5t-142.5 -189t-183.5 -152.5q63 -25 141 -25 q11 0 26.5 1.5t30.5 4t27.5 4.5t17.5 3l-14 -101q-11 -3 -31.5 -6.5t-44 -6.5t-47 -5.5t-41.5 -2.5q-60 0 -119 12.5t-115 35.5q-72 -28 -147.5 -43t-154.5 -15q-157 0 -279.5 52.5t-207 143.5t-129 213.5t-44.5 262.5zM1099 197q71 49 126.5 118t93.5 152.5t58 178.5 t20 197q0 98 -10.5 165t-32 107.5t-54.5 58t-79 17.5q-57 0 -108 -38.5t-89.5 -112t-61 -180t-22.5 -241.5q0 -136 42 -244.5t117 -177.5z" unicode="Ҩ" horiz-adv-x="1717" glyph-name="uni04A8"/>
<glyph d="M72 460q0 157 48 286.5t131 222.5t195 144.5t240 51.5q40 0 72 -5.5t55 -13.5t38 -17.5t23 -16.5l-48 -103q-11 6 -21.5 11t-24.5 8.5t-33 5.5t-46 2q-77 0 -139.5 -40t-107 -115.5t-68.5 -184t-24 -246.5q0 -61 10.5 -125.5t36.5 -118t70 -88t112 -34.5q14 0 46.5 1 t68.5 6q-76 60 -110 146.5t-34 192.5q0 105 30.5 192t86.5 150t135 98t176 35q75 0 136.5 -18t106 -55.5t69 -94t24.5 -132.5q0 -86 -21.5 -161t-60.5 -139t-94.5 -116t-123.5 -92q54 -18 125 -18q21 0 49 1.5t45 3.5l-12 -93q-8 -2 -21.5 -4t-29 -3.5t-31 -2.5t-28.5 -1 q-85 0 -154 10t-126 29q-69 -20 -143.5 -30t-153.5 -10q-125 0 -215 37t-147.5 102t-84.5 152.5t-27 189.5zM811 448q0 -37 5.5 -76t18.5 -77t33 -72.5t50 -62.5q82 52 122.5 163.5t40.5 297.5q0 91 -24 137.5t-80 46.5q-45 0 -76.5 -31.5t-51.5 -82.5t-29 -115t-9 -128z " unicode="ҩ" horiz-adv-x="1383" glyph-name="uni04A9"/>
<glyph d="M302 -293q13 -7 37 -11t47 -4q81 0 130.5 49.5t52.5 153.5q1 27 -0.5 50t-4.5 43q-88 10 -158.5 39.5t-124.5 75.5t-93 105t-64 128t-37 144t-12 153q-2 210 59 378t171 285.5t261 180.5t330 63q76 0 132 -5t97.5 -12t71.5 -15.5t56 -14.5l36 -10l-64 -386h-193l-32 287 q-29 14 -64.5 23t-81.5 9q-87 0 -156 -34.5t-121.5 -92.5t-89.5 -135t-60.5 -162t-33.5 -172.5t-8 -166.5q3 -114 21 -210.5t55 -167t93.5 -110t136.5 -39.5q25 0 57 3t65 12.5t63.5 26.5t53.5 45q8 9 19 35t22 57t20 61t14 46h166l-42 -305q-25 -15 -62 -34.5t-88.5 -37.5 t-118 -31.5t-150.5 -17.5q11 -35 17.5 -79.5t6.5 -86.5q0 -143 -73.5 -218t-217.5 -75q-20 0 -45.5 2t-49.5 6t-44 9t-28 11l26 152v0z" unicode="Ҫ" horiz-adv-x="1266" glyph-name="uni04AA"/>
<glyph d="M264 -160q0 42 28.5 79.5t69.5 67.5q-138 26 -215.5 141t-79.5 313q-1 81 16 166t51 165.5t85.5 151.5t121 124t156 84t191.5 31q29 0 61 -3t64 -8t61.5 -13t53.5 -18l-72 -266q-1 1 -8.5 2t-16.5 2t-16.5 1.5t-8.5 1.5q-19 22 -42 48t-47 48.5t-47 37t-43 14.5 q-56 0 -107 -38.5t-89.5 -109.5t-60.5 -173t-20 -229q1 -83 14 -142.5t36.5 -97.5t58 -55.5t79.5 -17.5q43 0 78 8.5t66 24.5t59 38.5t57 49.5l53 -93q-18 -25 -48.5 -55t-73.5 -57.5t-98.5 -49t-122.5 -29.5q-20 -17 -30.5 -37t-10.5 -44q0 -18 7.5 -36.5t16.5 -39 t16.5 -45t7.5 -54.5q0 -40 -26 -80.5t-66 -76t-88 -61.5t-92 -37l-65 74q19 7 40 22.5t39 35t30 42t12 45.5q0 20 -5.5 35t-12 30.5t-12 35t-5.5 47.5z" unicode="ҫ" horiz-adv-x="925" glyph-name="uni04AB"/>
<glyph d="M225 100l248 27l166 1281l-274 -24l-133 -394l-156 -1l90 533h1268l-77 -532l-149 -1l-7 395l-277 24l-167 -1281h307q-11 -72 -26.5 -143t-31.5 -134.5t-31 -118t-25 -93.5h-152q2 40 5.5 89t5.5 99t2.5 95.5t-3.5 78.5h-594z" unicode="Ҭ" horiz-adv-x="1352" glyph-name="uni04AC"/>
<glyph d="M236 962l-104 60l18 89l315 52l50 -24l-17 -210q35 49 78 92t92 74.5t102.5 49.5t109.5 18q51 0 94 -12.5t75 -41.5t52.5 -75.5t27.5 -114.5q35 54 79 98.5t94.5 77t107 50.5t116.5 18q54 0 99 -16.5t78 -52.5t51.5 -93.5t18.5 -139.5q0 -29 -4.5 -72t-11.5 -91.5 t-15.5 -99t-15.5 -93.5q-6 -39 -13 -79t-13 -80t-10.5 -77.5t-5.5 -70.5q-2 -36 7 -50.5t23 -14.5q17 0 37.5 11t61.5 44l29 -64q-6 -8 -18.5 -22t-31 -31.5t-44 -35t-56.5 -30.5q-15 -8 -30.5 -17.5t-28 -21.5t-20.5 -26t-8 -32t7.5 -36.5t16.5 -39t16.5 -45t7.5 -54.5 q0 -40 -26 -80.5t-66 -76t-88 -61.5t-92 -37l-65 74q19 7 39 22.5t37 35t28 42t11 45.5q0 20 -4.5 35t-10 30.5t-10 35t-4.5 47.5q0 47 29.5 82t70.5 59q-30 7 -50 21t-31 33.5t-15.5 42.5t-3.5 49q1 28 5 64.5t10 77.5t13.5 85t15.5 87q7 41 15 90.5t15 101t11.5 102.5 t4.5 96q0 47 -6.5 75.5t-18.5 44.5t-28 21t-36 5q-32 0 -68 -16t-72 -45t-70.5 -68.5t-63.5 -86.5q-5 -64 -12.5 -132.5t-15.5 -128.5l-62 -505h-274l57 443q6 42 12.5 91.5t11.5 101t8 102t3 95.5q-1 50 -7.5 80t-18.5 45.5t-30.5 20t-43.5 4.5q-31 0 -68 -17.5 t-74.5 -48.5t-73.5 -72.5t-66 -89.5l-103 -755h-267z" unicode="ҭ" horiz-adv-x="1925" glyph-name="uni04AD"/>
<glyph d="M221 98l223 29l60 471l-346 793l-119 25l11 106h610l-15 -106l-166 -25l191 -514l41 -138l67 123l318 529l-153 25l10 106h480l-13 -106l-116 -24l-519 -794l-61 -471l222 -29l-9 -98h-726z" unicode="Ү" horiz-adv-x="1239" glyph-name="uni04AE"/>
<glyph d="M148 943q-8 31 -17.5 43.5t-24.5 12.5q-11 0 -28 -6t-50 -32l-29 71q6 9 28 31t54.5 44t74 39t88.5 17q42 0 73 -9.5t52 -27.5t33 -43t18 -56l122 -642l26 -175l59 93q42 62 82 129.5t71.5 138.5t50.5 144t19 146q0 18 -5 40t-11.5 46t-11.5 48t-5 45q0 56 35.5 89.5 t98.5 33.5q39 0 68 -15t48 -42t28 -65t9 -83q0 -86 -32 -179t-84.5 -187.5t-119.5 -188t-137 -180.5q-29 -36 -57 -71t-56 -68l-64 -373q-10 -76 29 -76q17 0 38.5 11.5t59.5 43.5l30 -64q-8 -11 -30.5 -35t-58 -48.5t-82.5 -43t-104 -18.5q-90 0 -130.5 42t-28.5 110 l89 414z" unicode="ү" horiz-adv-x="1134" glyph-name="uni04AF"/>
<glyph d="M216 98l223 29l49 386h-379l17 108h363l-336 770l-119 25l11 106h610l-15 -106l-166 -25l191 -514l41 -138l67 123l318 529l-153 25l10 106h480l-13 -106l-116 -24l-504 -771h373l-17 -108h-382l-50 -386l222 -29l-9 -98h-726z" unicode="Ұ" horiz-adv-x="1233" glyph-name="uni04B0"/>
<glyph d="M74 108h277l-203 835q-8 31 -17.5 43.5t-24.5 12.5q-11 0 -28 -6t-50 -32l-29 71q6 9 28 31t54.5 44t74 39t88.5 17q42 0 73 -9.5t52 -27.5t33 -43t18 -56l122 -642l26 -175l59 93q42 62 82 129.5t71.5 138.5t50.5 144t19 146q0 18 -5 40t-11.5 46t-11.5 48t-5 45 q0 56 35.5 89.5t98.5 33.5q39 0 68 -15t48 -42t28 -65t9 -83q0 -86 -32 -179t-84.5 -187.5t-119.5 -188t-137 -180.5q-23 -30 -46.5 -58.5t-46.5 -56.5h311l-13 -108h-333l-49 -289q-10 -76 29 -76q17 0 38.5 11.5t59.5 43.5l30 -64q-8 -11 -30.5 -35t-58 -48.5t-82.5 -43 t-104 -18.5q-90 0 -130.5 42t-28.5 110l79 367h-295z" unicode="ұ" horiz-adv-x="1134" glyph-name="uni04B1"/>
<glyph d="M-59 98l118 29l496 626l-302 637l-128 26l11 106h597l-9 -105l-145 -25l181 -470l317 469l-137 25l9 106h499l-10 -106l-137 -24l-471 -605l331 -660h172q-12 -75 -27.5 -146t-32 -134t-32 -116.5t-25.5 -92.5h-152q2 40 5.5 89t5.5 99t2.5 95.5t-3.5 78.5h-407l8 98 l148 29l-201 483l-333 -483l151 -30l-9 -97h-501z" unicode="Ҳ" horiz-adv-x="1342" glyph-name="uni04B2"/>
<glyph d="M386 579l-175 355q-14 29 -30.5 50t-37.5 21q-25 0 -42 -7.5t-34 -21.5l-38 71q6 9 27 28t54.5 38.5t78.5 34.5t99 15q75 0 115 -27t57 -78l97 -302l255 399h264l-445 -577l171 -337q7 -14 16 -30.5t19.5 -30t21 -22.5t21.5 -9q7 0 16 1.5t21 7t27.5 15t35.5 26.5l41 -70 q-4 -7 -16 -21.5t-31.5 -31.5t-45.5 -34.5t-58 -31.5q-16 -9 -32.5 -19t-30.5 -22t-23 -27t-9 -34q0 -18 7.5 -36.5t16 -39t16 -45t7.5 -54.5q0 -40 -26 -80.5t-66 -76t-88 -61.5t-92 -37l-64 74q19 7 39 22.5t36.5 35t27.5 42t11 45.5q0 20 -4.5 35t-10 30.5t-10 35 t-4.5 47.5q0 47 30 82.5t71 59.5q-42 10 -64.5 35.5t-35.5 62.5l-110 316l-253 -401h-274z" unicode="ҳ" horiz-adv-x="1020" glyph-name="uni04B3"/>
<glyph d="M261 97l137 30l164 1269h-220l-106 -340h-157l86 466h1088l-37 -466h-162l-18 340h-197l-165 -1276h708l163 1270l-160 26l12 106h594l-11 -106l-157 -26l-160 -1257l294 -1q-12 -72 -28 -143.5t-32.5 -136.5t-31.5 -120t-25 -94h-152q2 40 5.5 89t5.5 99t2 95.5t-4 78.5 h-1446z" unicode="Ҵ" horiz-adv-x="2039" glyph-name="uni04B4"/>
<glyph d="M434 1596h544l-20 -182h-543zM138 244q0 34 3.5 76.5t9.5 88.5t13 94t13 94l52 365l-113 71l16 89l333 41l50 -24l-69 -550q-11 -90 -22.5 -168.5t-11.5 -136.5q0 -43 7.5 -72t22.5 -46t36.5 -24.5t49.5 -7.5q32 0 63.5 10.5t60 28.5t54 41t46.5 48l120 893h268 l-127 -945q-10 -76 32 -76q8 0 16.5 2.5t19.5 8.5t26 17t36 28l29 -65q-5 -8 -17.5 -23t-32 -32t-45 -34.5t-55.5 -30.5q-15 -8 -30.5 -17.5t-28 -21.5t-20.5 -26t-8 -32t7.5 -36.5t16.5 -39t16.5 -45t7.5 -54.5q0 -40 -26 -80.5t-66 -76t-88 -61.5t-92 -37l-65 74 q19 7 39 22.5t37 35t28 42t11 45.5q0 20 -4.5 35t-10 30.5t-10 35t-4.5 47.5q0 48 30.5 83.5t75.5 61.5q-52 15 -72 54.5t-9 95.5l-4 6q-26 -31 -59.5 -60.5t-75 -53t-92.5 -38t-112 -14.5q-51 0 -100 13t-88 44t-63 81.5t-25 125.5z" unicode="ҵ" horiz-adv-x="1267" glyph-name="uni04B5"/>
<glyph d="M637 97l180 30l70 540q-37 -20 -79.5 -34.5t-87.5 -24t-90 -14.5t-87 -5q-100 0 -179 16t-130 64t-71.5 135.5t-2.5 231.5l45 355l-140 25l13 106h584l-12 -106l-155 -26l-29 -206q-14 -130 -18.5 -217.5t11 -140t56.5 -74.5t119 -22q34 0 72 3t74 10t68 16.5t54 23.5 l79 608l-166 25l12 106h595l-12 -106l-145 -25l-163 -1263h232q-6 -34 -16.5 -80t-23 -96t-27 -101t-27 -95t-22.5 -77t-14 -48h-153q1 18 3.5 48.5t4.5 66t4.5 74.5t4 73.5t1.5 63t-1 43.5h-443z" unicode="Ҷ" horiz-adv-x="1377" glyph-name="uni04B6"/>
<glyph d="M412 359q-87 0 -146 19.5t-91 67.5t-39.5 129t9.5 204l24 181l-119 73l17 89l332 41l54 -24l-48 -385q-8 -66 -8 -110.5t14.5 -71t46 -37.5t85.5 -11q68 0 116.5 11t81.5 30l1 -1l74 582h264l-114 -937q-5 -36 4.5 -56t29.5 -20q13 0 34 9t56 37l29 -64 q-14 -23 -52.5 -55.5t-92.5 -55.5q-15 -8 -31 -17.5t-29 -21t-21 -25.5t-8 -32t7.5 -36.5t16 -39t16 -45t7.5 -54.5q0 -40 -26 -80.5t-65.5 -76t-87.5 -61.5t-92 -37l-65 74q19 7 39 22.5t37 35t28 42t11 45.5q0 20 -4.5 35t-10.5 30.5t-10.5 35t-4.5 47.5q0 22 8.5 42.5 t23.5 38.5t34.5 34t41.5 30q-57 17 -82.5 58t-17.5 98l37 290q-75 -35 -153 -56t-161 -21z" unicode="ҷ" horiz-adv-x="1194" glyph-name="uni04B7"/>
<glyph d="M637 97l180 30l70 540q-40 -21 -86.5 -36.5t-95.5 -25.5l-31 -234h-127l29 218h-33q-100 0 -179 16t-130 64t-71.5 135.5t-2.5 231.5l45 355l-140 25l13 106h584l-12 -106l-155 -26l-29 -206q-13 -122 -18.5 -206t6 -137t44.5 -79t96 -31l40 300h127l-39 -297 q52 6 100.5 18t79.5 31l79 608l-166 25l12 106h595l-12 -106l-145 -25l-163 -1264l149 -30l-10 -97h-616z" unicode="Ҹ" horiz-adv-x="1377" glyph-name="uni04B8"/>
<glyph d="M513 361q-15 -2 -30.5 -2h-32.5q-106 0 -173.5 23.5t-103 76t-41 137.5t13.5 207l23 157l-119 73l17 89l332 41l54 -24l-47 -370q-9 -61 -9.5 -105t13 -73.5t43.5 -45.5t82 -20l37 286h121l-37 -283q44 5 82.5 14.5t58.5 22.5l1 -1l74 582h264l-114 -937q-5 -36 4.5 -56 t29.5 -20q13 0 34 9t56 37l29 -64q-10 -17 -34 -40t-58.5 -44t-76.5 -36t-88 -15q-47 0 -81.5 12.5t-56.5 34.5t-31 52.5t-4 66.5l37 290q-34 -17 -69.5 -31.5t-75.5 -24.5l-30 -229h-121z" unicode="ҹ" horiz-adv-x="1250" glyph-name="uni04B9"/>
<glyph d="M883 1425l-180 -30l-70 -540q37 20 79.5 34.5t87.5 24t90 14.5t87 5q100 0 179 -16t130 -64t71.5 -135.5t2.5 -231.5l-45 -355l140 -25l-13 -106h-584l12 106l155 26l29 206q14 130 18.5 217.5t-11 140t-56.5 74.5t-119 22q-34 0 -72 -3t-74 -10t-68 -16.5t-54 -23.5 l-79 -608l166 -25l-12 -106h-595l12 106l145 25l163 1264l-149 30l10 97h616z" unicode="Һ" horiz-adv-x="1432" glyph-name="uni04BA"/>
<glyph d="M277 1482l-123 43l17 83l346 42l53 -27l-90 -708q36 53 80 98.5t94 78.5t106 52t116 19q55 0 100.5 -15.5t78.5 -51t51 -93.5t18 -142q0 -29 -5 -72.5t-12.5 -92.5t-16 -99t-16.5 -92q-6 -38 -13.5 -79t-13.5 -81t-10.5 -77.5t-5.5 -70.5q-1 -36 7.5 -50t23.5 -14 q17 0 37.5 10t59.5 40l30 -63q-7 -11 -29.5 -34.5t-58 -47t-83 -41.5t-105.5 -18q-51 0 -84 11t-52 31.5t-26 48.5t-6 63q1 27 5.5 63.5t11 77t14.5 84t16 85.5t17 91.5t16.5 101.5t12 103.5t4.5 96.5q0 47 -7 76t-19.5 44.5t-29.5 21t-38 5.5q-34 0 -72.5 -19.5t-77 -53 t-75 -79t-66.5 -96.5l-93 -735h-272z" unicode="һ" horiz-adv-x="1271" glyph-name="uni04BB"/>
<glyph d="M309 589q0 38 2 75t6 74q-149 2 -230.5 49t-81.5 149q0 19 7.5 50t19.5 61.5t25.5 55.5t25.5 32l170 -30q-8 -9 -17 -29.5t-17.5 -43.5t-14 -44t-5.5 -31q0 -17 4 -33t18.5 -28.5t42.5 -20.5t75 -9q34 151 102.5 274.5t161 212t205 137t234.5 48.5q107 0 191 -33.5 t142.5 -98t89.5 -157.5t31 -213q0 -44 -4 -87.5t-10 -83t-14 -72t-16 -53.5h-856q-1 -20 -2 -39.5t-1 -39.5q-3 -133 17.5 -239t61 -179.5t99.5 -113t133 -39.5q97 0 160.5 31.5t92.5 75.5l80 179h146l-45 -313q-40 -1 -80.5 -14.5t-97.5 -29.5t-138.5 -29t-203.5 -13 q-117 0 -211.5 44t-160.5 124t-101.5 193t-35.5 251zM1204 866q13 55 20.5 103.5t7.5 100.5q0 57 -12 118t-40.5 111t-75 82t-116.5 32q-65 0 -125.5 -30.5t-111 -96.5t-88 -170t-55.5 -250h596z" unicode="Ҽ" horiz-adv-x="1526" glyph-name="uni04BC"/>
<glyph d="M320 430v20t1 20q-76 7 -131.5 29.5t-92 57t-54 79.5t-17.5 98q0 20 6.5 45.5t18.5 50.5t30.5 47t42.5 36l153 -94q-8 -7 -15.5 -20t-13.5 -28t-10 -31t-4 -28q0 -18 3.5 -37t14 -36.5t30 -31.5t52.5 -21q23 124 78 229.5t135 182.5t181 121t215 44q79 0 137 -19t96 -53 t56.5 -79.5t19.5 -98.5q1 -80 -30 -144.5t-83 -115t-120 -87t-139 -60t-141 -36t-126 -13.5q-2 -65 8.5 -122t34.5 -100.5t63 -68.5t94 -25q50 0 94.5 11.5t83.5 32t73.5 48.5t64.5 60l56 -94q-21 -32 -60.5 -70t-96 -71t-129 -55.5t-158.5 -22.5q-114 0 -194.5 38t-131 101 t-73.5 144t-22 167zM615 573q34 2 75 12t82 29t79.5 45.5t67.5 61.5t46.5 77t16.5 92q-2 74 -28 109t-73 35q-44 0 -80 -22t-64 -58t-49.5 -83.5t-36 -99t-23.5 -103t-13 -95.5z" unicode="ҽ" horiz-adv-x="1293" glyph-name="uni04BD"/>
<glyph d="M503 -295q13 -7 37 -11t47 -4q81 0 130.5 49.5t52.5 153.5q1 25 -0.5 46.5t-3.5 40.5q-106 9 -190.5 56.5t-144 127t-91 187.5t-31.5 238q0 38 2 75t6 74q-149 2 -230.5 49t-81.5 149q0 19 7.5 50t19.5 61.5t25.5 55.5t25.5 32l170 -30q-8 -9 -17 -29.5t-17.5 -43.5 t-14 -44t-5.5 -31q0 -17 4 -33t18.5 -28.5t42.5 -20.5t75 -9q34 151 102.5 274.5t161 212t205 137t234.5 48.5q107 0 191 -33.5t142.5 -98t89.5 -157.5t31 -213q0 -44 -4 -87.5t-10 -83t-14 -72t-16 -53.5h-856q-1 -20 -2 -39.5t-1 -39.5q-3 -133 17.5 -239t61 -179.5 t99.5 -113t133 -39.5q97 0 160.5 31.5t92.5 75.5l80 179h146l-45 -313q-36 -1 -71.5 -12t-83 -25t-112.5 -27.5t-158 -18.5q10 -35 16 -78.5t6 -83.5q0 -143 -73.5 -218t-217.5 -75q-20 0 -45.5 2t-49.5 6t-44 9t-28 11zM1204 866q13 55 20.5 103.5t7.5 100.5q0 57 -12 118 t-40.5 111t-75 82t-116.5 32q-65 0 -125.5 -30.5t-111 -96.5t-88 -170t-55.5 -250h596z" unicode="Ҿ" horiz-adv-x="1526" glyph-name="uni04BE"/>
<glyph d="M320 430v20t1 20q-76 7 -131.5 29.5t-92 57t-54 79.5t-17.5 98q0 20 6.5 45.5t18.5 50.5t30.5 47t42.5 36l153 -94q-8 -7 -15.5 -20t-13.5 -28t-10 -31t-4 -28q0 -18 3.5 -37t14 -36.5t30 -31.5t52.5 -21q23 124 78 229.5t135 182.5t181 121t215 44q79 0 137 -19t96 -53 t56.5 -79.5t19.5 -98.5q1 -80 -30 -144.5t-83 -115t-120 -87t-139 -60t-141 -36t-126 -13.5q-2 -65 8.5 -122t34.5 -100.5t63 -68.5t94 -25q50 0 94.5 11.5t83.5 32t73.5 48.5t64.5 60l56 -94q-18 -27 -48.5 -58.5t-73.5 -61t-97.5 -53.5t-119.5 -36q-24 -15 -42 -34.5 t-18 -47.5q0 -18 7.5 -36.5t16.5 -39t16.5 -45t7.5 -54.5q0 -40 -26 -80.5t-66 -76t-88 -61.5t-92 -37l-65 74q19 7 39 22.5t37 35t28 42t11 45.5q0 20 -4.5 35t-10 30.5t-10 35t-4.5 47.5q0 46 28.5 80t66.5 58q-97 10 -165 51.5t-111.5 103t-63 137t-18.5 155.5zM615 573 q34 2 75 12t82 29t79.5 45.5t67.5 61.5t46.5 77t16.5 92q-2 74 -28 109t-73 35q-44 0 -80 -22t-64 -58t-49.5 -83.5t-36 -99t-23.5 -103t-13 -95.5z" unicode="ҿ" horiz-adv-x="1293" glyph-name="uni04BF"/>
<glyph d="M14 97l149 30l164 1264l-141 25l12 106h588l-11 -106l-164 -25l-163 -1264l167 -29l-8 -98h-604z" unicode="Ӏ" horiz-adv-x="740" glyph-name="uni04C0"/>
<glyph d="M1173 1635q-90 0 -162 16.5t-122 51.5t-77 88t-27 127q0 20 1 40t8 43h230q17 0 23 -13.5t6 -32.5q0 -23 -3.5 -48t-3.5 -47q0 -27 7 -49t23.5 -38t44.5 -25t70 -9q58 0 93 14.5t54 39.5t26.5 58.5t12.5 70.5q2 15 5 29t8.5 25t13 18t19.5 7h186q0 -8 -0.5 -16.5 t-1.5 -16.5q-11 -87 -45 -150t-89 -103.5t-130.5 -60t-169.5 -19.5zM-32 97l66 30q22 9 53 40.5t68 77.5t78.5 102.5t86 115.5t91 116.5t92 104.5t89 80t82.5 44l-367 584l-153 24l12 106h490l-12 -106l-149 -26l321 -577h120l75 578l-150 25l13 106h586l-12 -106l-161 -25 l-75 -578h130l458 578l-135 25l13 106h463l-13 -106l-143 -27l-505 -583q32 -13 64 -47t64 -81t63.5 -104t62 -115t59.5 -113.5t55.5 -101t51 -77t46.5 -40.5l82 -30l-11 -97h-317q-24 0 -49 29.5t-50.5 78t-52 110.5t-53.5 127t-54 127t-54.5 110.5t-55 78t-54.5 29.5h-81 l-73 -563l163 -29l-8 -98h-593l10 97l152 30l72 557h-81q-30 0 -65 -29.5t-72.5 -77.5t-76.5 -109.5t-77.5 -125.5t-75.5 -125.5t-70 -109.5t-61.5 -77.5t-50.5 -29.5h-335z" unicode="Ӂ" horiz-adv-x="2084" glyph-name="uni04C1"/>
<glyph d="M1061 1265q-83 0 -152 16.5t-118.5 51.5t-76.5 89.5t-27 129.5q0 20 1.5 40.5t7.5 42.5h218q17 0 23 -13t6 -33q0 -23 -3.5 -48t-3.5 -47q0 -29 7 -51.5t24 -39t45.5 -25t71.5 -8.5q58 0 92.5 16t53 42t25.5 59.5t12 68.5q2 15 5 29t8.5 25t13 18t19.5 7h186 q0 -8 -0.5 -16.5t-1.5 -16.5q-12 -90 -46.5 -153.5t-89.5 -104.5t-130.5 -60t-169.5 -19zM65 227l102 -103q35 0 75.5 35.5t75.5 101.5t58 160.5t23 213.5q0 82 -12 143t-32 101t-47.5 59.5t-57.5 19.5q-48 0 -87.5 -19.5t-85.5 -65.5l-51 72q14 21 43 55t71 66.5t96 56 t118 23.5q69 0 125 -29.5t95.5 -87t61 -141.5t21.5 -192q0 -14 -0.5 -27t-1.5 -26h187l65 503h268l-65 -503h191q28 100 79 191.5t118.5 160.5t148 110t167.5 41q48 0 78.5 -9t51.5 -26l-82 -212l-101 103q-35 0 -76 -35.5t-76 -101.5t-58 -160.5t-23 -213.5 q0 -83 12 -143.5t32.5 -100.5t47.5 -59.5t57 -19.5q24 0 45.5 4.5t42 14.5t41.5 26.5t44 39.5l52 -72q-14 -21 -43.5 -55t-71.5 -66.5t-96 -56t-118 -23.5q-69 0 -124.5 29.5t-95 87t-61 141.5t-21.5 192q0 25 1.5 50t5.5 51h-183l-68 -531h-267l68 531h-190 q-24 -108 -74 -207.5t-119.5 -176t-154 -122t-177.5 -45.5q-48 0 -78.5 9t-51.5 26z" unicode="ӂ" horiz-adv-x="1943" glyph-name="uni04C2"/>
<glyph d="M16 97l142 30l164 1264l-139 25l13 106h590l-11 -106l-169 -25l-73 -565q42 12 86.5 20.5t79.5 12.5l414 530l-138 27l13 106h463l-13 -106l-140 -27l-449 -536q105 -18 181 -70t125.5 -133t73.5 -188.5t24 -235.5q0 -140 -49 -256t-135 -199t-203 -129t-253 -46 q-11 0 -25 1t-28.5 3t-27.5 5t-20 6l14 108q13 -2 34 -2h43q76 0 146.5 30t124.5 90.5t86 151t32 210.5q0 141 -23 241.5t-67.5 164.5t-109.5 93.5t-148 29.5q-38 0 -68 -3t-57 -9l-76 -589l166 -29l-8 -98h-595z" unicode="Ӄ" horiz-adv-x="1363" glyph-name="uni04C3"/>
<glyph d="M236 963l-103 59l17 89l316 52l61 -28l-71 -524q32 6 63 5.5t54 -0.5h10q61 47 109 93.5t88 104.5q21 27 35.5 55t14.5 55q1 13 -3 23t-8.5 20.5t-8.5 23.5t-4 33q0 33 14.5 58t38.5 41.5t55.5 25t64.5 8.5q25 0 48.5 -8t41 -23t28 -37t10.5 -50q0 -45 -18.5 -88t-49 -84 t-70.5 -78.5t-84 -72t-89 -65t-84 -56.5q89 -27 163 -84t127.5 -132t83 -161.5t29.5 -173.5q0 -96 -43.5 -178t-119 -142t-176 -94t-214.5 -34q-11 0 -25 1t-28.5 3t-27 5t-19.5 6l14 108q12 -2 33 -2h43q58 0 112.5 16.5t97 51t68.5 88.5t26 130q0 93 -28 183.5t-77 162.5 t-115.5 116t-144.5 44q-14 0 -26 0.5t-23 1.5l-69 -511h-267z" unicode="ӄ" horiz-adv-x="1167" glyph-name="uni04C4"/>
<glyph d="M-1 277q4 -6 21.5 -15.5t42.5 -18t55.5 -15t60.5 -6.5q28 0 59 36t63 103t62.5 161t58 210.5t50 252t37.5 284.5l13 119l-217 28l13 106h1174l-12 -106l-182 -25l-165 -1281l183 -13l-17 -56l5 -3q-9 -43 -31 -89t-53.5 -91.5t-69 -87t-77.5 -75.5t-80 -57.5t-75 -32.5 l-93 70q34 27 70 68t66.5 86.5t51 90.5t23.5 80h-354l9 98l160 29l164 1280h-360l-17 -146q-20 -179 -48 -343t-64 -306t-80.5 -258t-96.5 -198t-112 -127t-127 -45q-45 0 -85.5 12.5t-80.5 40.5z" unicode="Ӆ" horiz-adv-x="1395" glyph-name="uni04C5"/>
<glyph d="M600 -364q23 14 50 37.5t54 53.5t52.5 64.5t45 70t31 71t11.5 67.5l54 59l196 56q0 -50 -17.5 -105.5t-48.5 -111t-73 -108.5t-90.5 -97t-101 -76.5t-104.5 -48.5zM33 -16q-9 0 -24 2.5t-30.5 6t-27.5 8t-13 7.5l59 256q4 -3 23.5 -8.5t43.5 -11.5t46 -10t30 -4 q11 0 22.5 11.5t22.5 31.5q24 41 47.5 117t45 172t40 204.5t32.5 214.5l-214 44l16 121h912l-121 -936q-5 -44 6.5 -60.5t25.5 -16.5t34.5 10t55.5 36l29 -64q-11 -17 -38 -40t-63.5 -44t-81 -36t-90.5 -15q-82 0 -127.5 39t-34.5 122l113 872h-298q-4 -32 -11.5 -82.5 t-18 -112t-23.5 -131t-27.5 -139t-30 -136t-31 -123t-30.5 -98.5t-29 -63q-20 -30 -41 -56.5t-48.5 -46t-64 -30.5t-86.5 -11z" unicode="ӆ" horiz-adv-x="1170" glyph-name="uni04C6"/>
<glyph d="M12 97l149 30l164 1264l-141 25l12 106h588l-11 -106l-164 -25l-71 -547h610q16 138 30.5 275.5t30.5 271.5l-145 25l15 106h569l-11 -106l-149 -24q-18 -152 -35 -302.5t-33.5 -288.5t-31.5 -260t-28.5 -217.5t-24.5 -160t-19 -88.5q-32 -94 -90.5 -166.5t-135 -124 t-165.5 -83.5t-181 -46l-44 99q75 22 133 58.5t100 81t67.5 94t35.5 98.5q29 144 52.5 300.5t43.5 321.5h-611l-75 -581l167 -29l-8 -98h-604z" unicode="Ӈ" horiz-adv-x="1609" glyph-name="uni04C7"/>
<glyph d="M233 962l-104 60l17 89l316 52l61 -28l-66 -486h437l66 497h261l-130 -986q-18 -141 -61.5 -246.5t-109 -176t-150.5 -105.5t-184 -35q-21 0 -42.5 1.5t-40.5 5t-33.5 8.5t-23.5 12l27 119q13 -3 37 -5t38 -2q73 0 121.5 31t80.5 92.5t52 152.5t35 210l40 296h-438 l-70 -518h-267z" unicode="ӈ" horiz-adv-x="1312" glyph-name="uni04C8"/>
<glyph d="M19 97l142 30l164 1264l-140 25l13 106h591l-12 -106l-168 -25l-71 -547h597l71 547l-165 25l11 106h597l-12 -106l-147 -25l-163 -1263l155 -31l-11 -97h-1q-24 -50 -64 -106t-84 -107t-87.5 -90.5t-73.5 -56.5l-122 68q24 28 51.5 67t52.5 80t44.5 79.5t28.5 65.5h-363 l11 98l179 30l75 580h-598l-75 -581l167 -29l-8 -98h-595z" unicode="Ӊ" horiz-adv-x="1602" glyph-name="uni04C9"/>
<glyph d="M233 962l-104 60l17 89l316 52l61 -28l-66 -487h412l66 498h266l-120 -937q-5 -38 4 -57t28 -19q7 0 15 2t18.5 7t24 14t32.5 23l29 -64q-1 -51 -18.5 -107t-48 -111.5t-72 -108t-89 -96.5t-99.5 -76.5t-103 -47.5l-59 68q33 20 73 58.5t76 86.5t62.5 100t31.5 99h-11 q-43 0 -78 10t-58 28.5t-34 46.5t-6 64l53 389h-413l-70 -518h-267z" unicode="ӊ" horiz-adv-x="1310" glyph-name="uni04CA"/>
<glyph d="M817 127l70 540q-37 -20 -79.5 -34.5t-87.5 -24t-90 -14.5t-87 -5q-100 0 -179 16t-130 64t-71.5 135.5t-2.5 231.5l45 355l-140 25l13 106h584l-12 -106l-155 -26l-29 -206q-14 -130 -18.5 -217.5t11 -140t56.5 -74.5t119 -22q34 0 72 3t74 10t68 16.5t54 23.5l79 608 l-166 25l12 106h595l-12 -106l-145 -25l-163 -1264l149 -30l-10 -97h-423q-6 -13 -15.5 -39.5t-20.5 -60t-22.5 -71t-21.5 -73.5t-18 -67t-12 -51h-155q0 29 3 74.5t7 97.5t9.5 105t10 97.5t8.5 75.5t5 39h221z" unicode="Ӌ" horiz-adv-x="1377" glyph-name="uni04CB"/>
<glyph d="M339 -197q0 47 30.5 86.5t72 69t83 47t63.5 19.5l43 -46q-17 -11 -33.5 -22.5t-29.5 -24.5t-20.5 -29t-7.5 -36q0 -17 6.5 -36t14.5 -41t14.5 -46.5t6.5 -52.5q0 -40 -23.5 -75.5t-60.5 -64.5t-83 -50t-90 -32l-65 73q19 7 38 18t34.5 25.5t25.5 33t10 41.5 q0 19 -4.5 33.5t-10 30.5t-10 34.5t-4.5 44.5zM412 359q-87 0 -146 19.5t-91 67.5t-39.5 129t9.5 204l24 181l-119 73l17 89l332 41l54 -24l-48 -385q-8 -66 -8 -110.5t14.5 -71t46 -37.5t85.5 -11q68 0 116.5 11t81.5 30l1 -1l74 582h264l-114 -937q-5 -36 4.5 -56 t29.5 -20q13 0 34 9t56 37l29 -64q-10 -17 -34 -40t-58.5 -44t-76.5 -36t-88 -15q-47 0 -81.5 12.5t-56.5 34.5t-31 52.5t-4 66.5l37 290q-75 -35 -153 -56t-161 -21z" unicode="ӌ" horiz-adv-x="1194" glyph-name="uni04CC"/>
<glyph d="M-61 98l160 29l322 1264l-179 25l14 106h580l128 -934l18 -170l60 170q12 29 32.5 78t46.5 111t55.5 133t60 144.5t60.5 144.5t56 133.5t46.5 111.5t32.5 78h524l-12 -106l-171 -25l-33 -1263l169 -30l-9 -98q-16 -33 -39.5 -69.5t-51 -72.5t-58 -70.5t-59.5 -63.5 t-56 -51t-47 -33l-121 68q24 28 51.5 67t52.5 80t44.5 79.5t28.5 65.5h-376l9 99l183 28l48 874l25 400l-140 -352l-454 -1052l-143 -15l-153 1043l-57 376l-80 -386l-210 -888l207 -29l-9 -98h-568z" unicode="Ӎ" horiz-adv-x="1952" glyph-name="uni04CD"/>
<glyph d="M5 -16q-9 0 -23 2.5t-27.5 6t-24 8t-11.5 7.5l59 262q4 -3 25.5 -8.5t48 -11.5t50.5 -10t32 -4q23 51 45 118.5t41 141t35.5 148.5t30 140.5t23 117.5t15.5 81l-170 42l14 121h512l109 -633l29 -202l75 202l270 633h346l-36 -905q0 -48 8.5 -78.5t25.5 -30.5 q21 0 43.5 13.5t47.5 36.5l34 -75q-18 -84 -61.5 -167t-104 -153.5t-133 -123.5t-147.5 -78l-47 51q33 20 72 58t74.5 85.5t63.5 100.5t39 103q-12 -2 -24.5 -3t-25.5 -1q-60 0 -96 29.5t-38 102.5l23 578l21 343l-149 -341l-312 -706h-151l-131 676l-58 314l-63 -348 q-18 -96 -35.5 -171t-36.5 -136.5t-39.5 -113.5t-43.5 -101q-15 -33 -33.5 -56t-44 -37.5t-61 -21t-85.5 -6.5z" unicode="ӎ" horiz-adv-x="1649" glyph-name="uni04CE"/>
<glyph d="M14 97l149 30l164 1264l-141 25l12 106h588l-11 -106l-164 -25l-163 -1264l167 -29l-8 -98h-604z" unicode="ӏ" horiz-adv-x="740" glyph-name="uni04CF"/>
<glyph d="M674 1522h282l250 -1393l159 -32l-7 -97h-609l5 97l156 29l-44 299h-523l-133 -298l175 -30l-7 -97h-520l8 97l130 29zM845 563l-89 607l-10 159l-342 -766h441zM822 1635q-90 0 -162 16.5t-122 51.5t-77 88t-27 127q0 20 1 40t8 43h230q17 0 23 -13.5t6 -32.5 q0 -23 -3.5 -48t-3.5 -47q0 -27 7 -49t23.5 -38t44.5 -25t70 -9q58 0 93 14.5t54 39.5t26.5 58.5t12.5 70.5q2 15 5 29t8.5 25t13 18t19.5 7h186q0 -8 -0.5 -16.5t-1.5 -16.5q-11 -87 -45 -150t-89 -103.5t-130.5 -60t-169.5 -19.5z" unicode="Ӑ" horiz-adv-x="1347" glyph-name="uni04D0"/>
<glyph d="M404 -20q-89 0 -152.5 33t-104 90.5t-59 135.5t-18.5 167q0 88 19.5 178.5t57.5 174.5t94.5 157.5t131 128.5t166 86.5t200.5 31.5q56 0 116 -12.5t105 -26.5l137 39l-130 -954q-5 -41 6.5 -58.5t28.5 -17.5q14 0 35 9t56 37l30 -64q-8 -12 -29.5 -34.5t-54.5 -45 t-76.5 -39t-94.5 -16.5q-70 0 -112 33t-39 102l-8 13q-26 -29 -59 -55.5t-71 -47t-82 -33t-93 -12.5zM499 140q29 0 58 10.5t56 28.5t51 41t45 47l100 750q-22 8 -46.5 11t-50.5 3q-65 0 -117 -27t-92 -73.5t-68 -107.5t-46 -128.5t-26.5 -137.5t-8.5 -134 q0 -134 36.5 -208.5t108.5 -74.5zM719 1265q-83 0 -152 16.5t-118.5 51.5t-76.5 89.5t-27 129.5q0 20 1.5 40.5t7.5 42.5h218q17 0 23 -13t6 -33q0 -23 -3.5 -48t-3.5 -47q0 -29 7 -51.5t24 -39t45.5 -25t71.5 -8.5q58 0 92.5 16t53 42t25.5 59.5t12 68.5q2 15 5 29t8.5 25 t13 18t19.5 7h186q0 -8 -0.5 -16.5t-1.5 -16.5q-12 -90 -46.5 -153.5t-89.5 -104.5t-130.5 -60t-169.5 -19z" unicode="ӑ" horiz-adv-x="1197" glyph-name="uni04D1"/>
<glyph d="M674 1522h282l250 -1393l159 -32l-7 -97h-609l5 97l156 29l-44 299h-523l-133 -298l175 -30l-7 -97h-520l8 97l130 29zM845 563l-89 607l-10 159l-342 -766h441zM1043 1690q-27 0 -50 10.5t-40 28.5t-26.5 42.5t-9.5 53.5q0 36 13 65.5t34.5 51t50 33.5t60.5 12t57 -10 t42 -27.5t25.5 -40.5t8.5 -50q0 -36 -11.5 -67t-33 -53.5t-52 -35.5t-68.5 -13zM606 1690q-27 0 -50 10.5t-40 28.5t-26.5 42t-9.5 52q0 36 12.5 66t34 51.5t50 34t60.5 12.5t57 -10t42.5 -27.5t26 -41t7.5 -50.5q0 -36 -12 -67t-33 -53.5t-51.5 -35t-67.5 -12.5z" unicode="Ӓ" horiz-adv-x="1347" glyph-name="uni04D2"/>
<glyph d="M404 -20q-89 0 -152.5 33t-104 90.5t-59 135.5t-18.5 167q0 88 19.5 178.5t57.5 174.5t94.5 157.5t131 128.5t166 86.5t200.5 31.5q56 0 116 -12.5t105 -26.5l137 39l-130 -954q-5 -41 6.5 -58.5t28.5 -17.5q14 0 35 9t56 37l30 -64q-8 -12 -29.5 -34.5t-54.5 -45 t-76.5 -39t-94.5 -16.5q-70 0 -112 33t-39 102l-8 13q-26 -29 -59 -55.5t-71 -47t-82 -33t-93 -12.5zM499 140q29 0 58 10.5t56 28.5t51 41t45 47l100 750q-22 8 -46.5 11t-50.5 3q-65 0 -117 -27t-92 -73.5t-68 -107.5t-46 -128.5t-26.5 -137.5t-8.5 -134 q0 -134 36.5 -208.5t108.5 -74.5zM948 1360q-27 0 -51 12t-42 32t-28 46t-10 54q0 36 12 67.5t33.5 55.5t51.5 38t66 14q32 0 57.5 -11.5t43.5 -31t27 -44.5t9 -52q0 -36 -11.5 -69t-33 -57.5t-53 -39t-71.5 -14.5zM510 1360q-27 0 -51 12t-42 32t-28 46t-10 54 q0 36 12 67.5t33.5 55.5t51.5 38t66 14q32 0 57.5 -11.5t43.5 -31t27.5 -44.5t8.5 -52q0 -36 -11.5 -69t-33 -57.5t-53 -39t-71.5 -14.5z" unicode="ӓ" horiz-adv-x="1197" glyph-name="uni04D3"/>
<glyph d="M695 1387l-292 24l15 111h1454l-23 -334h-171l-40 199l-366 20l-73 -549l430 33l-25 -200l-420 25l-76 -589l485 30l108 248l164 -21l-67 -384h-1127l12 97l142 30l39 315h-474l-163 -315l189 -30l-7 -97h-596l11 97l156 30zM881 580l102 817l-98 2l-424 -819h420z" unicode="Ӕ" horiz-adv-x="1923" glyph-name="uni04D4"/>
<glyph d="M382 -20q-87 0 -146.5 32.5t-96.5 89t-53 133.5t-16 166q0 88 21 179t62.5 175.5t102 159t139.5 129.5t175 87t209 32q48 0 102 -9.5t99 -22.5l101 32l-12 -90q65 42 137.5 65t151.5 25q80 1 137.5 -18.5t95 -53.5t55.5 -80.5t19 -99.5q1 -80 -29.5 -144.5t-82 -114.5 t-118.5 -86t-137.5 -60t-139.5 -36t-125 -13q-2 -71 7 -129.5t30.5 -100t58 -64t90.5 -22.5q51 0 96.5 11.5t86 32t76 48.5t66.5 60l56 -94q-21 -32 -61.5 -70t-98.5 -71t-131.5 -55.5t-160.5 -22.5q-84 0 -149 20.5t-112 58t-77.5 89.5t-46.5 114q-28 -47 -67.5 -97 t-88 -91t-105.5 -67.5t-120 -26.5zM1035 573q34 2 74 12t80.5 28.5t78 45.5t66 61.5t45.5 77t16 92.5q-2 73 -27 108.5t-72 35.5q-43 0 -78.5 -22t-63 -58t-48.5 -83.5t-35.5 -99t-23.5 -103t-12 -95.5zM465 154q41 0 81.5 25t77 62t67.5 80.5t54 80.5v4l-22 -23l100 642 q-30 6 -63 6q-70 0 -127.5 -27t-102.5 -73.5t-78 -107.5t-55 -128.5t-32.5 -137.5t-10.5 -134q0 -57 6 -106.5t19.5 -85.5t34.5 -56.5t51 -20.5z" unicode="ӕ" horiz-adv-x="1730" glyph-name="uni04D5"/>
<glyph d="M800 1635q-90 0 -162 16.5t-122 51.5t-77 88t-27 127q0 20 1 40t8 43h230q17 0 23 -13.5t6 -32.5q0 -23 -3.5 -48t-3.5 -47q0 -27 7 -49t23.5 -38t44.5 -25t70 -9q58 0 93 14.5t54 39.5t26.5 58.5t12.5 70.5q2 15 5 29t8.5 25t13 18t19.5 7h186q0 -8 -0.5 -16.5 t-1.5 -16.5q-11 -87 -45 -150t-89 -103.5t-130.5 -60t-169.5 -19.5zM4 97l155 30l162 1264l-139 25l11 106h1034l-23 -344h-171l-40 209l-384 20l-73 -545l454 29l-26 -198l-444 23l-80 -589l502 30l118 258l165 -22l-79 -393h-1154z" unicode="Ӗ" horiz-adv-x="1283" glyph-name="uni04D6"/>
<glyph d="M72 430q1 152 49 285.5t132 233.5t197 157.5t245 57.5q79 0 137 -19.5t96 -53t56.5 -79.5t19.5 -99q1 -80 -30 -144.5t-83 -115t-120 -87t-139 -60t-141 -36t-126 -13.5q-2 -65 8.5 -123t34.5 -102t63 -70t93 -26q50 0 94.5 12.5t84 34t74 50t64.5 60.5l56 -94 q-21 -32 -60.5 -70.5t-96 -73t-129 -57.5t-158.5 -23q-114 0 -194.5 39t-131 103t-73.5 145.5t-22 167.5zM367 573q34 2 75 12t82 29t79.5 45.5t67.5 61.5t46.5 77t16.5 92q-2 74 -28 109t-73 35q-44 0 -80 -22t-64 -58t-49.5 -83.5t-36 -99t-23.5 -103t-13 -95.5zM663 1265 q-83 0 -152 16.5t-118.5 51.5t-76.5 89.5t-27 129.5q0 20 1.5 40.5t7.5 42.5h218q17 0 23 -13t6 -33q0 -23 -3.5 -48t-3.5 -47q0 -29 7 -51.5t24 -39t45.5 -25t71.5 -8.5q58 0 92.5 16t53 42t25.5 59.5t12 68.5q2 15 5 29t8.5 25t13 18t19.5 7h186q0 -8 -0.5 -16.5 t-1.5 -16.5q-12 -90 -46.5 -153.5t-89.5 -104.5t-130.5 -60t-169.5 -19z" unicode="ӗ" horiz-adv-x="1067" glyph-name="uni04D7"/>
<glyph d="M79 479q0 44 4 87.5t10 82.5t14 71.5t16 54.5h874q2 19 2.5 39t1.5 40q3 133 -17 238.5t-61 179.5t-101.5 113.5t-136.5 39.5q-102 0 -165 -29t-96 -78l-80 -179h-152l45 313q41 1 83 14.5t100.5 29.5t142 29t207.5 13q117 0 211.5 -44t160.5 -124t101.5 -193t35.5 -251 q0 -137 -27 -261t-75 -229.5t-116 -190.5t-149 -144.5t-174 -91.5t-192 -32q-110 0 -196.5 33.5t-146.5 98t-92 157.5t-32 213zM343 445q0 -70 15.5 -132.5t47.5 -109t80.5 -74t114.5 -27.5t127.5 30.5t112 96.5t88 169.5t56.5 250.5h-614q-12 -55 -20 -103.5t-8 -100.5z " unicode="Ә" horiz-adv-x="1325" glyph-name="uni04D8"/>
<glyph d="M27 228q-2 80 29.5 144.5t83.5 115t119.5 87t139.5 60t141.5 35.5t125.5 14q2 64 -8.5 122.5t-34.5 102t-63 69.5t-93 26q-50 0 -94.5 -12.5t-83.5 -33.5t-74 -49.5t-65 -60.5l-56 94q21 31 60.5 70t96 73.5t129 57.5t158.5 23q114 0 194.5 -39t131 -103t73.5 -146 t22 -167q-1 -152 -49 -285.5t-132 -233.5t-197 -157.5t-245 -57.5q-80 0 -137.5 19.5t-95.5 53t-56.5 79.5t-19.5 99zM297 250q2 -73 28 -108t73 -35q44 0 80 22t64 58t49.5 83.5t36 99t23.5 102.5t13 96q-34 -2 -75 -12t-82 -29t-79.5 -45.5t-67.5 -61.5t-46.5 -77.5 t-16.5 -92.5z" unicode="ә" horiz-adv-x="1035" glyph-name="afii10846"/>
<glyph d="M1038 1690q-27 0 -50 10.5t-40 28.5t-26.5 42.5t-9.5 53.5q0 36 13 65.5t34.5 51t50 33.5t60.5 12t57 -10t42 -27.5t25.5 -40.5t8.5 -50q0 -36 -11.5 -67t-33 -53.5t-52 -35.5t-68.5 -13zM601 1690q-27 0 -50 10.5t-40 28.5t-26.5 42t-9.5 52q0 36 12.5 66t34 51.5t50 34 t60.5 12.5t57 -10t42.5 -27.5t26 -41t7.5 -50.5q0 -36 -12 -67t-33 -53.5t-51.5 -35t-67.5 -12.5zM79 479q0 44 4 87.5t10 82.5t14 71.5t16 54.5h874q2 19 2.5 39t1.5 40q3 133 -17 238.5t-61 179.5t-101.5 113.5t-136.5 39.5q-102 0 -165 -29t-96 -78l-80 -179h-152l45 313 q41 1 83 14.5t100.5 29.5t142 29t207.5 13q117 0 211.5 -44t160.5 -124t101.5 -193t35.5 -251q0 -137 -27 -261t-75 -229.5t-116 -190.5t-149 -144.5t-174 -91.5t-192 -32q-110 0 -196.5 33.5t-146.5 98t-92 157.5t-32 213zM343 445q0 -70 15.5 -132.5t47.5 -109t80.5 -74 t114.5 -27.5t127.5 30.5t112 96.5t88 169.5t56.5 250.5h-614q-12 -55 -20 -103.5t-8 -100.5z" unicode="Ӛ" horiz-adv-x="1325" glyph-name="uni04DA"/>
<glyph d="M793 1360q-27 0 -51 12t-42 32t-28 46t-10 54q0 36 12 67.5t33.5 55.5t51.5 38t66 14q32 0 57.5 -11.5t43.5 -31t27 -44.5t9 -52q0 -36 -11.5 -69t-33 -57.5t-53 -39t-71.5 -14.5zM355 1360q-27 0 -51 12t-42 32t-28 46t-10 54q0 36 12 67.5t33.5 55.5t51.5 38t66 14 q32 0 57.5 -11.5t43.5 -31t27.5 -44.5t8.5 -52q0 -36 -11.5 -69t-33 -57.5t-53 -39t-71.5 -14.5zM27 228q-2 80 29.5 144.5t83.5 115t119.5 87t139.5 60t141.5 35.5t125.5 14q2 64 -8.5 122.5t-34.5 102t-63 69.5t-93 26q-50 0 -94.5 -12.5t-83.5 -33.5t-74 -49.5t-65 -60.5 l-56 94q21 31 60.5 70t96 73.5t129 57.5t158.5 23q114 0 194.5 -39t131 -103t73.5 -146t22 -167q-1 -152 -49 -285.5t-132 -233.5t-197 -157.5t-245 -57.5q-80 0 -137.5 19.5t-95.5 53t-56.5 79.5t-19.5 99zM297 250q2 -73 28 -108t73 -35q44 0 80 22t64 58t49.5 83.5t36 99 t23.5 102.5t13 96q-34 -2 -75 -12t-82 -29t-79.5 -45.5t-67.5 -61.5t-46.5 -77.5t-16.5 -92.5z" unicode="ӛ" horiz-adv-x="1035" glyph-name="uni04DB"/>
<glyph d="M1408 1690q-27 0 -50 10.5t-40 28.5t-26.5 42.5t-9.5 53.5q0 36 13 65.5t34.5 51t50 33.5t60.5 12t57 -10t42 -27.5t25.5 -40.5t8.5 -50q0 -36 -11.5 -67t-33 -53.5t-52 -35.5t-68.5 -13zM971 1690q-27 0 -50 10.5t-40 28.5t-26.5 42t-9.5 52q0 36 12.5 66t34 51.5t50 34 t60.5 12.5t57 -10t42.5 -27.5t26 -41t7.5 -50.5q0 -36 -12 -67t-33 -53.5t-51.5 -35t-67.5 -12.5zM-32 97l66 30q22 9 53 40.5t68 77.5t78.5 102.5t86 115.5t91 116.5t92 104.5t89 80t82.5 44l-367 584l-153 24l12 106h490l-12 -106l-149 -26l321 -577h120l75 578l-150 25 l13 106h586l-12 -106l-161 -25l-75 -578h130l458 578l-135 25l13 106h463l-13 -106l-143 -27l-505 -583q32 -13 64 -47t64 -81t63.5 -104t62 -115t59.5 -113.5t55.5 -101t51 -77t46.5 -40.5l82 -30l-11 -97h-317q-24 0 -49 29.5t-50.5 78t-52 110.5t-53.5 127t-54 127 t-54.5 110.5t-55 78t-54.5 29.5h-81l-73 -563l163 -29l-8 -98h-593l10 97l152 30l72 557h-81q-30 0 -65 -29.5t-72.5 -77.5t-76.5 -109.5t-77.5 -125.5t-75.5 -125.5t-70 -109.5t-61.5 -77.5t-50.5 -29.5h-335z" unicode="Ӝ" horiz-adv-x="2084" glyph-name="uni04DC"/>
<glyph d="M1294 1360q-27 0 -51 12t-42 32t-28 46t-10 54q0 36 12 67.5t33.5 55.5t51.5 38t66 14q32 0 57.5 -11.5t43.5 -31t27 -44.5t9 -52q0 -36 -11.5 -69t-33 -57.5t-53 -39t-71.5 -14.5zM856 1360q-27 0 -51 12t-42 32t-28 46t-10 54q0 36 12 67.5t33.5 55.5t51.5 38t66 14 q32 0 57.5 -11.5t43.5 -31t27.5 -44.5t8.5 -52q0 -36 -11.5 -69t-33 -57.5t-53 -39t-71.5 -14.5zM65 227l102 -103q35 0 75.5 35.5t75.5 101.5t58 160.5t23 213.5q0 82 -12 143t-32 101t-47.5 59.5t-57.5 19.5q-48 0 -87.5 -19.5t-85.5 -65.5l-51 72q14 21 43 55t71 66.5 t96 56t118 23.5q69 0 125 -29.5t95.5 -87t61 -141.5t21.5 -192q0 -14 -0.5 -27t-1.5 -26h187l65 503h268l-65 -503h191q28 100 79 191.5t118.5 160.5t148 110t167.5 41q48 0 78.5 -9t51.5 -26l-82 -212l-101 103q-35 0 -76 -35.5t-76 -101.5t-58 -160.5t-23 -213.5 q0 -83 12 -143.5t32.5 -100.5t47.5 -59.5t57 -19.5q24 0 45.5 4.5t42 14.5t41.5 26.5t44 39.5l52 -72q-14 -21 -43.5 -55t-71.5 -66.5t-96 -56t-118 -23.5q-69 0 -124.5 29.5t-95 87t-61 141.5t-21.5 192q0 25 1.5 50t5.5 51h-183l-68 -531h-267l68 531h-190 q-24 -108 -74 -207.5t-119.5 -176t-154 -122t-177.5 -45.5q-48 0 -78.5 9t-51.5 26z" unicode="ӝ" horiz-adv-x="1943" glyph-name="uni04DD"/>
<glyph d="M87 419h177v-257q37 -22 94 -36t149 -14q70 0 126.5 27.5t96.5 77t61.5 119t21.5 153.5q0 109 -56 170t-181 61l-146 -12l14 138l122 3q48 0 97.5 20.5t89.5 64.5t65.5 113t25.5 167q0 104 -51.5 153t-146.5 49q-78 0 -130 -20t-76 -64l-46 -162h-172l21 301 q31 2 81.5 12.5t109.5 22.5t121 22t118 10q121 0 209 -23.5t145.5 -65t85.5 -98.5t28 -124q0 -75 -17 -132.5t-46 -101t-66.5 -74.5t-79.5 -52.5t-84.5 -35t-81.5 -22.5q91 -2 160 -25t116 -63.5t71 -96.5t24 -122q0 -137 -52.5 -234t-142 -159.5t-208.5 -91.5t-253 -29 q-74 0 -147 10t-137.5 25.5t-115.5 34t-82 36.5zM932 1690q-27 0 -50 10.5t-40 28.5t-26.5 42.5t-9.5 53.5q0 36 13 65.5t34.5 51t50 33.5t60.5 12t57 -10t42 -27.5t25.5 -40.5t8.5 -50q0 -36 -11.5 -67t-33 -53.5t-52 -35.5t-68.5 -13zM495 1690q-27 0 -50 10.5t-40 28.5 t-26.5 42t-9.5 52q0 36 12.5 66t34 51.5t50 34t60.5 12.5t57 -10t42.5 -27.5t26 -41t7.5 -50.5q0 -36 -12 -67t-33 -53.5t-51.5 -35t-67.5 -12.5z" unicode="Ӟ" horiz-adv-x="1214" glyph-name="uni04DE"/>
<glyph d="M803 1360q-27 0 -51 12t-42 32t-28 46t-10 54q0 36 12 67.5t33.5 55.5t51.5 38t66 14q32 0 57.5 -11.5t43.5 -31t27 -44.5t9 -52q0 -36 -11.5 -69t-33 -57.5t-53 -39t-71.5 -14.5zM365 1360q-27 0 -51 12t-42 32t-28 46t-10 54q0 36 12 67.5t33.5 55.5t51.5 38t66 14 q32 0 57.5 -11.5t43.5 -31t27.5 -44.5t8.5 -52q0 -36 -11.5 -69t-33 -57.5t-53 -39t-71.5 -14.5zM127 317l117 -150q29 -26 68 -45t94 -19q69 0 119 18t83 51t49 79t16 102q0 40 -11 73.5t-38.5 57.5t-74 37.5t-116.5 13.5l-111 -21l24 133l88 9q74 7 123.5 32t79 60t42 76 t12.5 81q0 64 -45.5 101t-143.5 37q-34 0 -62.5 -6.5t-51 -15.5t-38 -20t-22.5 -20l-63 -172h-150l36 297q49 0 87.5 8.5t80.5 19t94.5 19t131.5 8.5q97 0 173.5 -17t129 -49t80.5 -77t28 -102q0 -56 -23 -104t-61 -87t-86.5 -68t-100.5 -46q128 -5 198 -67t70 -167 q0 -96 -46 -169.5t-124 -123t-181.5 -75t-218.5 -25.5q-71 0 -130 8.5t-106 21.5t-82 28t-57 29z" unicode="ӟ" horiz-adv-x="1029" glyph-name="uni04DF"/>
<glyph d="M107 422h133l32 -238q3 -3 16 -12.5t38.5 -20t65.5 -19t97 -8.5q81 0 144 30.5t105.5 81t64.5 114.5t22 132q0 61 -16.5 111.5t-51 86.5t-87 55.5t-124.5 19.5q-23 0 -46.5 -1.5t-49.5 -6.5l-45 58l466 536h-459l-67 -188h-155l43 369h939l-16 -126l-513 -529 q23 4 46 5.5t46 1.5q72 0 141 -17.5t123 -58t87 -106.5t33 -163q0 -114 -44.5 -212.5t-130 -171.5t-209.5 -115t-283 -42q-83 0 -152 11t-123 24.5t-91 26t-55 16.5z" unicode="Ӡ" horiz-adv-x="1189" glyph-name="uni04E0"/>
<glyph d="M27 -126q51 -20 97 -31t100 -11q99 0 176 28.5t130 79.5t80.5 122t27.5 155q0 41 -10.5 78.5t-33 66.5t-57.5 46t-85 17q-20 0 -41.5 -1.5t-44.5 -5.5l-26 64l365 453h-404l-70 -161h-144l43 361h835l27 -100l-433 -521q16 3 33.5 4t31.5 1q87 0 145.5 -29t94 -75.5 t51 -105t15.5 -117.5q0 -105 -51 -196.5t-140.5 -159t-211.5 -106.5t-264 -39q-47 0 -84 4.5t-67.5 11.5t-55.5 15t-48 15l19 137v0z" unicode="ӡ" horiz-adv-x="1024" glyph-name="uni04E1"/>
<glyph d="M19 97l142 30l164 1264l-140 25l13 106h588l-11 -106l-168 -25l-126 -964l101 140l646 711l15 113l-140 25l13 106h588l-11 -106l-168 -25l-164 -1264l166 -29l-8 -98h-592l10 97l142 30l124 961l-96 -137l-651 -722l-13 -102l166 -29l-8 -98h-592zM715 1927h544 l-20 -182h-543z" unicode="Ӣ" horiz-adv-x="1641" glyph-name="uni04E2"/>
<glyph d="M138 244q0 34 3.5 76.5t9.5 88.5t13 94t13 94l52 365l-113 71l16 89l333 41l50 -24l-69 -550q-11 -90 -22.5 -168.5t-11.5 -136.5q0 -43 7.5 -72t22.5 -46t36.5 -24.5t49.5 -7.5q32 0 63.5 10.5t60 28.5t54 41t46.5 48l120 893h268l-127 -945q-10 -76 32 -76 q8 0 16.5 2.5t19.5 8.5t26 17t36 28l29 -65q-7 -12 -29 -36t-57 -48t-80.5 -42t-98.5 -18q-90 0 -127 44t-23 115l-4 6q-26 -31 -59.5 -60.5t-75 -53t-92.5 -38t-112 -14.5q-51 0 -100 13t-88 44t-63 81.5t-25 125.5zM426 1596h544l-20 -182h-543z" unicode="ӣ" glyph-name="uni04E3"/>
<glyph d="M19 97l142 30l164 1264l-140 25l13 106h588l-11 -106l-168 -25l-126 -964l101 140l646 711l15 113l-140 25l13 106h588l-11 -106l-168 -25l-164 -1264l166 -29l-8 -98h-592l10 97l142 30l124 961l-96 -137l-651 -722l-13 -102l166 -29l-8 -98h-592zM1165 1690 q-27 0 -50 10.5t-40 28.5t-26.5 42.5t-9.5 53.5q0 36 13 65.5t34.5 51t50 33.5t60.5 12t57 -10t42 -27.5t25.5 -40.5t8.5 -50q0 -36 -11.5 -67t-33 -53.5t-52 -35.5t-68.5 -13zM728 1690q-27 0 -50 10.5t-40 28.5t-26.5 42t-9.5 52q0 36 12.5 66t34 51.5t50 34t60.5 12.5 t57 -10t42.5 -27.5t26 -41t7.5 -50.5q0 -36 -12 -67t-33 -53.5t-51.5 -35t-67.5 -12.5z" unicode="Ӥ" horiz-adv-x="1641" glyph-name="uni04E4"/>
<glyph d="M902 1360q-27 0 -51 12t-42 32t-28 46t-10 54q0 36 12 67.5t33.5 55.5t51.5 38t66 14q32 0 57.5 -11.5t43.5 -31t27 -44.5t9 -52q0 -36 -11.5 -69t-33 -57.5t-53 -39t-71.5 -14.5zM464 1360q-27 0 -51 12t-42 32t-28 46t-10 54q0 36 12 67.5t33.5 55.5t51.5 38t66 14 q32 0 57.5 -11.5t43.5 -31t27.5 -44.5t8.5 -52q0 -36 -11.5 -69t-33 -57.5t-53 -39t-71.5 -14.5zM138 244q0 34 3.5 76.5t9.5 88.5t13 94t13 94l52 365l-113 71l16 89l333 41l50 -24l-69 -550q-11 -90 -22.5 -168.5t-11.5 -136.5q0 -43 7.5 -72t22.5 -46t36.5 -24.5 t49.5 -7.5q32 0 63.5 10.5t60 28.5t54 41t46.5 48l120 893h268l-127 -945q-10 -76 32 -76q8 0 16.5 2.5t19.5 8.5t26 17t36 28l29 -65q-7 -12 -29 -36t-57 -48t-80.5 -42t-98.5 -18q-90 0 -127 44t-23 115l-4 6q-26 -31 -59.5 -60.5t-75 -53t-92.5 -38t-112 -14.5 q-51 0 -100 13t-88 44t-63 81.5t-25 125.5z" unicode="ӥ" glyph-name="uni04E5"/>
<glyph d="M1056 1690q-27 0 -50 10.5t-40 28.5t-26.5 42.5t-9.5 53.5q0 36 13 65.5t34.5 51t50 33.5t60.5 12t57 -10t42 -27.5t25.5 -40.5t8.5 -50q0 -36 -11.5 -67t-33 -53.5t-52 -35.5t-68.5 -13zM619 1690q-27 0 -50 10.5t-40 28.5t-26.5 42t-9.5 52q0 36 12.5 66t34 51.5t50 34 t60.5 12.5t57 -10t42.5 -27.5t26 -41t7.5 -50.5q0 -36 -12 -67t-33 -53.5t-51.5 -35t-67.5 -12.5zM633 -20q-142 0 -244.5 51t-168.5 138.5t-98 206t-33 253.5q-1 123 20.5 238.5t64.5 217t107 185.5t147 144.5t185 94t222 33.5q96 0 173.5 -23.5t137.5 -66t104 -102 t72 -130.5t42 -152t15 -167q1 -122 -19.5 -237.5t-62.5 -218t-105 -188t-146 -147t-186.5 -96t-226.5 -34.5zM662 101q98 0 175 60t130.5 164.5t80.5 247t26 307.5q-1 124 -17 223.5t-49 169.5t-83.5 107.5t-119.5 37.5q-63 0 -119 -28t-102 -79t-82.5 -122t-61 -156.5 t-37.5 -183t-12 -201.5q1 -108 15 -206.5t45.5 -174.5t83 -121t127.5 -45z" unicode="Ӧ" horiz-adv-x="1426" glyph-name="uni04E6"/>
</font>
</defs>
</svg>
